<?xml version="1.0" encoding="utf-8"?>
<!-- Generator: Adobe Illustrator 27.5.0, SVG Export Plug-In . SVG Version: 6.00 Build 0)  -->
<svg version="1.1" id="Layer_1" xmlns="http://www.w3.org/2000/svg" xmlns:xlink="http://www.w3.org/1999/xlink" x="0px" y="0px"
	 viewBox="0 0 308.2 330.5" style="enable-background:new 0 0 308.2 330.5;" xml:space="preserve">
<style type="text/css">
	.st0{opacity:0.23;}
	.st1{fill:none;stroke:#000000;stroke-width:3;stroke-linecap:square;stroke-miterlimit:7.0169;}
	.st2{fill:#B3B3B3;stroke:#010101;stroke-width:2;stroke-miterlimit:7.0169;}
	.st3{fill:#ED1C24;stroke:#010101;stroke-width:2;stroke-miterlimit:10;}
	.st4{fill:#FFF200;stroke:#010101;stroke-width:2;stroke-miterlimit:10;}
	.st5{fill:none;}
	.st6{fill:none;stroke:#F26522;stroke-width:4;stroke-miterlimit:10;}
	.st7{fill:none;stroke:#F26522;stroke-width:4;stroke-miterlimit:10;stroke-dasharray:10.7584,10.7584;}
	.st8{fill:#00AEEF;}
	.st9{font-family:'Arial-BoldMT';}
	.st10{font-size:24px;}
	.st11{fill:#ED1C24;}
	.st12{font-size:18px;}
	.st13{fill:none;stroke:#FFFFFF;stroke-width:0.5;stroke-miterlimit:7.0169;}
	.st14{fill:none;stroke:#F26522;stroke-width:4;stroke-miterlimit:10;stroke-dasharray:10.941,10.941;}
	.st15{fill:#00C905;stroke:#010101;stroke-width:2;stroke-miterlimit:10;}
	.st16{opacity:0.33;fill:#00AEEF;enable-background:new    ;}
</style>
<g class="st0">
	<g>
		<g>
			<g>
				<g>
					<g>
						<path class="st1" d="M226,196.7c-0.1,4.1-1.3,8.2-3.9,11.4c-2.5,3.3-6.2,5.4-10.1,6.5c-3.9,1.1-8.1,1.1-12.1,0.3
							s-7.9-2.5-10.9-5.2c-1.5-1.4-2.7-3.1-3.5-5c-0.2-0.5-0.3-1-0.5-1.5l-0.3-1.5c-0.1-0.5-0.2-1-0.3-1.5s-0.2-1-0.2-1.5
							c-0.5-4.1,0.1-8.2,1.3-12.1c1.3-3.9,3.2-7.5,5.4-10.9s4.8-6.6,7.4-9.7"/>
						<g>
							<path d="M207.3,156.4c-2.1,6.4-4.2,12.9-5.3,19.2c-1.5-2.9-2.8-5.8-4.1-8.8c-3.2-0.8-6.4-1.5-9.7-2
								C194.6,161.3,200.9,158.9,207.3,156.4z"/>
						</g>
					</g>
				</g>
			</g>
			<g>
				<g>
					<g>
						<path class="st1" d="M208.2,155.5c5.6-5.9,11.4-11.7,16.8-17.8c5.4-6.1,10.5-12.5,15-19.3c4.4-6.8,8.2-14.1,11-21.8
							c2.8-7.6,4.7-15.7,5.5-23.8"/>
						<g>
							<path d="M257,59.8c3,6.1,5.6,12.7,7.4,19.7c-2.6-2-5.3-3.9-8.1-5.7c-3.1,1.1-6.2,2.1-9.3,2.9C250.8,71.7,254.2,66,257,59.8z"
								/>
						</g>
					</g>
				</g>
			</g>
		</g>
	</g>
</g>
<path id="path1317" class="st2" d="M279.1,239.6c0.2,14.9,3.5,20.7,4.2,21.2c1.4,1,6.3,1.3,8.7,1.3c2.5,0,7.3-0.3,8.7-1.3
	c0.8-0.6,4-6.4,4.3-21.2c0.2-11.1-6.8-18.7-10.6-22c-1.2-1-3.5-1-4.7,0C285.9,220.9,278.9,228.5,279.1,239.6z"/>
<circle class="st3" cx="180.4" cy="233.3" r="11.1"/>
<circle class="st4" cx="229.5" cy="42" r="11.1"/>
<circle class="st4" cx="32.4" cy="123.6" r="11.1"/>
<line class="st5" x1="129.7" y1="152.4" x2="275.5" y2="156.8"/>
<g>
	<line class="st5" x1="180.4" y1="222.2" x2="289.3" y2="222.2"/>
	<g>
		<line class="st6" x1="180.4" y1="222.2" x2="186.4" y2="222.2"/>
		<line class="st7" x1="197.2" y1="222.2" x2="277.9" y2="222.2"/>
		<line class="st6" x1="283.3" y1="222.2" x2="289.3" y2="222.2"/>
	</g>
</g>
<g>
	<g>
		<g>
			<g>
				<g>
					<g>
						<path class="st1" d="M274.6,232.6c0.2-39.4,0.5-78.8,0.5-118.3"/>
						<g>
							<polygon points="275.2,98.5 283.9,120.8 275.2,115.5 266.4,120.8 							"/>
						</g>
					</g>
				</g>
			</g>
			<g>
				<g>
					<g>
						<path class="st1" d="M275.2,97c0-19.7,0-39.4-0.4-59.1l-0.2-7.4c-0.2-2.4-0.5-4.9-1.4-7.2c-0.8-2.3-2.2-4.4-3.8-6.3l-1.3-1.3
							c-0.4-0.4-1-0.8-1.4-1.2c-0.9-0.8-2-1.4-3.1-2c-4.4-2.3-9.3-3.4-14.2-3.6c-4.9-0.1-9.9,0.6-14.6,2"/>
						<g>
							<path d="M221,18.1c1.9-3.5,4.6-6.8,7.8-9.7s6.9-5.6,11-7.7c-1.6,3.3-2.9,6.5-3.8,9.8c2.5,2.3,4.7,4.9,6.5,7.5
								C236.1,16.1,228.6,15.7,221,18.1z"/>
						</g>
					</g>
				</g>
			</g>
			<g>
				<g>
					<g>
						<path class="st1" d="M219.8,19.2c-1,0.8-1.7,1.7-2.6,2.6c-0.4,0.4-0.8,1-1.1,1.5c-0.4,0.5-0.8,1-1.1,1.5
							c-0.6,1.1-1.3,2.1-1.8,3.2c-0.2,0.6-0.5,1.1-0.7,1.7l-0.5,1.8l-0.3,0.9c-0.1,0.3-0.1,0.6-0.2,0.9l-0.3,1.8
							c-0.1,0.6-0.1,1.2-0.1,1.8s-0.1,1.2-0.1,1.8c0.1,1.2,0.2,2.5,0.3,3.7l0.5,3.7c1.3,9.8,2.5,19.5,3.7,29.3
							c2.4,19.6,4.5,39.2,6.5,58.8"/>
						<g>
							<path d="M223.5,150c-3.6-7.1-7.2-14.2-10.8-21.3l9.3,4.4l8.2-6.1C228,134.6,225.8,142.3,223.5,150z"/>
						</g>
					</g>
				</g>
			</g>
			<g>
				<g>
					<g>
						<path class="st1" d="M223.6,151.5c0.7,8.1,1.3,16.2,1.9,24.3c0.2,4.1,0.4,8.1,0.5,12.2c0.1,2,0,4.1,0,6.1c0,1,0,2,0,3
							c0,0.5,0.1,1,0.2,1.5c0.1,0.5,0.1,1,0.3,1.5c0.8,4,3.6,7.4,7.2,9.4c3.5,2,7.7,2.8,11.7,2.9c4.1,0,8.2-0.8,11.8-2.6
							c1.8-0.9,3.5-2.1,4.8-3.7c1.3-1.6,2-3.6,1.8-5.7c-0.4-6.9-0.6-13.8-0.8-20.6"/>
						<g>
							<path d="M262.5,164.1c3.1,7.3,6.2,14.7,9.4,22l-8.9-5l-8.6,5.6C257.1,179.1,259.8,171.6,262.5,164.1z"/>
						</g>
					</g>
				</g>
			</g>
			<g>
				<g>
					<g>
						<path class="st1" d="M262.5,162.6c-0.5-19.7-1.1-39.4-2.2-59.1c-0.5-9.8-1.2-19.7-2-29.5c-0.4-4.9-0.9-9.8-1.4-14.7
							s-0.8-9.8-1.2-14.7"/>
						<g>
							<path d="M253.2,29c2.6,3,4.6,6.8,6.5,10.4c1.9,3.7,3.6,7.4,5.3,10.9l-9.1-4.6l-8.4,5.9c1.2-3.8,2.4-7.5,3.5-11.2
								C252.1,36.6,253,33,253.2,29z"/>
						</g>
					</g>
				</g>
			</g>
			<g>
				<g>
					<g>
						<path class="st1" d="M252.6,27.6c-1-2.2-2.5-4.4-4.8-5.4c-1.1-0.5-2.3-0.8-3.6-0.8c-0.6-0.1-1.2,0-1.8,0.1s-1.2,0.2-1.8,0.3
							c-2.4,0.5-4.7,1.5-7,2.4l-6.9,2.7l-27.5,10.8c-18.4,7.2-36.7,14.3-55.1,21.4"/>
						<g>
							<polygon points="129.3,64.5 147,48.4 145.2,58.5 153.3,64.8 							"/>
						</g>
					</g>
				</g>
			</g>
			<g>
				<g>
					<g>
						<path class="st1" d="M127.9,65.1C109.5,72.1,91,79,72.4,85.6c-4.6,1.7-9.3,3.3-13.9,4.9l-7,2.4l-7,2.3c-2.3,0.8-4.7,1.6-7,2.3
							l-7.1,2.2c-2.4,0.7-4.7,1.4-6.9,2.6c-2.2,1.1-4.2,2.6-6,4.3"/>
						<g>
							<path d="M10,120.3c-0.7-3.9-0.5-8.3,0.9-12.7c1.3-4.4,3.9-8.7,7.4-12.4c-0.6,3.7-0.6,7.3,0.1,10.7c3.2,1,6.2,2.6,8.6,4.6
								c-2.8,0-6,0.6-9,2.3C15,114.4,12.2,117,10,120.3z"/>
						</g>
					</g>
				</g>
			</g>
			<g>
				<g>
					<g>
						<path class="st1" d="M9.8,121.8c-0.3,2.4-0.3,4.9-0.4,7.4l-0.2,7.4l-0.3,14.8c-0.2,9.9-0.3,19.7-0.3,29.6
							c0,19.7,0.1,39.4,1,59.1"/>
						<g>
							<path d="M11.1,255.8c-0.6-0.8-1.2-1.6-1.7-2.5s-1-1.9-1.4-2.8L5.4,245c-1.7-3.7-3.3-7.3-4.9-11c3,1.7,6,3.3,9,4.9
								c2.8-1.9,5.7-3.8,8.6-5.6c-1.3,3.7-2.6,7.4-3.9,11.2l-1.8,5.6c-0.3,1-0.6,1.8-0.8,2.8C11.3,253.8,11.2,254.8,11.1,255.8z"/>
						</g>
					</g>
				</g>
			</g>
			<g>
				<g>
					<g>
						<path class="st1" d="M11.5,257.2c0.8,2.3,2,4.5,3.5,6.5s3.3,3.7,5.3,5.1s4.3,2.4,6.5,3.5s4.4,2.2,6.7,3.2
							c8.9,4.2,17.9,8.2,27,12s18.3,7.3,27.7,10.4c4.7,1.6,9.4,3.1,14.1,4.4c2.4,0.7,4.8,1.3,7.1,1.9c2.4,0.5,4.8,1.2,7.2,1.6"/>
						<g>
							<path d="M132.3,307.6c-0.9,0.4-1.8,0.8-2.8,1.1c-1,0.4-1.9,0.6-2.9,0.9c-2,0.6-4,1-6,1.5c-2.1,0.4-4.1,0.7-6.1,1.1
								c-2.1,0.3-4.1,0.6-6.2,0.8c2.5-2.4,4.9-4.8,7.2-7.3c-1.1-3.2-2.1-6.5-3-9.7c1.5,1.1,3.1,2.3,4.7,3.3s3.2,2.2,4.8,3.1
								c1.6,1,3.3,2,5,2.8c0.9,0.4,1.7,0.9,2.6,1.3C130.5,306.9,131.4,307.2,132.3,307.6z"/>
						</g>
					</g>
				</g>
			</g>
		</g>
	</g>
</g>
<text transform="matrix(1 0 0 1 283.7167 79.8673)" class="st8 st9 st10">1</text>
<text transform="matrix(1 0 0 1 199.987 123.5783)" class="st8 st9 st10">2</text>
<text transform="matrix(1 0 0 1 245.9357 150.0315)" class="st8 st9 st10">3</text>
<text transform="matrix(1 0 0 1 15.5316 184.0839)" class="st8 st9 st10">5</text>
<text transform="matrix(1 0 0 1 64.439 280.4052)" class="st8 st9 st10">6</text>
<text transform="matrix(1 0 0 1 89.3553 62.5875)" class="st8 st9 st10">4</text>
<circle class="st3" cx="64.4" cy="317.4" r="11.1"/>
<text transform="matrix(1 0 0 1 213.1325 244.3864)" class="st11 st9 st12">Start</text>
<text transform="matrix(1 0 0 1 213.1325 244.3864)" class="st13 st9 st12">Start</text>
<g>
	<line class="st5" x1="71.4" y1="327.4" x2="136.2" y2="238"/>
	<g>
		<line class="st6" x1="71.4" y1="327.4" x2="74.9" y2="322.6"/>
		<line class="st14" x1="81.3" y1="313.7" x2="129.5" y2="247.3"/>
		<line class="st6" x1="132.7" y1="242.8" x2="136.2" y2="238"/>
	</g>
</g>
<text transform="matrix(1 0 0 1 114.4772 290.4568)" class="st11 st9 st12">Finish</text>
<text transform="matrix(1 0 0 1 114.4772 290.4568)" class="st13 st9 st12">Finish</text>
<circle class="st15" cx="207.3" cy="193.2" r="11.1"/>
<circle class="st15" cx="245.9" cy="192.3" r="11.1"/>
<circle class="st4" cx="28.8" cy="247.9" r="11.1"/>
<path id="path1317_00000057858661493522189610000010679936384406476956_" class="st2" d="M119.9,248c0.2,14.9,3.5,20.7,4.2,21.2
	c1.4,1,6.3,1.3,8.7,1.3c2.5,0,7.3-0.3,8.7-1.3c0.8-0.6,4-6.4,4.3-21.2c0.2-11.1-6.8-18.7-10.6-22c-1.2-1-3.5-1-4.7,0
	C126.7,229.3,119.7,236.9,119.9,248z"/>
<text transform="matrix(1 0 0 1 166.2722 182.0892)" class="st16 st9 st10">3</text>
</svg>
