<?xml version="1.0" encoding="UTF-8" standalone="no"?>
<!-- Created with Inkscape (http://www.inkscape.org/) -->

<svg
   width="35mm"
   height="26mm"
   viewBox="0 0 35 26"
   version="1.1"
   id="svg5"
   xml:space="preserve"
   inkscape:version="1.2.2 (732a01da63, 2022-12-09)"
   sodipodi:docname="keel-flow.svg"
   xmlns:inkscape="http://www.inkscape.org/namespaces/inkscape"
   xmlns:sodipodi="http://sodipodi.sourceforge.net/DTD/sodipodi-0.dtd"
   xmlns="http://www.w3.org/2000/svg"
   xmlns:svg="http://www.w3.org/2000/svg"><sodipodi:namedview
     id="namedview7"
     pagecolor="#ffffff"
     bordercolor="#000000"
     borderopacity="0.25"
     inkscape:showpageshadow="2"
     inkscape:pageopacity="0.0"
     inkscape:pagecheckerboard="0"
     inkscape:deskcolor="#d1d1d1"
     inkscape:document-units="mm"
     showgrid="false"
     inkscape:zoom="8.0472711"
     inkscape:cx="105.12881"
     inkscape:cy="51.880941"
     inkscape:window-width="2979"
     inkscape:window-height="1251"
     inkscape:window-x="663"
     inkscape:window-y="143"
     inkscape:window-maximized="0"
     inkscape:current-layer="layer1" /><defs
     id="defs2"><inkscape:path-effect
       effect="mirror_symmetry"
       start_point="125.84688,4.8185332"
       end_point="125.84688,8.1643624"
       center_point="125.84688,6.4914478"
       id="path-effect3493"
       is_visible="true"
       lpeversion="1.2"
       lpesatellites=""
       mode="free"
       discard_orig_path="false"
       fuse_paths="true"
       oposite_fuse="false"
       split_items="false"
       split_open="false"
       link_styles="false" /><inkscape:path-effect
       effect="mirror_symmetry"
       start_point="125.7,4.8185332"
       end_point="125.7,8.1643623"
       center_point="125.7,6.4914478"
       id="path-effect1260"
       is_visible="true"
       lpeversion="1.2"
       lpesatellites=""
       mode="free"
       discard_orig_path="false"
       fuse_paths="true"
       oposite_fuse="false"
       split_items="false"
       split_open="false"
       link_styles="false" /><inkscape:path-effect
       effect="mirror_symmetry"
       start_point="11.590986,28"
       end_point="53,28"
       center_point="32.295493,28"
       id="path-effect349"
       is_visible="true"
       lpeversion="1.2"
       lpesatellites=""
       mode="free"
       discard_orig_path="false"
       fuse_paths="true"
       oposite_fuse="true"
       split_items="false"
       split_open="false"
       link_styles="false" /><inkscape:path-effect
       effect="mirror_symmetry"
       start_point="11.590986,28"
       end_point="53,28"
       center_point="32.295493,28"
       id="path-effect349-3"
       is_visible="true"
       lpeversion="1.2"
       lpesatellites=""
       mode="free"
       discard_orig_path="false"
       fuse_paths="true"
       oposite_fuse="true"
       split_items="false"
       split_open="false"
       link_styles="false" /><marker
       style="overflow:visible"
       refX="0"
       refY="0"
       orient="auto-start-reverse"
       inkscape:stockid="Arrow2_Fnone_S-ff275d-79614"
       markerWidth="7.6999998"
       markerHeight="5.5999999"
       viewBox="0 0 7.7 5.6"
       inkscape:isstock="true"
       inkscape:collect="always"
       preserveAspectRatio="xMidYMid"
       id="Arrow2_Fnone_S-ff275d-79614"><path
         transform="scale(0.7)"
         d="M -2,-4 9,0 -2,4 c 2,-2.33 2,-5.66 0,-8 z"
         style="fill:#27b2ff;fill-opacity:1;fill-rule:evenodd;stroke:#27b2ff;stroke-opacity:1"
         id="path15206" /></marker><marker
       style="overflow:visible"
       refX="0"
       refY="0"
       orient="auto-start-reverse"
       inkscape:stockid="Arrow1_Fnone_S-bfe8bc-9422"
       markerWidth="4.0606604"
       markerHeight="6.7071066"
       viewBox="0 0 4.0606602 6.7071068"
       inkscape:isstock="true"
       inkscape:collect="always"
       preserveAspectRatio="xMidYMid"
       id="Arrow1_Fnone_S-bfe8bc-9422"><path
         style="fill:#bfe8bc;stroke:#bfe8bc;stroke-width:1;stroke-linecap:butt;stroke-opacity:1.0;fill-opacity:1.0"
         d="M 3,-3 0,0 3,3"
         id="path16188"
         transform="rotate(180,0.125,0)"
         sodipodi:nodetypes="ccc" /></marker><marker
       style="overflow:visible"
       refX="0"
       refY="0"
       orient="auto-start-reverse"
       inkscape:stockid="Arrow1_Fnone_S-d4e268-34652"
       markerWidth="4.0606604"
       markerHeight="6.7071066"
       viewBox="0 0 4.0606602 6.7071068"
       inkscape:isstock="true"
       inkscape:collect="always"
       preserveAspectRatio="xMidYMid"
       id="Arrow1_Fnone_S-d4e268-34652"><path
         style="fill:#68e2cb;stroke:#68e2cb;stroke-width:1;stroke-linecap:butt;stroke-opacity:1.0;fill-opacity:1.0"
         d="M 3,-3 0,0 3,3"
         id="path16191"
         transform="rotate(180,0.125,0)"
         sodipodi:nodetypes="ccc" /></marker><marker
       style="overflow:visible"
       refX="0"
       refY="0"
       orient="auto-start-reverse"
       inkscape:stockid="Arrow1_Fnone_S-deab6c-07329"
       markerWidth="4.0606604"
       markerHeight="6.7071066"
       viewBox="0 0 4.0606602 6.7071068"
       inkscape:isstock="true"
       inkscape:collect="always"
       preserveAspectRatio="xMidYMid"
       id="Arrow1_Fnone_S-deab6c-07329"><path
         style="fill:#6c9ede;stroke:#6c9ede;stroke-width:1;stroke-linecap:butt;stroke-opacity:1.0;fill-opacity:1.0"
         d="M 3,-3 0,0 3,3"
         id="path16194"
         transform="rotate(180,0.125,0)"
         sodipodi:nodetypes="ccc" /></marker><marker
       style="overflow:visible"
       refX="0"
       refY="0"
       orient="auto-start-reverse"
       inkscape:stockid="Arrow1_Fnone_S-ec865e-75179"
       markerWidth="4.0606604"
       markerHeight="6.7071066"
       viewBox="0 0 4.0606602 6.7071068"
       inkscape:isstock="true"
       inkscape:collect="always"
       preserveAspectRatio="xMidYMid"
       id="Arrow1_Fnone_S-ec865e-75179"><path
         style="fill:#594bff;stroke:#594bff;stroke-width:1;stroke-linecap:butt;stroke-opacity:1.0;fill-opacity:1.0"
         d="M 3,-3 0,0 3,3"
         id="path16197"
         transform="rotate(180,0.125,0)"
         sodipodi:nodetypes="ccc" /></marker><marker
       style="overflow:visible"
       refX="0"
       refY="0"
       orient="auto-start-reverse"
       inkscape:stockid="Arrow1_Fnone_S-bfdb51-98333"
       markerWidth="4.0606604"
       markerHeight="6.7071066"
       viewBox="0 0 4.0606602 6.7071068"
       inkscape:isstock="true"
       inkscape:collect="always"
       preserveAspectRatio="xMidYMid"
       id="Arrow1_Fnone_S-bfdb51-98333"><path
         style="fill:#518adb;stroke:#518adb;stroke-width:1;stroke-linecap:butt;stroke-opacity:1.0;fill-opacity:1.0"
         d="M 3,-3 0,0 3,3"
         id="path16200"
         transform="rotate(180,0.125,0)"
         sodipodi:nodetypes="ccc" /></marker><marker
       style="overflow:visible"
       refX="0"
       refY="0"
       orient="auto-start-reverse"
       inkscape:stockid="Arrow1_Fnone_S-aee4a7-6790"
       markerWidth="4.0606604"
       markerHeight="6.7071066"
       viewBox="0 0 4.0606602 6.7071068"
       inkscape:isstock="true"
       inkscape:collect="always"
       preserveAspectRatio="xMidYMid"
       id="Arrow1_Fnone_S-aee4a7-6790"><path
         style="fill:#aee4a7;stroke:#aee4a7;stroke-width:1;stroke-linecap:butt;stroke-opacity:1.0;fill-opacity:1.0"
         d="M 3,-3 0,0 3,3"
         id="path16203"
         transform="rotate(180,0.125,0)"
         sodipodi:nodetypes="ccc" /></marker><marker
       style="overflow:visible"
       refX="0"
       refY="0"
       orient="auto-start-reverse"
       inkscape:stockid="Arrow1_Fnone_S-d5ab75-02594"
       markerWidth="4.0606604"
       markerHeight="6.7071066"
       viewBox="0 0 4.0606602 6.7071068"
       inkscape:isstock="true"
       inkscape:collect="always"
       preserveAspectRatio="xMidYMid"
       id="Arrow1_Fnone_S-d5ab75-02594"><path
         style="fill:#75d5c3;fill-opacity:1;stroke:#75d5c3;stroke-width:1;stroke-linecap:butt;stroke-opacity:1"
         d="M 3,-3 0,0 3,3"
         id="path16206"
         transform="rotate(180,0.125,0)"
         sodipodi:nodetypes="ccc" /></marker></defs><g
     inkscape:label="Layer 1"
     inkscape:groupmode="layer"
     id="layer1"><path
       style="fill:#b2b2b2;fill-opacity:1;stroke:#000000;stroke-width:0.165;stroke-dasharray:0.66, 0.165;stroke-dashoffset:0;stroke-opacity:1;opacity:0.56643357"
       d="m 28.320312,20.234375 c -5.517433,-0.06015 -16.687637,1.579488 -16.742187,2.634766 -0.02149,0.415595 0.0087,4.276309 0.01563,5.130859 -0.0069,0.85455 -0.03711,4.715264 -0.01563,5.130859 0.05455,1.055278 11.224754,2.694914 16.742187,2.634766 15.499861,-0.168971 27.272296,-7.05555 27.515626,-7.365234 0.131986,-0.16798 0.162973,-0.30076 0.148437,-0.400391 0.01454,-0.09963 -0.01645,-0.232411 -0.148437,-0.400391 -0.24333,-0.309684 -12.015765,-7.196263 -27.515626,-7.365234 z"
       id="path345"
       sodipodi:nodetypes="cssscc"
       inkscape:path-effect="#path-effect349-3"
       inkscape:original-d="m 11.594181,28.166992 c 0,0 -0.04071,-4.829211 -0.01653,-5.296891 0.05455,-1.055278 11.224513,-2.695204 16.741947,-2.635056 15.499861,0.168971 27.273974,7.055216 27.517303,7.3649 0.346875,0.441467 -0.01653,0.637497 -0.01653,0.637497 z"
       class="UnoptimicedTransforms"
       transform="matrix(0.69683361,-0.34655501,0.39974479,0.80378467,-15.712735,0.11448764)" /><path
       id="path3592"
       style="fill:#ffffff;fill-opacity:1;stroke:#000000;stroke-width:0.198616;stroke-dasharray:none;stroke-opacity:1"
       d="m 3.4085481,18.754515 c -0.22572,-0.02493 -0.55133,0.04619 -0.93256,0.135759 -0.64208,0.150821 -2.39490039,1.034971 -2.34489039,1.18473 5.4e-4,0.0016 -2.3e-4,0.0035 0.002,0.0049 -3.3e-4,0.0019 7.4e-4,0.0027 0.002,0.0043 0.0433,0.151866 1.98952039,-0.107928 2.60465039,-0.345853 0.61515,-0.2379 1.07045,-0.429309 0.98159,-0.76287 -4.2e-4,-0.0016 -4.8e-4,-0.0033 -0.002,-0.0048 -3.8e-4,-0.0016 -6.9e-4,-0.0032 -0.002,-0.0049 -0.0467,-0.132229 -0.15443,-0.194172 -0.30886,-0.211262 z" /><path
       style="opacity:0.550847;fill:none;fill-opacity:1;stroke:#594bff;stroke-width:0.3;stroke-dasharray:none;stroke-opacity:1;marker-end:url(#Arrow1_Fnone_S-ec865e-75179)"
       d="m 32.096797,2.5051627 c 0,0 -10.407364,6.0699208 -11.577678,8.1542783 -1.170314,2.084357 -4.506636,1.268715 -7.7756,4.004981 -2.8419169,2.593785 -10.6783059,8.55921 -10.6783059,8.55921"
       id="path1064-2"
       sodipodi:nodetypes="czcc" /><path
       style="opacity:0.550847;fill:none;fill-opacity:1;stroke:#6c9ede;stroke-width:0.3;stroke-dasharray:none;stroke-opacity:1;marker-end:url(#Arrow1_Fnone_S-deab6c-07329)"
       d="M 31.434182,1.9395503 C 23.721189,6.0102898 22.930277,8.2209015 19.845412,9.4960505 16.760548,10.7712 15.206387,11.11195 11.577881,14.711013 7.9619501,18.297603 1.4229531,22.415426 1.4229531,22.415426"
       id="path1792-7"
       sodipodi:nodetypes="czsc" /><path
       style="opacity:0.550847;fill:none;fill-opacity:1;stroke:#68e2cb;stroke-width:0.3;stroke-dasharray:none;stroke-opacity:1;marker-end:url(#Arrow1_Fnone_S-d4e268-34652)"
       d="M 31.11825,1.1576809 C 24.55088,4.9142968 23.084464,7.1646301 20.557007,8.3550785 18.02955,9.5455265 14.989897,10.696349 10.119709,14.814645 5.2495211,18.932941 1.0312121,21.745128 1.0312121,21.745128"
       id="path1794-0"
       sodipodi:nodetypes="czzc" /><path
       style="opacity:0.550847;fill:none;fill-opacity:1;stroke:#bfe8bc;stroke-width:0.3;stroke-dasharray:none;stroke-opacity:1;marker-end:url(#Arrow1_Fnone_S-bfe8bc-9422)"
       d="m 30.191199,0.26291864 c 0,0 -2.475299,2.33334066 -4.50257,3.46139526 C 23.661351,4.852374 23.543354,5.8610265 20.277194,7.5788493 17.011035,9.2966725 13.267347,10.889669 10.42543,13.483453 7.5835131,16.077238 0.30207811,20.593672 0.30207811,20.593672"
       id="path1796-3"
       sodipodi:nodetypes="czzzc" /><path
       style="opacity:0.550847;fill:none;fill-opacity:1;stroke:#75d5c3;stroke-width:0.3;stroke-dasharray:none;stroke-opacity:1;marker-end:url(#Arrow1_Fnone_S-d5ab75-02594)"
       d="m 32.162481,3.0714279 c -8.942937,6.1699986 -9.164011,5.9096196 -10.872669,8.0079191 -1.708659,2.098299 -4.167832,1.8773 -6.989306,3.360725 -2.821474,1.483425 -11.5833759,9.512989 -11.5833759,9.512989"
       id="path1798-9"
       sodipodi:nodetypes="czzc" /><path
       style="opacity:0.550847;fill:none;fill-opacity:1;stroke:#518adb;stroke-width:0.3;stroke-dasharray:none;stroke-opacity:1;marker-end:url(#Arrow1_Fnone_S-bfdb51-98333)"
       d="m 32.392967,3.5745537 c -5.863946,4.6914278 -6.900242,4.1043628 -10.125679,7.3815403 -3.225437,3.277177 -4.78866,2.076944 -7.573058,3.904079 -2.784398,1.827135 -11.6962199,9.934739 -11.6962199,9.934739"
       id="path1800-9"
       sodipodi:nodetypes="czzc" /><path
       style="opacity:0.550847;fill:none;fill-opacity:1;stroke:#aee4a7;stroke-width:0.3;stroke-dasharray:none;stroke-opacity:1;marker-end:url(#Arrow1_Fnone_S-aee4a7-6790)"
       d="m 32.935735,4.149445 c -3.430926,2.5871948 -8.871233,5.0719405 -10.357085,7.461243 -1.485852,2.389303 -3.457219,1.979449 -7.178516,3.838323 -3.721297,1.858873 -11.4331899,10.39504 -11.4331899,10.39504"
       id="path1802-9"
       sodipodi:nodetypes="czzc" /><path
       style="fill:none;fill-rule:evenodd;stroke:#27b2ff;stroke-width:0.5;stroke-linecap:butt;stroke-linejoin:miter;stroke-dasharray:none;stroke-opacity:1;marker-end:url(#Arrow2_Fnone_S-ff275d-79614)"
       d="m 18.681858,11.606094 1.7134,3.189169"
       id="path10881-1"
       inkscape:connector-type="polyline"
       inkscape:connector-curvature="0"
       sodipodi:nodetypes="cc" /><text
       xml:space="preserve"
       style="font-style:normal;font-variant:normal;font-weight:bold;font-stretch:normal;font-size:3.52778px;font-family:Arial;-inkscape-font-specification:'Arial, Bold';font-variant-ligatures:normal;font-variant-caps:normal;font-variant-numeric:normal;font-variant-east-asian:normal;fill:#27b2ff;fill-opacity:1;stroke:none;stroke-width:0.1;stroke-dasharray:none;stroke-opacity:1"
       x="20.125469"
       y="21.31501"
       id="text12058-7"><tspan
         sodipodi:role="line"
         id="tspan12056-2"
         style="font-style:normal;font-variant:normal;font-weight:bold;font-stretch:normal;font-size:3.52778px;font-family:Arial;-inkscape-font-specification:'Arial, Bold';font-variant-ligatures:normal;font-variant-caps:normal;font-variant-numeric:normal;font-variant-east-asian:normal;fill:#27b2ff;fill-opacity:1;stroke:none;stroke-width:0.1;stroke-dasharray:none"
         x="20.125469"
         y="21.31501">Lift</tspan></text><circle
       style="fill:#000000;stroke:#000000;stroke-width:0.140063;stroke-dasharray:none;stroke-opacity:1"
       id="path1080"
       cx="23.407974"
       cy="-2.948669"
       transform="rotate(30.3)"
       r="0.52709782" /><path
       style="fill:#ffffff;fill-opacity:1;stroke:#000000;stroke-width:0.363104;stroke-dasharray:0.363104, 0.363104;stroke-dashoffset:0;stroke-opacity:1"
       d="M 0.67371811,19.930142 13.080638,15.735254"
       id="path8191" /><path
       id="path286"
       style="fill:#ffffff;fill-opacity:1;stroke:#000000;stroke-width:0.198616;stroke-dasharray:none;stroke-opacity:1"
       d="m 19.490871,10.290404 c -0.227069,-0.0026 -0.544111,0.100215 -0.914669,0.226868 -0.624115,0.213272 -2.281431,1.265617 -2.216922,1.409727 6.81e-4,0.0015 1.15e-4,0.0035 0.0016,0.0047 -1.45e-4,0.0019 0.0015,0.0026 0.0021,0.0041 0.05799,0.146871 1.969241,-0.303182 2.557981,-0.600485 0.588751,-0.297279 1.023006,-0.532561 0.901755,-0.85576 -5.85e-4,-0.0016 -8.04e-4,-0.0032 -0.0015,-0.0046 -5.39e-4,-0.0016 -0.0014,-0.0031 -0.0021,-0.0046 -0.05947,-0.126992 -0.172779,-0.178035 -0.328149,-0.179844 z" /></g></svg>
