<?xml version="1.0" encoding="UTF-8" standalone="no"?>
<!-- Created with Inkscape (http://www.inkscape.org/) -->

<svg
   width="88mm"
   height="32mm"
   viewBox="0 0 88 32"
   version="1.1"
   id="svg5"
   xml:space="preserve"
   inkscape:version="1.2.2 (03908c27, 2023-01-22)"
   sodipodi:docname="keel-flow.svg"
   xmlns:inkscape="http://www.inkscape.org/namespaces/inkscape"
   xmlns:sodipodi="http://sodipodi.sourceforge.net/DTD/sodipodi-0.dtd"
   xmlns="http://www.w3.org/2000/svg"
   xmlns:svg="http://www.w3.org/2000/svg"><sodipodi:namedview
     id="namedview7"
     pagecolor="#ffffff"
     bordercolor="#000000"
     borderopacity="0.25"
     inkscape:showpageshadow="2"
     inkscape:pageopacity="0.0"
     inkscape:pagecheckerboard="0"
     inkscape:deskcolor="#d1d1d1"
     inkscape:document-units="mm"
     showgrid="false"
     inkscape:zoom="1.8944231"
     inkscape:cx="157.03989"
     inkscape:cy="103.19765"
     inkscape:window-width="1470"
     inkscape:window-height="891"
     inkscape:window-x="79"
     inkscape:window-y="94"
     inkscape:window-maximized="0"
     inkscape:current-layer="layer1" /><defs
     id="defs2"><inkscape:path-effect
       effect="mirror_symmetry"
       start_point="125.84688,4.8185332"
       end_point="125.84688,8.1643624"
       center_point="125.84688,6.4914478"
       id="path-effect3493"
       is_visible="true"
       lpeversion="1.2"
       lpesatellites=""
       mode="free"
       discard_orig_path="false"
       fuse_paths="true"
       oposite_fuse="false"
       split_items="false"
       split_open="false"
       link_styles="false" /><inkscape:path-effect
       effect="mirror_symmetry"
       start_point="125.7,4.8185332"
       end_point="125.7,8.1643623"
       center_point="125.7,6.4914478"
       id="path-effect1260"
       is_visible="true"
       lpeversion="1.2"
       lpesatellites=""
       mode="free"
       discard_orig_path="false"
       fuse_paths="true"
       oposite_fuse="false"
       split_items="false"
       split_open="false"
       link_styles="false" /><inkscape:path-effect
       effect="mirror_symmetry"
       start_point="11.590986,28"
       end_point="53,28"
       center_point="32.295493,28"
       id="path-effect349"
       is_visible="true"
       lpeversion="1.2"
       lpesatellites=""
       mode="free"
       discard_orig_path="false"
       fuse_paths="true"
       oposite_fuse="true"
       split_items="false"
       split_open="false"
       link_styles="false" /><inkscape:path-effect
       effect="mirror_symmetry"
       start_point="11.590986,28"
       end_point="53,28"
       center_point="32.295493,28"
       id="path-effect349-3"
       is_visible="true"
       lpeversion="1.2"
       lpesatellites=""
       mode="free"
       discard_orig_path="false"
       fuse_paths="true"
       oposite_fuse="true"
       split_items="false"
       split_open="false"
       link_styles="false" /><marker
       style="overflow:visible"
       refX="0"
       refY="0"
       orient="auto-start-reverse"
       inkscape:stockid="Arrow2_Fnone_S-ff275d-79614"
       markerWidth="7.6999998"
       markerHeight="5.5999999"
       viewBox="0 0 7.7 5.6"
       inkscape:isstock="true"
       inkscape:collect="always"
       preserveAspectRatio="xMidYMid"
       id="Arrow2_Fnone_S-ff275d-79614"><path
         transform="scale(0.7)"
         d="M -2,-4 9,0 -2,4 c 2,-2.33 2,-5.66 0,-8 z"
         style="fill:#27b2ff;fill-opacity:1;fill-rule:evenodd;stroke:#27b2ff;stroke-opacity:1"
         id="path15206" /></marker><marker
       style="overflow:visible"
       refX="0"
       refY="0"
       orient="auto-start-reverse"
       inkscape:stockid="Arrow1_Fnone_S-bfe8bc-9422"
       markerWidth="4.0606604"
       markerHeight="6.7071066"
       viewBox="0 0 4.0606602 6.7071068"
       inkscape:isstock="true"
       inkscape:collect="always"
       preserveAspectRatio="xMidYMid"
       id="Arrow1_Fnone_S-bfe8bc-9422"><path
         style="fill:#bfe8bc;fill-opacity:1;stroke:#bfe8bc;stroke-width:1;stroke-linecap:butt;stroke-opacity:1"
         d="M 3,-3 0,0 3,3"
         id="path16188"
         transform="rotate(180,0.125,0)"
         sodipodi:nodetypes="ccc" /></marker><marker
       style="overflow:visible"
       refX="0"
       refY="0"
       orient="auto-start-reverse"
       inkscape:stockid="Arrow1_Fnone_S-d4e268-34652"
       markerWidth="4.0606604"
       markerHeight="6.7071066"
       viewBox="0 0 4.0606602 6.7071068"
       inkscape:isstock="true"
       inkscape:collect="always"
       preserveAspectRatio="xMidYMid"
       id="Arrow1_Fnone_S-d4e268-34652"><path
         style="fill:#68e2cb;fill-opacity:1;stroke:#68e2cb;stroke-width:1;stroke-linecap:butt;stroke-opacity:1"
         d="M 3,-3 0,0 3,3"
         id="path16191"
         transform="rotate(180,0.125,0)"
         sodipodi:nodetypes="ccc" /></marker><marker
       style="overflow:visible"
       refX="0"
       refY="0"
       orient="auto-start-reverse"
       inkscape:stockid="Arrow1_Fnone_S-deab6c-07329"
       markerWidth="4.0606604"
       markerHeight="6.7071066"
       viewBox="0 0 4.0606602 6.7071068"
       inkscape:isstock="true"
       inkscape:collect="always"
       preserveAspectRatio="xMidYMid"
       id="Arrow1_Fnone_S-deab6c-07329"><path
         style="fill:#6c9ede;fill-opacity:1;stroke:#6c9ede;stroke-width:1;stroke-linecap:butt;stroke-opacity:1"
         d="M 3,-3 0,0 3,3"
         id="path16194"
         transform="rotate(180,0.125,0)"
         sodipodi:nodetypes="ccc" /></marker><marker
       style="overflow:visible"
       refX="0"
       refY="0"
       orient="auto-start-reverse"
       inkscape:stockid="Arrow1_Fnone_S-ec865e-75179"
       markerWidth="4.0606604"
       markerHeight="6.7071066"
       viewBox="0 0 4.0606602 6.7071068"
       inkscape:isstock="true"
       inkscape:collect="always"
       preserveAspectRatio="xMidYMid"
       id="Arrow1_Fnone_S-ec865e-75179"><path
         style="fill:#594bff;fill-opacity:1;stroke:#594bff;stroke-width:1;stroke-linecap:butt;stroke-opacity:1"
         d="M 3,-3 0,0 3,3"
         id="path16197"
         transform="rotate(180,0.125,0)"
         sodipodi:nodetypes="ccc" /></marker><marker
       style="overflow:visible"
       refX="0"
       refY="0"
       orient="auto-start-reverse"
       inkscape:stockid="Arrow1_Fnone_S-bfdb51-98333"
       markerWidth="4.0606604"
       markerHeight="6.7071066"
       viewBox="0 0 4.0606602 6.7071068"
       inkscape:isstock="true"
       inkscape:collect="always"
       preserveAspectRatio="xMidYMid"
       id="Arrow1_Fnone_S-bfdb51-98333"><path
         style="fill:#518adb;fill-opacity:1;stroke:#518adb;stroke-width:1;stroke-linecap:butt;stroke-opacity:1"
         d="M 3,-3 0,0 3,3"
         id="path16200"
         transform="rotate(180,0.125,0)"
         sodipodi:nodetypes="ccc" /></marker><marker
       style="overflow:visible"
       refX="0"
       refY="0"
       orient="auto-start-reverse"
       inkscape:stockid="Arrow1_Fnone_S-aee4a7-6790"
       markerWidth="4.0606604"
       markerHeight="6.7071066"
       viewBox="0 0 4.0606602 6.7071068"
       inkscape:isstock="true"
       inkscape:collect="always"
       preserveAspectRatio="xMidYMid"
       id="Arrow1_Fnone_S-aee4a7-6790"><path
         style="fill:#aee4a7;fill-opacity:1;stroke:#aee4a7;stroke-width:1;stroke-linecap:butt;stroke-opacity:1"
         d="M 3,-3 0,0 3,3"
         id="path16203"
         transform="rotate(180,0.125,0)"
         sodipodi:nodetypes="ccc" /></marker><marker
       style="overflow:visible"
       refX="0"
       refY="0"
       orient="auto-start-reverse"
       inkscape:stockid="Arrow1_Fnone_S-d5ab75-02594"
       markerWidth="4.0606604"
       markerHeight="6.7071066"
       viewBox="0 0 4.0606602 6.7071068"
       inkscape:isstock="true"
       inkscape:collect="always"
       preserveAspectRatio="xMidYMid"
       id="Arrow1_Fnone_S-d5ab75-02594"><path
         style="fill:#75d5c3;fill-opacity:1;stroke:#75d5c3;stroke-width:1;stroke-linecap:butt;stroke-opacity:1"
         d="M 3,-3 0,0 3,3"
         id="path16206"
         transform="rotate(180,0.125,0)"
         sodipodi:nodetypes="ccc" /></marker><inkscape:path-effect
       effect="mirror_symmetry"
       start_point="11.590986,28"
       end_point="53,28"
       center_point="32.295493,28"
       id="path-effect349-3-7"
       is_visible="true"
       lpeversion="1.2"
       lpesatellites=""
       mode="free"
       discard_orig_path="false"
       fuse_paths="true"
       oposite_fuse="true"
       split_items="false"
       split_open="false"
       link_styles="false" /><marker
       style="overflow:visible"
       id="Arrow1_Fnone_S-ec865e-7"
       refX="0"
       refY="0"
       orient="auto-start-reverse"
       inkscape:stockid="Arrow1"
       markerWidth="4.0606604"
       markerHeight="6.7071066"
       viewBox="0 0 4.0606602 6.7071068"
       inkscape:isstock="true"
       inkscape:collect="always"
       preserveAspectRatio="xMidYMid"><path
         style="fill:none;stroke:#ec865e;stroke-width:1;stroke-linecap:butt"
         d="M 3,-3 0,0 3,3"
         id="path20789-9"
         transform="rotate(180,0.125,0)"
         sodipodi:nodetypes="ccc" /></marker><marker
       style="overflow:visible"
       id="Arrow1_Fnone_S-deab6c-0"
       refX="0"
       refY="0"
       orient="auto-start-reverse"
       inkscape:stockid="Arrow1"
       markerWidth="4.0606604"
       markerHeight="6.7071066"
       viewBox="0 0 4.0606602 6.7071068"
       inkscape:isstock="true"
       inkscape:collect="always"
       preserveAspectRatio="xMidYMid"><path
         style="fill:none;stroke:#deab6c;stroke-width:1;stroke-linecap:butt"
         d="M 3,-3 0,0 3,3"
         id="path20792-2"
         transform="rotate(180,0.125,0)"
         sodipodi:nodetypes="ccc" /></marker><marker
       style="overflow:visible"
       id="Arrow1_Fnone_S-d4e268-3"
       refX="0"
       refY="0"
       orient="auto-start-reverse"
       inkscape:stockid="Arrow1"
       markerWidth="4.0606604"
       markerHeight="6.7071066"
       viewBox="0 0 4.0606602 6.7071068"
       inkscape:isstock="true"
       inkscape:collect="always"
       preserveAspectRatio="xMidYMid"><path
         style="fill:none;stroke:#d4e268;stroke-width:1;stroke-linecap:butt"
         d="M 3,-3 0,0 3,3"
         id="path20795-9"
         transform="rotate(180,0.125,0)"
         sodipodi:nodetypes="ccc" /></marker><marker
       style="overflow:visible"
       id="Arrow1_Fnone_S-bfe8bc-9"
       refX="0"
       refY="0"
       orient="auto-start-reverse"
       inkscape:stockid="Arrow1"
       markerWidth="4.0606604"
       markerHeight="6.7071066"
       viewBox="0 0 4.0606602 6.7071068"
       inkscape:isstock="true"
       inkscape:collect="always"
       preserveAspectRatio="xMidYMid"><path
         style="fill:none;stroke:#bfe8bc;stroke-width:1;stroke-linecap:butt"
         d="M 3,-3 0,0 3,3"
         id="path20798-7"
         transform="rotate(180,0.125,0)"
         sodipodi:nodetypes="ccc" /></marker><marker
       style="overflow:visible"
       id="Arrow1_Fnone_S-d5ab75-0"
       refX="0"
       refY="0"
       orient="auto-start-reverse"
       inkscape:stockid="Arrow1"
       markerWidth="4.0606604"
       markerHeight="6.7071066"
       viewBox="0 0 4.0606602 6.7071068"
       inkscape:isstock="true"
       inkscape:collect="always"
       preserveAspectRatio="xMidYMid"><path
         style="fill:none;stroke:#d5ab75;stroke-width:1;stroke-linecap:butt"
         d="M 3,-3 0,0 3,3"
         id="path20801-3"
         transform="rotate(180,0.125,0)"
         sodipodi:nodetypes="ccc" /></marker><marker
       style="overflow:visible"
       id="Arrow1_Fnone_S-bfdb51-9"
       refX="0"
       refY="0"
       orient="auto-start-reverse"
       inkscape:stockid="Arrow1"
       markerWidth="4.0606604"
       markerHeight="6.7071066"
       viewBox="0 0 4.0606602 6.7071068"
       inkscape:isstock="true"
       inkscape:collect="always"
       preserveAspectRatio="xMidYMid"><path
         style="fill:none;stroke:#bfdb51;stroke-width:1;stroke-linecap:butt"
         d="M 3,-3 0,0 3,3"
         id="path20804-8"
         transform="rotate(180,0.125,0)"
         sodipodi:nodetypes="ccc" /></marker><marker
       style="overflow:visible"
       id="Arrow1_Fnone_S-aee4a7-6"
       refX="0"
       refY="0"
       orient="auto-start-reverse"
       inkscape:stockid="Arrow1"
       markerWidth="4.0606604"
       markerHeight="6.7071066"
       viewBox="0 0 4.0606602 6.7071068"
       inkscape:isstock="true"
       inkscape:collect="always"
       preserveAspectRatio="xMidYMid"><path
         style="fill:none;stroke:#aee4a7;stroke-width:1;stroke-linecap:butt"
         d="M 3,-3 0,0 3,3"
         id="path20807-5"
         transform="rotate(180,0.125,0)"
         sodipodi:nodetypes="ccc" /></marker><marker
       style="overflow:visible"
       id="Arrow2_Fnone_S-ff275d-7"
       refX="0"
       refY="0"
       orient="auto-start-reverse"
       inkscape:stockid="Arrow2"
       markerWidth="7.6999998"
       markerHeight="5.5999999"
       viewBox="0 0 7.7 5.6"
       inkscape:isstock="true"
       inkscape:collect="always"
       preserveAspectRatio="xMidYMid"><path
         transform="scale(0.7)"
         d="M -2,-4 9,0 -2,4 c 2,-2.33 2,-5.66 0,-8 z"
         style="fill:#ff275d;fill-rule:evenodd;stroke:none"
         id="path36560-6" /></marker></defs><g
     inkscape:label="Layer 1"
     inkscape:groupmode="layer"
     id="layer1"><path
       style="opacity:0.566434;fill:#b2b2b2;fill-opacity:1;stroke:#000000;stroke-width:0.165;stroke-dasharray:0.66, 0.165;stroke-dashoffset:0;stroke-opacity:1"
       d="m 28.320312,20.234375 c -5.517433,-0.06015 -16.687637,1.579488 -16.742187,2.634766 -0.02149,0.415595 0.0087,4.276309 0.01563,5.130859 -0.0069,0.85455 -0.03711,4.715264 -0.01563,5.130859 0.05455,1.055278 11.224754,2.694914 16.742187,2.634766 15.499861,-0.168971 27.272296,-7.05555 27.515626,-7.365234 0.131986,-0.16798 0.162973,-0.30076 0.148437,-0.400391 0.01454,-0.09963 -0.01645,-0.232411 -0.148437,-0.400391 -0.24333,-0.309684 -12.015765,-7.196263 -27.515626,-7.365234 z"
       id="path345"
       sodipodi:nodetypes="cssscc"
       inkscape:path-effect="#path-effect349-3"
       inkscape:original-d="m 11.594181,28.166992 c 0,0 -0.04071,-4.829211 -0.01653,-5.296891 0.05455,-1.055278 11.224513,-2.695204 16.741947,-2.635056 15.499861,0.168971 27.273974,7.055216 27.517303,7.3649 0.346875,0.441467 -0.01653,0.637497 -0.01653,0.637497 z"
       class="UnoptimicedTransforms"
       transform="matrix(0.69683361,-0.34655501,0.39974479,0.80378467,-15.439098,6.080185)" /><path
       id="path3592"
       style="fill:#ffffff;fill-opacity:1;stroke:#000000;stroke-width:0.198616;stroke-dasharray:none;stroke-opacity:1"
       d="m 3.6821854,24.720213 c -0.22572,-0.02493 -0.55133,0.04619 -0.93256,0.135759 -0.64208,0.150821 -2.39490036,1.034971 -2.34489036,1.18473 5.4e-4,0.0016 -2.3e-4,0.0035 0.002,0.0049 -3.3e-4,0.0019 7.4e-4,0.0027 0.002,0.0043 0.0433,0.151866 1.98952036,-0.107928 2.60465036,-0.345853 0.61515,-0.2379 1.07045,-0.429309 0.98159,-0.76287 -4.2e-4,-0.0016 -4.8e-4,-0.0033 -0.002,-0.0048 -3.8e-4,-0.0016 -6.9e-4,-0.0032 -0.002,-0.0049 -0.0467,-0.132229 -0.15443,-0.194172 -0.30886,-0.211262 z" /><path
       style="opacity:0.550847;fill:none;fill-opacity:1;stroke:#594bff;stroke-width:0.3;stroke-dasharray:none;stroke-opacity:1;marker-end:url(#Arrow1_Fnone_S-ec865e-75179)"
       d="m 32.370434,8.4708601 c 0,0 -10.407364,6.0699219 -11.577678,8.1542789 -1.170314,2.084357 -4.506636,1.268715 -7.7756,4.004981 -2.841917,2.593785 -10.6783056,8.55921 -10.6783056,8.55921"
       id="path1064-2"
       sodipodi:nodetypes="czcc" /><path
       style="opacity:0.550847;fill:none;fill-opacity:1;stroke:#6c9ede;stroke-width:0.3;stroke-dasharray:none;stroke-opacity:1;marker-end:url(#Arrow1_Fnone_S-deab6c-07329)"
       d="M 31.707819,7.9052477 C 23.994826,11.975988 23.203914,14.1866 20.119049,15.461749 17.034185,16.736898 15.480024,17.077648 11.851518,20.676711 8.2355874,24.263301 1.6965904,28.381124 1.6965904,28.381124"
       id="path1792-7"
       sodipodi:nodetypes="czsc" /><path
       style="opacity:0.550847;fill:none;fill-opacity:1;stroke:#68e2cb;stroke-width:0.3;stroke-dasharray:none;stroke-opacity:1;marker-end:url(#Arrow1_Fnone_S-d4e268-34652)"
       d="m 31.391887,7.1233783 c -6.56737,3.7566157 -8.033786,6.0069497 -10.561243,7.1973987 -2.527457,1.190448 -5.56711,2.34127 -10.437298,6.459566 -4.8701876,4.118296 -9.0884966,6.930483 -9.0884966,6.930483"
       id="path1794-0"
       sodipodi:nodetypes="czzc" /><path
       style="opacity:0.550847;fill:none;fill-opacity:1;stroke:#bfe8bc;stroke-width:0.3;stroke-dasharray:none;stroke-opacity:1;marker-end:url(#Arrow1_Fnone_S-bfe8bc-9422)"
       d="m 30.464836,6.228616 c 0,0 -2.475299,2.3333407 -4.50257,3.4613953 -2.027278,1.1280607 -2.145275,2.1367137 -5.411435,3.8545367 -3.266159,1.717823 -7.009847,3.310819 -9.851764,5.904603 C 7.8571504,22.042936 0.57571544,26.55937 0.57571544,26.55937"
       id="path1796-3"
       sodipodi:nodetypes="czzzc" /><path
       style="opacity:0.550847;fill:none;fill-opacity:1;stroke:#75d5c3;stroke-width:0.3;stroke-dasharray:none;stroke-opacity:1;marker-end:url(#Arrow1_Fnone_S-d5ab75-02594)"
       d="m 32.436118,9.0371253 c -8.942937,6.1699997 -9.164011,5.9096207 -10.872669,8.0079197 -1.708659,2.098299 -4.167832,1.8773 -6.989306,3.360725 -2.821474,1.483425 -11.5833756,9.512989 -11.5833756,9.512989"
       id="path1798-9"
       sodipodi:nodetypes="czzc" /><path
       style="opacity:0.550847;fill:none;fill-opacity:1;stroke:#518adb;stroke-width:0.3;stroke-dasharray:none;stroke-opacity:1;marker-end:url(#Arrow1_Fnone_S-bfdb51-98333)"
       d="M 32.666604,9.5402511 C 26.802658,14.23168 25.766362,13.644615 22.540925,16.921792 19.315488,20.198969 17.752265,18.998736 14.967867,20.825871 12.183469,22.653006 3.2716474,30.76061 3.2716474,30.76061"
       id="path1800-9"
       sodipodi:nodetypes="czzc" /><path
       style="opacity:0.550847;fill:none;fill-opacity:1;stroke:#aee4a7;stroke-width:0.3;stroke-dasharray:none;stroke-opacity:1;marker-end:url(#Arrow1_Fnone_S-aee4a7-6790)"
       d="m 33.209372,10.115142 c -3.430926,2.587196 -8.871233,5.071942 -10.357085,7.461244 -1.485852,2.389303 -3.457219,1.979449 -7.178516,3.838323 -3.721297,1.858873 -11.4331896,10.39504 -11.4331896,10.39504"
       id="path1802-9"
       sodipodi:nodetypes="czzc" /><path
       style="fill:none;fill-rule:evenodd;stroke:#27b2ff;stroke-width:0.5;stroke-linecap:butt;stroke-linejoin:miter;stroke-dasharray:none;stroke-opacity:1;marker-end:url(#Arrow2_Fnone_S-ff275d-79614)"
       d="m 18.955495,17.571792 1.7134,3.189169"
       id="path10881-1"
       inkscape:connector-type="polyline"
       inkscape:connector-curvature="0"
       sodipodi:nodetypes="cc" /><text
       xml:space="preserve"
       style="font-style:normal;font-variant:normal;font-weight:bold;font-stretch:normal;font-size:3.52778px;font-family:Arial;-inkscape-font-specification:'Arial, Bold';font-variant-ligatures:normal;font-variant-caps:normal;font-variant-numeric:normal;font-variant-east-asian:normal;fill:#27b2ff;fill-opacity:1;stroke:none;stroke-width:0.1;stroke-dasharray:none;stroke-opacity:1"
       x="20.399107"
       y="27.280708"
       id="text12058-7"><tspan
         sodipodi:role="line"
         id="tspan12056-2"
         style="font-style:normal;font-variant:normal;font-weight:bold;font-stretch:normal;font-size:3.52778px;font-family:Arial;-inkscape-font-specification:'Arial, Bold';font-variant-ligatures:normal;font-variant-caps:normal;font-variant-numeric:normal;font-variant-east-asian:normal;fill:#27b2ff;fill-opacity:1;stroke:none;stroke-width:0.1;stroke-dasharray:none"
         x="20.399107"
         y="27.280708">Lift</tspan></text><circle
       style="fill:#000000;stroke:#000000;stroke-width:0.140063;stroke-dasharray:none;stroke-opacity:1"
       id="path1080"
       cx="26.654091"
       cy="2.0640299"
       transform="rotate(30.3)"
       r="0.52709782" /><path
       style="fill:#ffffff;fill-opacity:1;stroke:#000000;stroke-width:0.363104;stroke-dasharray:0.363104, 0.363104;stroke-dashoffset:0;stroke-opacity:1"
       d="M 0.94735544,25.89584 13.354275,21.700952"
       id="path8191" /><path
       id="path286"
       style="fill:#ffffff;fill-opacity:1;stroke:#000000;stroke-width:0.198616;stroke-dasharray:none;stroke-opacity:1"
       d="m 19.764508,16.256102 c -0.227069,-0.0026 -0.544111,0.100215 -0.914669,0.226868 -0.624115,0.213272 -2.281431,1.265617 -2.216922,1.409727 6.81e-4,0.0015 1.15e-4,0.0035 0.0016,0.0047 -1.45e-4,0.0019 0.0015,0.0026 0.0021,0.0041 0.05799,0.146871 1.969241,-0.303182 2.557981,-0.600485 0.588751,-0.297279 1.023006,-0.532561 0.901755,-0.85576 -5.85e-4,-0.0016 -8.04e-4,-0.0032 -0.0015,-0.0046 -5.39e-4,-0.0016 -0.0014,-0.0031 -0.0021,-0.0046 -0.05947,-0.126992 -0.172779,-0.178035 -0.328149,-0.179844 z" /><path
       id="path3592-9"
       style="fill:#ffffff;fill-opacity:1;stroke:#000000;stroke-width:0.198616;stroke-dasharray:none;stroke-opacity:1"
       d="m 56.525377,25.209461 c -0.22572,-0.02493 -0.55133,0.04619 -0.93256,0.135759 -0.64208,0.150821 -2.3949,1.034971 -2.34489,1.18473 5.4e-4,0.0016 -2.3e-4,0.0035 0.002,0.0049 -3.3e-4,0.0019 7.4e-4,0.0027 0.002,0.0043 0.0433,0.151866 1.98952,-0.107928 2.60465,-0.345853 0.61515,-0.2379 1.07045,-0.429309 0.98159,-0.76287 -4.2e-4,-0.0016 -4.8e-4,-0.0033 -0.002,-0.0048 -3.8e-4,-0.0016 -6.9e-4,-0.0032 -0.002,-0.0049 -0.0467,-0.132229 -0.15443,-0.194172 -0.30886,-0.211262 z" /><path
       style="fill:#b2b2b2;fill-opacity:1;stroke:#000000;stroke-width:0.165;stroke-dasharray:none;stroke-opacity:1"
       d="m 28.320312,20.234375 c -5.517433,-0.06015 -16.687637,1.579488 -16.742187,2.634766 -0.02149,0.415595 0.0087,4.276309 0.01563,5.130859 -0.0069,0.85455 -0.03711,4.715264 -0.01563,5.130859 0.05455,1.055278 11.224754,2.694914 16.742187,2.634766 15.499861,-0.168971 27.272296,-7.05555 27.515626,-7.365234 0.131986,-0.16798 0.162973,-0.30076 0.148437,-0.400391 0.01454,-0.09963 -0.01645,-0.232411 -0.148437,-0.400391 -0.24333,-0.309684 -12.015765,-7.196263 -27.515626,-7.365234 z"
       id="path345-3"
       sodipodi:nodetypes="cssscc"
       inkscape:path-effect="#path-effect349-3-7"
       inkscape:original-d="m 11.594181,28.166992 c 0,0 -0.04071,-4.829211 -0.01653,-5.296891 0.05455,-1.055278 11.224513,-2.695204 16.741947,-2.635056 15.499861,0.168971 27.273974,7.055216 27.517303,7.3649 0.346875,0.441467 -0.01653,0.637497 -0.01653,0.637497 z"
       class="UnoptimicedTransforms"
       transform="matrix(0.69683361,-0.34655501,0.39974479,0.80378467,37.404094,6.5694339)" /><path
       style="opacity:0.550847;fill:none;fill-opacity:1;stroke:#ec865e;stroke-width:0.3;stroke-dasharray:none;stroke-opacity:1;marker-end:url(#Arrow1_Fnone_S-ec865e-7)"
       d="m 81.912737,14.800966 c 0,0 -3.40922,0.381327 -5.72273,-0.226334 -2.3135,-0.607663 -4.46333,-1.60708 -8.12454,-1.56836 -3.66122,0.03872 -10.33099,1.847921 -14.13116,2.450344 -3.80017,0.602425 -8.595433,0.68894 -8.595433,0.68894"
       id="path1064-2-8"
       sodipodi:nodetypes="czzzc" /><path
       style="opacity:0.550847;fill:none;fill-opacity:1;stroke:#deab6c;stroke-width:0.3;stroke-dasharray:none;stroke-opacity:1;marker-end:url(#Arrow1_Fnone_S-deab6c-0)"
       d="m 81.962597,13.998987 c 0,0 -2.78878,-0.301166 -5.10228,-0.474513 -2.31351,-0.173348 -5.12337,-1.368705 -8.78459,-1.329986 -3.66121,0.03872 -10.35344,1.423414 -14.15361,2.025839 -3.80017,0.602425 -8.657473,0.750984 -8.657473,0.750984"
       id="path1792-7-0"
       sodipodi:nodetypes="czzzc" /><path
       style="opacity:0.550847;fill:none;fill-opacity:1;stroke:#d4e268;stroke-width:0.3;stroke-dasharray:none;stroke-opacity:1;marker-end:url(#Arrow1_Fnone_S-d4e268-3)"
       d="m 81.818847,13.164835 c 0,0 -3.82388,-0.612213 -6.13739,-0.785561 -2.31351,-0.173349 -4.24913,-0.952357 -7.91035,-0.913638 -3.66121,0.03872 -7.40153,0.89477 -11.20171,1.497195 -3.80017,0.602424 -11.448503,0.677969 -11.448503,0.677969"
       id="path1794-0-2"
       sodipodi:nodetypes="czzzc" /><path
       style="opacity:0.550847;fill:none;fill-opacity:1;stroke:#bfe8bc;stroke-width:0.3;stroke-dasharray:none;stroke-opacity:1;marker-end:url(#Arrow1_Fnone_S-bfe8bc-9)"
       d="m 81.536977,11.907627 c 0,0 -3.94797,-0.239943 -6.26147,-0.413292 -2.31351,-0.173349 -3.87687,-0.704178 -7.53808,-0.665458 -3.66121,0.03872 -7.40154,0.584545 -11.20171,1.186969 -3.80017,0.602425 -11.171843,0.169902 -11.171843,0.169902"
       id="path1796-3-4"
       sodipodi:nodetypes="czzzc" /><path
       style="opacity:0.550847;fill:none;fill-opacity:1;stroke:#d5ab75;stroke-width:0.3;stroke-dasharray:none;stroke-opacity:1;marker-end:url(#Arrow1_Fnone_S-d5ab75-0)"
       d="m 81.841447,15.865217 c -4.53658,-0.285533 -7.26849,0.331424 -8.5985,0.459844 -3.64486,0.347786 -9.82845,0.28279 -14.82713,0.358689 -4.99869,0.0759 -13.570193,0.797815 -13.570193,0.797815"
       id="path1798-9-8"
       sodipodi:nodetypes="cczc" /><path
       style="opacity:0.550847;fill:none;fill-opacity:1;stroke:#bfdb51;stroke-width:0.3;stroke-dasharray:none;stroke-opacity:1;marker-end:url(#Arrow1_Fnone_S-bfdb51-9)"
       d="m 81.858857,16.676059 c -4.2884,0.272869 -7.19353,0.260662 -8.52355,0.389082 -3.64486,0.347786 -10.83384,0.389189 -15.83253,0.465089 -4.99868,0.0759 -12.391563,1.134445 -12.391563,1.134445"
       id="path1800-9-3"
       sodipodi:nodetypes="cczc" /><path
       style="opacity:0.550847;fill:none;fill-opacity:1;stroke:#aee4a7;stroke-width:0.3;stroke-dasharray:none;stroke-opacity:1;marker-end:url(#Arrow1_Fnone_S-aee4a7-6)"
       d="m 81.895357,17.427927 c -4.2884,0.272869 -7.19354,0.198618 -8.52355,0.327038 -3.64487,0.347787 -10.83385,0.389188 -15.83253,0.465088 -4.99869,0.0759 -12.391563,1.134445 -12.391563,1.134445"
       id="path1802-9-9"
       sodipodi:nodetypes="cczc" /><path
       style="fill:none;fill-rule:evenodd;stroke:#ff275d;stroke-width:0.5;stroke-linecap:butt;stroke-linejoin:miter;stroke-dasharray:none;stroke-opacity:1;marker-end:url(#Arrow2_Fnone_S-ff275d-7)"
       d="m 67.241937,14.015765 0.13248,-7.0867601"
       id="path10881-1-0"
       inkscape:connector-type="polyline"
       inkscape:connector-curvature="0"
       sodipodi:nodetypes="cc" /><text
       xml:space="preserve"
       style="font-style:normal;font-variant:normal;font-weight:bold;font-stretch:normal;font-size:3.52778px;font-family:Arial;-inkscape-font-specification:'Arial, Bold';font-variant-ligatures:normal;font-variant-caps:normal;font-variant-numeric:normal;font-variant-east-asian:normal;fill:#ff275d;fill-opacity:1;stroke:none;stroke-width:0.1;stroke-dasharray:none;stroke-opacity:1"
       x="64.407791"
       y="2.8473392"
       id="text12058-7-5"><tspan
         sodipodi:role="line"
         id="tspan12056-2-2"
         style="font-style:normal;font-variant:normal;font-weight:bold;font-stretch:normal;font-size:3.52778px;font-family:Arial;-inkscape-font-specification:'Arial, Bold';font-variant-ligatures:normal;font-variant-caps:normal;font-variant-numeric:normal;font-variant-east-asian:normal;fill:#ff275d;fill-opacity:1;stroke:none;stroke-width:0.1;stroke-dasharray:none"
         x="64.407791"
         y="2.8473392">Lift</tspan></text><path
       style="fill:#ffffff;fill-opacity:1;stroke:#000000;stroke-width:0.165;stroke-dasharray:none;stroke-opacity:1"
       d="m 74.780157,15.124383 c -0.0437,-0.845418 -2.21473,-1.552036 -6.73354,-1.594771 -4.51881,-0.04273 -14.02489,2.820717 -14.02489,2.820717 0,0 8.57538,-0.412647 11.59272,-0.440553 3.01733,-0.02791 4.05799,0.142475 6.11584,0.01442 2.05785,-0.128061 3.09362,0.04561 3.04987,-0.799809 z"
       id="path912-3"
       sodipodi:nodetypes="zzczzz" /><circle
       style="fill:#000000;stroke:#000000;stroke-width:0.140063;stroke-dasharray:none;stroke-opacity:1"
       id="path1080-2"
       cx="72.525475"
       cy="-24.1744"
       transform="rotate(30.3)"
       r="0.52709782" /><rect
       style="fill:#000000;fill-opacity:1;stroke:none;stroke-width:0.873245;stroke-dasharray:none;stroke-opacity:1"
       id="rect4045"
       width="20.387753"
       height="0.49932665"
       x="53.225727"
       y="17.417009"
       transform="matrix(0.99964528,-0.026633,0.04165607,0.99913201,0,0)"
       inkscape:transform-center-x="7.6513921"
       inkscape:transform-center-y="0.3267049" /><path
       style="fill:#ffffff;fill-opacity:1;stroke:#000000;stroke-width:0.363104;stroke-dasharray:none;stroke-opacity:1"
       d="M 53.790547,26.385088 66.197467,22.1902"
       id="path8191-7" /><path
       style="fill:#000000;stroke:#000000;stroke-width:0.163;stroke-dasharray:none;stroke-opacity:1"
       d="m 64.273617,15.979768 2.74955,3.71999"
       id="path1238" /><path
       id="path286-3"
       style="fill:#ffffff;fill-opacity:1;stroke:#000000;stroke-width:0.198616;stroke-dasharray:none;stroke-opacity:1"
       d="m 72.6077,16.745352 c -0.227074,-0.0026 -0.544085,0.100274 -0.914669,0.226868 -0.624115,0.213271 -2.281431,1.265617 -2.216922,1.409727 5.36e-4,0.0012 3.66e-4,0.004 0.0017,0.0049 -2.9e-4,0.0015 0.0013,0.0023 0.0023,0.0046 0.05798,0.146871 1.969241,-0.303183 2.557981,-0.600486 0.588741,-0.297303 1.023021,-0.532525 0.901755,-0.85576 -4.4e-4,-0.0012 -5.54e-4,-0.0026 -0.0017,-0.0049 -3.99e-4,-0.0012 -0.0015,-0.0036 -0.0021,-0.0047 -0.05947,-0.126991 -0.172779,-0.178034 -0.328149,-0.179843 z" /></g></svg>
