<?xml version="1.0" encoding="UTF-8" standalone="no"?>
<!-- Created with Inkscape (http://www.inkscape.org/) -->

<svg
   width="140mm"
   height="38mm"
   viewBox="0 0 140 38"
   version="1.1"
   id="svg5"
   xml:space="preserve"
   inkscape:version="1.2.2 (732a01da63, 2022-12-09)"
   sodipodi:docname="wing.svg"
   xmlns:inkscape="http://www.inkscape.org/namespaces/inkscape"
   xmlns:sodipodi="http://sodipodi.sourceforge.net/DTD/sodipodi-0.dtd"
   xmlns="http://www.w3.org/2000/svg"
   xmlns:svg="http://www.w3.org/2000/svg"><sodipodi:namedview
     id="namedview7"
     pagecolor="#ffffff"
     bordercolor="#000000"
     borderopacity="0.25"
     inkscape:showpageshadow="2"
     inkscape:pageopacity="0.0"
     inkscape:pagecheckerboard="0"
     inkscape:deskcolor="#d1d1d1"
     inkscape:document-units="mm"
     showgrid="false"
     inkscape:zoom="11.38056"
     inkscape:cx="451.20803"
     inkscape:cy="94.283585"
     inkscape:window-width="2605"
     inkscape:window-height="1150"
     inkscape:window-x="829"
     inkscape:window-y="55"
     inkscape:window-maximized="0"
     inkscape:current-layer="layer1" /><defs
     id="defs2"><inkscape:path-effect
       effect="mirror_symmetry"
       start_point="125.7,4.8185332"
       end_point="125.7,8.1643623"
       center_point="125.84688,6.4914478"
       id="path-effect3493"
       is_visible="true"
       lpeversion="1.2"
       lpesatellites=""
       mode="free"
       discard_orig_path="false"
       fuse_paths="true"
       oposite_fuse="false"
       split_items="false"
       split_open="false"
       link_styles="false" /><inkscape:path-effect
       effect="mirror_symmetry"
       start_point="125.7,4.8185332"
       end_point="125.7,8.1643623"
       center_point="125.84688,6.4914478"
       id="path-effect1260"
       is_visible="true"
       lpeversion="1.2"
       lpesatellites=""
       mode="free"
       discard_orig_path="false"
       fuse_paths="true"
       oposite_fuse="false"
       split_items="false"
       split_open="false"
       link_styles="false" /><marker
       style="overflow:visible"
       id="Arrow1_Fnone_S-aee4a7"
       refX="0"
       refY="0"
       orient="auto-start-reverse"
       inkscape:stockid="Arrow1"
       markerWidth="4.0606604"
       markerHeight="6.7071066"
       viewBox="0 0 4.0606602 6.7071068"
       inkscape:isstock="true"
       inkscape:collect="always"
       preserveAspectRatio="xMidYMid"><path
         style="fill:none;stroke:#aee4a7;stroke-width:1;stroke-linecap:butt"
         d="M 3,-3 0,0 3,3"
         id="path20807"
         transform="rotate(180,0.125,0)"
         sodipodi:nodetypes="ccc" /></marker><marker
       style="overflow:visible"
       id="Arrow1_Fnone_S-bfdb51"
       refX="0"
       refY="0"
       orient="auto-start-reverse"
       inkscape:stockid="Arrow1"
       markerWidth="4.0606604"
       markerHeight="6.7071066"
       viewBox="0 0 4.0606602 6.7071068"
       inkscape:isstock="true"
       inkscape:collect="always"
       preserveAspectRatio="xMidYMid"><path
         style="fill:none;stroke:#bfdb51;stroke-width:1;stroke-linecap:butt"
         d="M 3,-3 0,0 3,3"
         id="path20804"
         transform="rotate(180,0.125,0)"
         sodipodi:nodetypes="ccc" /></marker><marker
       style="overflow:visible"
       id="Arrow1_Fnone_S-d5ab75"
       refX="0"
       refY="0"
       orient="auto-start-reverse"
       inkscape:stockid="Arrow1"
       markerWidth="4.0606604"
       markerHeight="6.7071066"
       viewBox="0 0 4.0606602 6.7071068"
       inkscape:isstock="true"
       inkscape:collect="always"
       preserveAspectRatio="xMidYMid"><path
         style="fill:none;stroke:#d5ab75;stroke-width:1;stroke-linecap:butt"
         d="M 3,-3 0,0 3,3"
         id="path20801"
         transform="rotate(180,0.125,0)"
         sodipodi:nodetypes="ccc" /></marker><marker
       style="overflow:visible"
       id="Arrow1_Fnone_S-bfe8bc"
       refX="0"
       refY="0"
       orient="auto-start-reverse"
       inkscape:stockid="Arrow1"
       markerWidth="4.0606604"
       markerHeight="6.7071066"
       viewBox="0 0 4.0606602 6.7071068"
       inkscape:isstock="true"
       inkscape:collect="always"
       preserveAspectRatio="xMidYMid"><path
         style="fill:none;stroke:#bfe8bc;stroke-width:1;stroke-linecap:butt"
         d="M 3,-3 0,0 3,3"
         id="path20798"
         transform="rotate(180,0.125,0)"
         sodipodi:nodetypes="ccc" /></marker><marker
       style="overflow:visible"
       id="Arrow1_Fnone_S-d4e268"
       refX="0"
       refY="0"
       orient="auto-start-reverse"
       inkscape:stockid="Arrow1"
       markerWidth="4.0606604"
       markerHeight="6.7071066"
       viewBox="0 0 4.0606602 6.7071068"
       inkscape:isstock="true"
       inkscape:collect="always"
       preserveAspectRatio="xMidYMid"><path
         style="fill:none;stroke:#d4e268;stroke-width:1;stroke-linecap:butt"
         d="M 3,-3 0,0 3,3"
         id="path20795"
         transform="rotate(180,0.125,0)"
         sodipodi:nodetypes="ccc" /></marker><marker
       style="overflow:visible"
       id="Arrow1_Fnone_S-deab6c"
       refX="0"
       refY="0"
       orient="auto-start-reverse"
       inkscape:stockid="Arrow1"
       markerWidth="4.0606604"
       markerHeight="6.7071066"
       viewBox="0 0 4.0606602 6.7071068"
       inkscape:isstock="true"
       inkscape:collect="always"
       preserveAspectRatio="xMidYMid"><path
         style="fill:none;stroke:#deab6c;stroke-width:1;stroke-linecap:butt"
         d="M 3,-3 0,0 3,3"
         id="path20792"
         transform="rotate(180,0.125,0)"
         sodipodi:nodetypes="ccc" /></marker><marker
       style="overflow:visible"
       id="Arrow1_Fnone_S-ec865e"
       refX="0"
       refY="0"
       orient="auto-start-reverse"
       inkscape:stockid="Arrow1"
       markerWidth="4.0606604"
       markerHeight="6.7071066"
       viewBox="0 0 4.0606602 6.7071068"
       inkscape:isstock="true"
       inkscape:collect="always"
       preserveAspectRatio="xMidYMid"><path
         style="fill:none;stroke:#ec865e;stroke-width:1;stroke-linecap:butt"
         d="M 3,-3 0,0 3,3"
         id="path20789"
         transform="rotate(180,0.125,0)"
         sodipodi:nodetypes="ccc" /></marker><marker
       style="overflow:visible"
       id="Arrow2_Fnone_S-ff275d"
       refX="0"
       refY="0"
       orient="auto-start-reverse"
       inkscape:stockid="Arrow2"
       markerWidth="7.6999998"
       markerHeight="5.5999999"
       viewBox="0 0 7.7 5.6"
       inkscape:isstock="true"
       inkscape:collect="always"
       preserveAspectRatio="xMidYMid"><path
         transform="scale(0.7)"
         d="M -2,-4 9,0 -2,4 c 2,-2.33 2,-5.66 0,-8 z"
         style="fill:#ff275d;fill-rule:evenodd;stroke:none"
         id="path36560" /></marker><inkscape:path-effect
       effect="mirror_symmetry"
       start_point="11.590986,28"
       end_point="53,28"
       center_point="32.295493,28"
       id="path-effect349"
       is_visible="true"
       lpeversion="1.2"
       lpesatellites=""
       mode="free"
       discard_orig_path="false"
       fuse_paths="true"
       oposite_fuse="true"
       split_items="false"
       split_open="false"
       link_styles="false" /><inkscape:path-effect
       effect="mirror_symmetry"
       start_point="11.590986,28"
       end_point="53,28"
       center_point="32.295493,28"
       id="path-effect349-3"
       is_visible="true"
       lpeversion="1.2"
       lpesatellites=""
       mode="free"
       discard_orig_path="false"
       fuse_paths="true"
       oposite_fuse="true"
       split_items="false"
       split_open="false"
       link_styles="false" /><marker
       style="overflow:visible"
       id="Arrow1_Fnone_S-ec865e-7"
       refX="0"
       refY="0"
       orient="auto-start-reverse"
       inkscape:stockid="Arrow1"
       markerWidth="4.0606604"
       markerHeight="6.7071066"
       viewBox="0 0 4.0606602 6.7071068"
       inkscape:isstock="true"
       inkscape:collect="always"
       preserveAspectRatio="xMidYMid"><path
         style="fill:none;stroke:#ec865e;stroke-width:1;stroke-linecap:butt"
         d="M 3,-3 0,0 3,3"
         id="path20789-9"
         transform="rotate(180,0.125,0)"
         sodipodi:nodetypes="ccc" /></marker><marker
       style="overflow:visible"
       id="Arrow1_Fnone_S-deab6c-0"
       refX="0"
       refY="0"
       orient="auto-start-reverse"
       inkscape:stockid="Arrow1"
       markerWidth="4.0606604"
       markerHeight="6.7071066"
       viewBox="0 0 4.0606602 6.7071068"
       inkscape:isstock="true"
       inkscape:collect="always"
       preserveAspectRatio="xMidYMid"><path
         style="fill:none;stroke:#deab6c;stroke-width:1;stroke-linecap:butt"
         d="M 3,-3 0,0 3,3"
         id="path20792-2"
         transform="rotate(180,0.125,0)"
         sodipodi:nodetypes="ccc" /></marker><marker
       style="overflow:visible"
       id="Arrow1_Fnone_S-d4e268-3"
       refX="0"
       refY="0"
       orient="auto-start-reverse"
       inkscape:stockid="Arrow1"
       markerWidth="4.0606604"
       markerHeight="6.7071066"
       viewBox="0 0 4.0606602 6.7071068"
       inkscape:isstock="true"
       inkscape:collect="always"
       preserveAspectRatio="xMidYMid"><path
         style="fill:none;stroke:#d4e268;stroke-width:1;stroke-linecap:butt"
         d="M 3,-3 0,0 3,3"
         id="path20795-9"
         transform="rotate(180,0.125,0)"
         sodipodi:nodetypes="ccc" /></marker><marker
       style="overflow:visible"
       id="Arrow1_Fnone_S-bfe8bc-9"
       refX="0"
       refY="0"
       orient="auto-start-reverse"
       inkscape:stockid="Arrow1"
       markerWidth="4.0606604"
       markerHeight="6.7071066"
       viewBox="0 0 4.0606602 6.7071068"
       inkscape:isstock="true"
       inkscape:collect="always"
       preserveAspectRatio="xMidYMid"><path
         style="fill:none;stroke:#bfe8bc;stroke-width:1;stroke-linecap:butt"
         d="M 3,-3 0,0 3,3"
         id="path20798-7"
         transform="rotate(180,0.125,0)"
         sodipodi:nodetypes="ccc" /></marker><marker
       style="overflow:visible"
       id="Arrow1_Fnone_S-d5ab75-0"
       refX="0"
       refY="0"
       orient="auto-start-reverse"
       inkscape:stockid="Arrow1"
       markerWidth="4.0606604"
       markerHeight="6.7071066"
       viewBox="0 0 4.0606602 6.7071068"
       inkscape:isstock="true"
       inkscape:collect="always"
       preserveAspectRatio="xMidYMid"><path
         style="fill:none;stroke:#d5ab75;stroke-width:1;stroke-linecap:butt"
         d="M 3,-3 0,0 3,3"
         id="path20801-3"
         transform="rotate(180,0.125,0)"
         sodipodi:nodetypes="ccc" /></marker><marker
       style="overflow:visible"
       id="Arrow1_Fnone_S-bfdb51-9"
       refX="0"
       refY="0"
       orient="auto-start-reverse"
       inkscape:stockid="Arrow1"
       markerWidth="4.0606604"
       markerHeight="6.7071066"
       viewBox="0 0 4.0606602 6.7071068"
       inkscape:isstock="true"
       inkscape:collect="always"
       preserveAspectRatio="xMidYMid"><path
         style="fill:none;stroke:#bfdb51;stroke-width:1;stroke-linecap:butt"
         d="M 3,-3 0,0 3,3"
         id="path20804-8"
         transform="rotate(180,0.125,0)"
         sodipodi:nodetypes="ccc" /></marker><marker
       style="overflow:visible"
       id="Arrow1_Fnone_S-aee4a7-6"
       refX="0"
       refY="0"
       orient="auto-start-reverse"
       inkscape:stockid="Arrow1"
       markerWidth="4.0606604"
       markerHeight="6.7071066"
       viewBox="0 0 4.0606602 6.7071068"
       inkscape:isstock="true"
       inkscape:collect="always"
       preserveAspectRatio="xMidYMid"><path
         style="fill:none;stroke:#aee4a7;stroke-width:1;stroke-linecap:butt"
         d="M 3,-3 0,0 3,3"
         id="path20807-5"
         transform="rotate(180,0.125,0)"
         sodipodi:nodetypes="ccc" /></marker><marker
       style="overflow:visible"
       id="Arrow2_Fnone_S-ff275d-7"
       refX="0"
       refY="0"
       orient="auto-start-reverse"
       inkscape:stockid="Arrow2"
       markerWidth="7.6999998"
       markerHeight="5.5999999"
       viewBox="0 0 7.7 5.6"
       inkscape:isstock="true"
       inkscape:collect="always"
       preserveAspectRatio="xMidYMid"><path
         transform="scale(0.7)"
         d="M -2,-4 9,0 -2,4 c 2,-2.33 2,-5.66 0,-8 z"
         style="fill:#ff275d;fill-rule:evenodd;stroke:none"
         id="path36560-6" /></marker></defs><g
     inkscape:label="Layer 1"
     inkscape:groupmode="layer"
     id="layer1"><path
       id="path3592"
       style="fill:#ffffff;fill-opacity:1;stroke:#000000;stroke-width:0.198616;stroke-dasharray:none;stroke-opacity:1"
       d="m 108.70644,26.296609 c -0.22572,-0.02493 -0.55133,0.04619 -0.93256,0.135759 -0.64208,0.150821 -2.3949,1.034971 -2.34489,1.18473 5.4e-4,0.0016 -2.3e-4,0.0035 0.002,0.0049 -3.3e-4,0.0019 7.4e-4,0.0027 0.002,0.0043 0.0433,0.151866 1.98952,-0.107928 2.60465,-0.345853 0.61515,-0.2379 1.07045,-0.429309 0.98159,-0.76287 -4.2e-4,-0.0016 -4.8e-4,-0.0033 -0.002,-0.0048 -3.8e-4,-0.0016 -6.9e-4,-0.0032 -0.002,-0.0049 -0.0467,-0.132229 -0.15443,-0.194172 -0.30886,-0.211262 z" /><circle
       style="fill:#000000;fill-opacity:1;stroke:none;stroke-width:0.063;stroke-dasharray:none"
       id="circle1330"
       cx="66.825371"
       cy="35.082378"
       r="1.1376307" /><circle
       style="fill:#000000;fill-opacity:1;stroke:none;stroke-width:0.063;stroke-dasharray:none"
       id="path725"
       cx="49.340462"
       cy="34.256912"
       r="1.1376307" /><path
       style="opacity:1;fill:#bfbfbf;fill-opacity:1;stroke:#000000;stroke-width:0.165;stroke-dasharray:none;stroke-opacity:1"
       d="m 0.54308417,9.0966596 5.83815483,-0.543084 8.825117,9.5039724 23.216848,3.530047 3.801589,-2.036565 17.650235,-0.547796 3.701306,3.109703 c 0,0 10.543262,0.748825 11.23351,1.646995 0.690248,0.89817 -0.222296,4.269839 -1.629254,5.838156 -1.406958,1.568317 -2.03218,1.768445 -6.109695,2.443877 C 62.99338,32.717397 48.877574,31.091568 48.877574,31.091568 L 9.2324308,25.524956 4.6162153,23.624161 Z"
       id="path19152"
       sodipodi:nodetypes="ccccccczzzcccc" /><path
       style="opacity:1;fill:#bfbfbf;fill-opacity:1;stroke:#000000;stroke-width:0.165;stroke-dasharray:none;stroke-opacity:1"
       d="m 40.003817,17.317527 2.574652,2.578102 c 0,0 6.313444,-0.359619 9.956917,-0.526741 3.643472,-0.167121 6.787905,0.288786 7.494332,-0.532425 0.46223,-0.645204 0.547582,-2.499424 0.547582,-2.499424 L 45.629931,16.51982 Z"
       id="path19154"
       sodipodi:nodetypes="cczcccc" /><path
       style="opacity:1;fill:#bfbfbf;fill-opacity:1;stroke:#000000;stroke-width:0.165;stroke-dasharray:none;stroke-opacity:1"
       d="m 44.354188,31.95261 c 0,0 5.914755,-1.001423 7.467409,-0.407313 1.552654,0.59411 1.864217,0.959248 1.765022,1.765022 -0.0992,0.805774 -0.481036,0.853543 -2.036566,1.221939 -1.55553,0.368396 -7.195865,-0.543084 -7.195865,-0.543084 z"
       id="path19156"
       sodipodi:nodetypes="czzzcc" /><path
       style="opacity:1;fill:#bfbfbf;fill-opacity:1;stroke:#000000;stroke-width:0.165;stroke-dasharray:none;stroke-opacity:1"
       d="m 62.60714,32.757476 c 0,0 4.718724,-1.010857 5.957413,-0.41115 1.238689,0.599706 1.487251,0.968284 1.408114,1.781648 -0.07914,0.813365 -0.383765,0.861584 -1.624749,1.23345 -1.240984,0.371866 -5.740778,-0.5482 -5.740778,-0.5482 z"
       id="path19158"
       sodipodi:nodetypes="czzzcc" /><path
       style="opacity:1;fill:#bfbfbf;fill-opacity:1;stroke:none;stroke-width:0.3;stroke-dasharray:none;stroke-opacity:1"
       d="m 78.611433,25.117642 -3.258505,-1.35771 v 2.308108 z"
       id="path19702" /><path
       style="opacity:1;fill:#000000;fill-opacity:1;stroke:none;stroke-width:0.3;stroke-dasharray:none;stroke-opacity:1"
       d="m 75.081386,15.61367 -0.271542,9.775515 0.543084,9.23243 0.678854,-9.096659 z"
       id="path19160" /><path
       style="opacity:0.550847;fill:none;fill-opacity:1;stroke:#ec865e;stroke-width:0.3;stroke-dasharray:none;stroke-opacity:1;marker-end:url(#Arrow1_Fnone_S-ec865e)"
       d="m 67.697253,15.884631 c 0,0 -3.409219,0.381328 -5.722725,-0.226334 -2.313506,-0.607662 -4.463336,-1.607079 -8.124549,-1.568359 -3.661214,0.03872 -10.330982,1.84792 -14.131152,2.450344 -3.80017,0.602425 -8.595429,0.68894 -8.595429,0.68894"
       id="path1064"
       sodipodi:nodetypes="czzzc" /><path
       style="opacity:0.550847;fill:none;fill-opacity:1;stroke:#deab6c;stroke-width:0.3;stroke-dasharray:none;stroke-opacity:1;marker-end:url(#Arrow1_Fnone_S-deab6c)"
       d="m 67.747108,15.082653 c 0,0 -2.788772,-0.301166 -5.102278,-0.474513 -2.313507,-0.173348 -5.123371,-1.368705 -8.784585,-1.329986 -3.661213,0.03872 -10.353438,1.423414 -14.153607,2.025839 -3.800172,0.602424 -8.657475,0.750984 -8.657475,0.750984"
       id="path1792"
       sodipodi:nodetypes="czzzc" /><path
       style="opacity:0.550847;fill:none;fill-opacity:1;stroke:#d4e268;stroke-width:0.3;stroke-dasharray:none;stroke-opacity:1;marker-end:url(#Arrow1_Fnone_S-d4e268)"
       d="m 67.60336,14.248501 c 0,0 -3.823881,-0.612213 -6.137387,-0.785561 -2.313507,-0.173349 -4.249131,-0.952357 -7.910345,-0.913638 -3.661213,0.03872 -7.401539,0.89477 -11.201711,1.497195 -3.800169,0.602424 -11.448501,0.677969 -11.448501,0.677969"
       id="path1794"
       sodipodi:nodetypes="czzzc" /><path
       style="opacity:0.550847;fill:none;fill-opacity:1;stroke:#bfe8bc;stroke-width:0.3;stroke-dasharray:none;stroke-opacity:1;marker-end:url(#Arrow1_Fnone_S-bfe8bc)"
       d="m 67.321495,12.991293 c 0,0 -3.94797,-0.239943 -6.261476,-0.413292 -2.313507,-0.173349 -3.876863,-0.704178 -7.538077,-0.665458 -3.661213,0.03872 -7.401539,0.584545 -11.201711,1.186969 -3.800168,0.602425 -11.171833,0.169902 -11.171833,0.169902"
       id="path1796"
       sodipodi:nodetypes="czzzc" /><path
       style="opacity:0.550847;fill:none;fill-opacity:1;stroke:#d5ab75;stroke-width:0.3;stroke-dasharray:none;stroke-opacity:1;marker-end:url(#Arrow1_Fnone_S-d5ab75)"
       d="m 67.625967,16.948883 c -4.536579,-0.285533 -7.268491,0.331424 -8.598503,0.459844 -3.644863,0.347786 -9.828448,0.28279 -14.827134,0.358689 -4.998684,0.0759 -13.570182,0.797815 -13.570182,0.797815"
       id="path1798"
       sodipodi:nodetypes="cczc" /><path
       style="opacity:0.550847;fill:none;fill-opacity:1;stroke:#bfdb51;stroke-width:0.3;stroke-dasharray:none;stroke-opacity:1;marker-end:url(#Arrow1_Fnone_S-bfdb51)"
       d="m 67.643378,17.759725 c -4.2884,0.272869 -7.193539,0.260662 -8.523551,0.389082 -3.644863,0.347786 -10.833844,0.389189 -15.83253,0.465089 -4.998684,0.0759 -12.391559,1.134445 -12.391559,1.134445"
       id="path1800"
       sodipodi:nodetypes="cczc" /><path
       style="opacity:0.550847;fill:none;fill-opacity:1;stroke:#aee4a7;stroke-width:0.3;stroke-dasharray:none;stroke-opacity:1;marker-end:url(#Arrow1_Fnone_S-aee4a7)"
       d="m 67.679871,18.511593 c -4.2884,0.272869 -7.193539,0.198618 -8.523551,0.327038 -3.644863,0.347787 -10.833844,0.389188 -15.83253,0.465088 -4.998684,0.0759 -12.391559,1.134445 -12.391559,1.134445"
       id="path1802"
       sodipodi:nodetypes="cczc" /><path
       style="fill:none;fill-rule:evenodd;stroke:#ff275d;stroke-width:0.5;stroke-linecap:butt;stroke-linejoin:miter;stroke-dasharray:none;stroke-opacity:1;marker-end:url(#Arrow2_Fnone_S-ff275d)"
       d="M 53.026455,15.099431 53.158932,8.0126705"
       id="path10881"
       inkscape:connector-type="polyline"
       inkscape:connector-curvature="0"
       sodipodi:nodetypes="cc" /><text
       xml:space="preserve"
       style="font-style:normal;font-variant:normal;font-weight:bold;font-stretch:normal;font-size:3.52778px;font-family:Arial;-inkscape-font-specification:'Arial, Bold';font-variant-ligatures:normal;font-variant-caps:normal;font-variant-numeric:normal;font-variant-east-asian:normal;fill:#ff275d;fill-opacity:1;stroke:none;stroke-width:0.1;stroke-dasharray:none;stroke-opacity:1"
       x="50.192307"
       y="3.9310045"
       id="text12058"><tspan
         sodipodi:role="line"
         id="tspan12056"
         style="font-style:normal;font-variant:normal;font-weight:bold;font-stretch:normal;font-size:3.52778px;font-family:Arial;-inkscape-font-specification:'Arial, Bold';font-variant-ligatures:normal;font-variant-caps:normal;font-variant-numeric:normal;font-variant-east-asian:normal;fill:#ff275d;fill-opacity:1;stroke:none;stroke-width:0.1;stroke-dasharray:none"
         x="50.192307"
         y="3.9310045">Lift</tspan></text><path
       style="fill:#ffffff;fill-opacity:1;stroke:#000000;stroke-width:0.165;stroke-dasharray:none;stroke-opacity:1"
       d="m 60.564673,16.208049 c -0.04375,-0.845418 -2.214729,-1.552036 -6.733539,-1.594771 -4.518812,-0.04273 -14.024886,2.820717 -14.024886,2.820717 0,0 8.575373,-0.412647 11.592711,-0.440553 3.017339,-0.02791 4.05799,0.142475 6.115844,0.01442 2.057855,-0.128061 3.093622,0.04561 3.04987,-0.799809 z"
       id="path912"
       sodipodi:nodetypes="zzczzz" /><path
       style="fill:#b2b2b2;fill-opacity:1;stroke:#000000;stroke-width:0.165;stroke-dasharray:none;stroke-opacity:1"
       d="m 28.320312,20.234375 c -5.517433,-0.06015 -16.687637,1.579488 -16.742187,2.634766 -0.02149,0.415595 0.0087,4.276309 0.01563,5.130859 -0.0069,0.85455 -0.03711,4.715264 -0.01563,5.130859 0.05455,1.055278 11.224754,2.694914 16.742187,2.634766 15.499861,-0.168971 27.272296,-7.05555 27.515626,-7.365234 0.131986,-0.16798 0.162973,-0.30076 0.148437,-0.400391 0.01454,-0.09963 -0.01645,-0.232411 -0.148437,-0.400391 -0.24333,-0.309684 -12.015765,-7.196263 -27.515626,-7.365234 z"
       id="path345"
       sodipodi:nodetypes="cssscc"
       inkscape:path-effect="#path-effect349-3"
       inkscape:original-d="m 11.594181,28.166992 c 0,0 -0.04071,-4.829211 -0.01653,-5.296891 0.05455,-1.055278 11.224513,-2.695204 16.741947,-2.635056 15.499861,0.168971 27.273974,7.055216 27.517303,7.3649 0.346875,0.441467 -0.01653,0.637497 -0.01653,0.637497 z"
       class="UnoptimicedTransforms"
       transform="matrix(0.69683361,-0.34655501,0.39974479,0.80378467,89.585157,7.656582)" /><path
       style="opacity:0.550847;fill:none;fill-opacity:1;stroke:#ec865e;stroke-width:0.3;stroke-dasharray:none;stroke-opacity:1;marker-end:url(#Arrow1_Fnone_S-ec865e-7)"
       d="m 134.0938,15.888113 c 0,0 -3.40922,0.381328 -5.72273,-0.226334 -2.3135,-0.607662 -4.46333,-1.607079 -8.12454,-1.568359 -3.66122,0.03872 -10.33099,1.84792 -14.13116,2.450344 -3.80017,0.602425 -8.595433,0.68894 -8.595433,0.68894"
       id="path1064-2"
       sodipodi:nodetypes="czzzc" /><path
       style="opacity:0.550847;fill:none;fill-opacity:1;stroke:#deab6c;stroke-width:0.3;stroke-dasharray:none;stroke-opacity:1;marker-end:url(#Arrow1_Fnone_S-deab6c-0)"
       d="m 134.14366,15.086135 c 0,0 -2.78878,-0.301166 -5.10228,-0.474513 -2.31351,-0.173348 -5.12337,-1.368705 -8.78459,-1.329986 -3.66121,0.03872 -10.35344,1.423414 -14.15361,2.025839 -3.80017,0.602424 -8.657473,0.750984 -8.657473,0.750984"
       id="path1792-7"
       sodipodi:nodetypes="czzzc" /><path
       style="opacity:0.550847;fill:none;fill-opacity:1;stroke:#d4e268;stroke-width:0.3;stroke-dasharray:none;stroke-opacity:1;marker-end:url(#Arrow1_Fnone_S-d4e268-3)"
       d="m 133.99991,14.251983 c 0,0 -3.82388,-0.612213 -6.13739,-0.785561 -2.31351,-0.173349 -4.24913,-0.952357 -7.91035,-0.913638 -3.66121,0.03872 -7.40153,0.89477 -11.20171,1.497195 -3.80017,0.602424 -11.448503,0.677969 -11.448503,0.677969"
       id="path1794-0"
       sodipodi:nodetypes="czzzc" /><path
       style="opacity:0.550847;fill:none;fill-opacity:1;stroke:#bfe8bc;stroke-width:0.3;stroke-dasharray:none;stroke-opacity:1;marker-end:url(#Arrow1_Fnone_S-bfe8bc-9)"
       d="m 133.71804,12.994775 c 0,0 -3.94797,-0.239943 -6.26147,-0.413292 -2.31351,-0.173349 -3.87687,-0.704178 -7.53808,-0.665458 -3.66121,0.03872 -7.40154,0.584545 -11.20171,1.186969 -3.80017,0.602425 -11.171843,0.169902 -11.171843,0.169902"
       id="path1796-3"
       sodipodi:nodetypes="czzzc" /><path
       style="opacity:0.550847;fill:none;fill-opacity:1;stroke:#d5ab75;stroke-width:0.3;stroke-dasharray:none;stroke-opacity:1;marker-end:url(#Arrow1_Fnone_S-d5ab75-0)"
       d="m 134.02251,16.952365 c -4.53658,-0.285533 -7.26849,0.331424 -8.5985,0.459844 -3.64486,0.347786 -9.82845,0.28279 -14.82713,0.358689 -4.99869,0.0759 -13.570193,0.797815 -13.570193,0.797815"
       id="path1798-9"
       sodipodi:nodetypes="cczc" /><path
       style="opacity:0.550847;fill:none;fill-opacity:1;stroke:#bfdb51;stroke-width:0.3;stroke-dasharray:none;stroke-opacity:1;marker-end:url(#Arrow1_Fnone_S-bfdb51-9)"
       d="m 134.03992,17.763207 c -4.2884,0.272869 -7.19353,0.260662 -8.52355,0.389082 -3.64486,0.347786 -10.83384,0.389189 -15.83253,0.465089 -4.99868,0.0759 -12.391563,1.134445 -12.391563,1.134445"
       id="path1800-9"
       sodipodi:nodetypes="cczc" /><path
       style="opacity:0.550847;fill:none;fill-opacity:1;stroke:#aee4a7;stroke-width:0.3;stroke-dasharray:none;stroke-opacity:1;marker-end:url(#Arrow1_Fnone_S-aee4a7-6)"
       d="m 134.07642,18.515075 c -4.2884,0.272869 -7.19354,0.198618 -8.52355,0.327038 -3.64487,0.347787 -10.83385,0.389188 -15.83253,0.465088 -4.99869,0.0759 -12.391563,1.134445 -12.391563,1.134445"
       id="path1802-9"
       sodipodi:nodetypes="cczc" /><path
       style="fill:none;fill-rule:evenodd;stroke:#ff275d;stroke-width:0.5;stroke-linecap:butt;stroke-linejoin:miter;stroke-dasharray:none;stroke-opacity:1;marker-end:url(#Arrow2_Fnone_S-ff275d-7)"
       d="m 119.423,15.102913 0.13248,-7.08676"
       id="path10881-1"
       inkscape:connector-type="polyline"
       inkscape:connector-curvature="0"
       sodipodi:nodetypes="cc" /><text
       xml:space="preserve"
       style="font-style:normal;font-variant:normal;font-weight:bold;font-stretch:normal;font-size:3.52778px;font-family:Arial;-inkscape-font-specification:'Arial, Bold';font-variant-ligatures:normal;font-variant-caps:normal;font-variant-numeric:normal;font-variant-east-asian:normal;fill:#ff275d;fill-opacity:1;stroke:none;stroke-width:0.1;stroke-dasharray:none;stroke-opacity:1"
       x="116.58885"
       y="3.9344876"
       id="text12058-7"><tspan
         sodipodi:role="line"
         id="tspan12056-2"
         style="font-style:normal;font-variant:normal;font-weight:bold;font-stretch:normal;font-size:3.52778px;font-family:Arial;-inkscape-font-specification:'Arial, Bold';font-variant-ligatures:normal;font-variant-caps:normal;font-variant-numeric:normal;font-variant-east-asian:normal;fill:#ff275d;fill-opacity:1;stroke:none;stroke-width:0.1;stroke-dasharray:none"
         x="116.58885"
         y="3.9344876">Lift</tspan></text><path
       style="fill:#ffffff;fill-opacity:1;stroke:#000000;stroke-width:0.165;stroke-dasharray:none;stroke-opacity:1"
       d="m 126.96122,16.211531 c -0.0437,-0.845418 -2.21473,-1.552036 -6.73354,-1.594771 -4.51881,-0.04273 -14.02489,2.820717 -14.02489,2.820717 0,0 8.57538,-0.412647 11.59272,-0.440553 3.01733,-0.02791 4.05799,0.142475 6.11584,0.01442 2.05785,-0.128061 3.09362,0.04561 3.04987,-0.799809 z"
       id="path912-3"
       sodipodi:nodetypes="zzczzz" /><circle
       style="fill:#000000;stroke:#000000;stroke-width:0.140063;stroke-dasharray:none;stroke-opacity:1"
       id="path1080"
       cx="118.1269"
       cy="-49.562553"
       transform="rotate(30.3)"
       r="0.52709782" /><rect
       style="fill:#000000;fill-opacity:1;stroke:none;stroke-width:0.873245;stroke-dasharray:none;stroke-opacity:1"
       id="rect4045"
       width="20.387753"
       height="0.49932665"
       x="105.32211"
       y="19.893782"
       transform="matrix(0.99964528,-0.026633,0.04165607,0.99913201,0,0)"
       inkscape:transform-center-x="7.6513921"
       inkscape:transform-center-y="0.3267049" /><path
       style="fill:#ffffff;fill-opacity:1;stroke:#000000;stroke-width:0.363104;stroke-dasharray:none;stroke-opacity:1"
       d="m 105.97161,27.472236 12.40692,-4.194888"
       id="path8191" /><path
       style="fill:#000000;stroke:#000000;stroke-width:0.163;stroke-dasharray:none;stroke-opacity:1"
       d="m 116.45468,17.066916 2.74955,3.71999"
       id="path1238" /><path
       id="path286"
       style="fill:#ffffff;fill-opacity:1;stroke:#000000;stroke-width:0.165;stroke-dasharray:none;stroke-opacity:1"
       d="M 125.46838 5.0256332 C 125.39829 5.2112527 125.37643 5.5072458 125.35549 5.8554368 C 125.32019 6.4418637 125.57331 8.1671647 125.69554 8.1640075 C 125.69683 8.1639743 125.69804 8.1651078 125.69933 8.1643423 C 125.70062 8.1651078 125.70162 8.1640407 125.7029 8.1640739 C 125.82514 8.1672311 126.07816 6.4416063 126.04286 5.8551795 C 126.00758 5.2687526 125.97013 4.8306737 125.70304 4.8185117 C 125.70175 4.8184526 125.70054 4.818078 125.69926 4.8181769 C 125.69798 4.818078 125.69662 4.8182075 125.69532 4.8182666 C 125.58682 4.8232074 125.51635 4.8986304 125.46838 5.0256332 z "
       transform="matrix(0.50105858,1.1902507,-1.0341059,0.43532646,67.118792,-133.69412)" /></g></svg>
