<?xml version="1.0" encoding="utf-8"?>
<!-- Generator: Adobe Illustrator 27.5.0, SVG Export Plug-In . SVG Version: 6.00 Build 0)  -->
<svg version="1.1" id="Layer_1" xmlns="http://www.w3.org/2000/svg" xmlns:xlink="http://www.w3.org/1999/xlink" x="0px" y="0px"
	 viewBox="0 0 658 258.9" style="enable-background:new 0 0 658 258.9;" xml:space="preserve">
<style type="text/css">
	.st0{fill:none;stroke:#010101;stroke-width:2;stroke-miterlimit:10;}
	.st1{fill:#010101;}
	.st2{font-family:'ArialMT';}
	.st3{font-size:14.2754px;}
	.st4{fill:#F26522;stroke:#010101;stroke-width:2;stroke-miterlimit:7.0169;}
	.st5{fill:none;stroke:#010101;stroke-width:2;stroke-miterlimit:7.0169;}
	.st6{fill:#00AEEF;stroke:#010101;stroke-width:2;stroke-miterlimit:7.0169;}
	.st7{fill:#F26522;}
	.st8{font-family:'MyriadPro-Regular';}
	.st9{font-size:14px;}
	.st10{font-family:'Arial-BoldMT';}
</style>
<g>
	<g>
		<g>
			<line class="st0" x1="352.5" y1="0" x2="352.5" y2="53.8"/>
			<g>
				<polygon class="st1" points="347.6,50.5 352.5,69 357.5,50.5 				"/>
			</g>
		</g>
	</g>
	<path class="st0" d="M355.9,0c0,6.5-0.6,13.2,1.6,15.9c3.1,3.7,9.1-0.7,4.4-5.6"/>
	<path class="st0" d="M349.2,0c0,6.5,1,29.6-1,33.1c-2.8,5-9.8,0.3-5.6-5.2"/>
</g>
<text transform="matrix(1 0 0 1 336.255 83.1712)" class="st2 st3">Wind</text>
<g>
	<path id="path1317_00000134934487493084475570000006058517342375187857_" class="st4" d="M89.4,160.8
		c17.3,13.6,26.2,16.6,27.2,16.5c2.1-0.1,5.3-3.5,6.9-5.4c1.5-1.9,4.2-6,3.9-7.9c-0.2-1.1-4.9-9-22-23c-12.8-10.5-25.9-12.2-32-12.4
		c-1.9-0.1-3.3,1.7-2.9,3.6C71.9,138.2,76.4,150.6,89.4,160.8z"/>
	<path class="st5" d="M87.5,141.2c-1.2,0.8-3.9,8.5,19.9,27.6"/>
</g>
<g>
	<path id="path1317_00000013177402082359716090000011826111779853773448_" class="st6" d="M20.4,146.6
		C6.1,163.4,2.8,172.1,2.8,173.2c0,2,3.3,5.5,5.2,7.1c1.8,1.6,5.7,4.4,7.8,4.1c1.1-0.1,9.2-4.6,23.8-21.1
		c11-12.3,13.2-25.4,13.6-31.6c0.1-1.9-1.6-3.4-3.5-3C43.7,130,31.1,134.1,20.4,146.6z"/>
	<path class="st5" d="M40.1,145.5c-0.7-1.2,8.9,9.8-20,31.3"/>
</g>
<g>
	<path id="path1317_00000087412824918216452320000006776935409711064960_" class="st4" d="M266.6,132.3c-0.4-22-3.8-30.7-4.5-31.5
		c-1.4-1.5-6.1-1.9-8.5-1.9s-7.2,0.6-8.6,2c-0.7,0.8-3.8,9.5-3.9,31.6c0,16.5,7,27.8,10.8,32.6c1.2,1.5,3.4,1.4,4.6-0.1
		C260.3,160.2,267,148.8,266.6,132.3z"/>
	<path class="st5" d="M252.7,146.2c1.3,0.4,24.2,6,35.7-13.6"/>
</g>
<g>
	<path id="path1317_00000040577124535929124170000004845618665326076579_" class="st6" d="M214.7,203.6
		c-14.3,16.8-17.6,25.5-17.6,26.6c0,2,3.3,5.5,5.2,7.1c1.8,1.6,5.7,4.4,7.8,4.1c1.1-0.1,9.2-4.6,23.8-21.1
		c11-12.3,13.2-25.4,13.6-31.6c0.1-1.9-1.6-3.4-3.5-3C238,187,225.4,191.1,214.7,203.6z"/>
	<path class="st5" d="M234.4,202.5c-0.7-1.2,8.9,9.8-20,31.3"/>
</g>
<g>
	<path id="path1317_00000147915609317036052710000000640850873560923580_" class="st4" d="M604.3,122.2c-6.7-21-12.4-28.3-13.3-28.9
		c-1.8-1-6.4-0.1-8.7,0.7s-6.8,2.6-7.6,4.4c-0.4,1-1,10.2,5.3,31.4c4.8,15.8,14.6,24.6,19.6,28.1c1.6,1.1,3.7,0.4,4.4-1.4
		C606.2,150.8,609.3,138,604.3,122.2z"/>
	<path class="st5" d="M594.9,139.6c1.4,0,27.2,4.8,36.7-13.9"/>
</g>
<g>
	<path id="path1317_00000081624629743918593620000010771742315844900269_" class="st6" d="M651.2,181.4c-7.3-20.8-13.1-28.1-14-28.6
		c-1.7-1-6.4,0.1-8.8,0.9c-2.3,0.7-6.7,2.7-7.5,4.7c-0.5,1-0.7,10.3,6.2,31.2c5,15.7,15.2,24.2,20.4,27.7c1.6,1,3.7,0.3,4.4-1.5
		C653.7,209.9,656.6,197,651.2,181.4z"/>
	<path class="st5" d="M642.2,199c1.4,0-12.4,5.3-33-13.4"/>
</g>
<text transform="matrix(1 0 0 1 78.3703 190.1314)"><tspan x="0" y="0" class="st7 st8 st9">Starboard</tspan><tspan x="-5.9" y="16.8" class="st7 st8 st9">right of way</tspan></text>
<text transform="matrix(1 0 0 1 279.5491 105.5437)"><tspan x="0" y="0" class="st7 st8 st9">Starboard</tspan><tspan x="-5.9" y="16.8" class="st7 st8 st9">right of way</tspan></text>
<text transform="matrix(1 0 0 1 533.2074 166.2587)"><tspan x="0" y="0" class="st7 st8 st9">Starboard</tspan><tspan x="-5.9" y="16.8" class="st7 st8 st9">right of way</tspan></text>
<text transform="matrix(1 0 0 1 53.8299 255.9358)" class="st10 st9">(a)</text>
<text transform="matrix(1 0 0 1 223.2591 255.9365)" class="st10 st9">(b)</text>
<text transform="matrix(1 0 0 1 590.9485 255.9362)" class="st10 st9">(d)</text>
<g>
	<path id="path1317_00000119106578299885187120000017402574413646291616_" class="st4" d="M446.2,216.6
		c16.7,14.4,25.4,17.7,26.4,17.7c2.1,0,5.5-3.3,7.1-5.1c1.6-1.8,4.4-5.8,4.2-7.7c-0.2-1.1-4.5-9.2-20.9-24
		c-12.3-11-25.3-13.4-31.4-13.8c-1.9-0.2-3.4,1.6-3.1,3.5C429.7,193.2,433.7,205.8,446.2,216.6z"/>
	<path class="st5" d="M445.2,196.9c-1.2,0.7-8.1,9.7,20.4,29.5"/>
</g>
<g>
	<path id="path1317_00000141454855957716981170000014677559131807818414_" class="st6" d="M422.1,130.4c-2.7-21.9-6.8-30.2-7.6-31
		c-1.5-1.4-6.3-1.3-8.7-1c-2.4,0.2-7.1,1.2-8.3,3c-0.7,0.9-2.8,9.9-0.6,31.8c1.6,16.4,9.7,26.9,14,31.4c1.3,1.4,3.6,1.1,4.6-0.5
		C418.6,158.8,424.1,146.7,422.1,130.4z"/>
	<path class="st5" d="M409.6,145.6c1.4,0.3-10.9,11.9-30.8-13.8"/>
</g>
<text transform="matrix(1 0 0 1 375.3018 218.7068)"><tspan x="0" y="0" class="st7 st8 st9">Starboard</tspan><tspan x="-5.9" y="16.8" class="st7 st8 st9">right of way</tspan></text>
<text transform="matrix(1 0 0 1 402.5371 255.9362)" class="st10 st9">(c)</text>
</svg>
