<?xml version="1.0" encoding="utf-8"?>
<!-- Generator: Adobe Illustrator 27.5.0, SVG Export Plug-In . SVG Version: 6.00 Build 0)  -->
<svg version="1.1" id="Layer_1" xmlns="http://www.w3.org/2000/svg" xmlns:xlink="http://www.w3.org/1999/xlink" x="0px" y="0px"
	 viewBox="0 0 658 258.9" style="enable-background:new 0 0 658 258.9;" xml:space="preserve">
<style type="text/css">
	.st0{fill:none;stroke:#00AEEF;stroke-width:2;stroke-miterlimit:7.0169;stroke-dasharray:8,6;}
	.st1{fill:none;stroke:#F26522;stroke-width:2;stroke-miterlimit:7.0169;stroke-dasharray:8,6;}
	.st2{fill:none;stroke:#010101;stroke-width:2;stroke-miterlimit:10;}
	.st3{fill:#010101;}
	.st4{font-family:'ArialMT';}
	.st5{font-size:14.2754px;}
	.st6{fill:#F26522;stroke:#010101;stroke-width:2;stroke-miterlimit:7.0169;}
	.st7{fill:none;stroke:#010101;stroke-width:2;stroke-miterlimit:7.0169;}
	.st8{fill:#00AEEF;stroke:#010101;stroke-width:2;stroke-miterlimit:7.0169;}
	.st9{fill:#F26522;}
	.st10{font-family:'MyriadPro-Regular';}
	.st11{font-size:14px;}
	.st12{font-family:'Arial-BoldMT';}
</style>
<line class="st0" x1="381.9" y1="50.5" x2="473.1" y2="111.6"/>
<line class="st1" x1="487.5" y1="162.7" x2="404.5" y2="243"/>
<line class="st1" x1="653.4" y1="71.4" x2="533.7" y2="75"/>
<line class="st1" x1="176" y1="152.7" x2="275.1" y2="78.3"/>
<line class="st0" x1="6.5" y1="117.3" x2="100" y2="200"/>
<g>
	<g>
		<g>
			<line class="st2" x1="352.5" y1="0" x2="352.5" y2="53.8"/>
			<g>
				<polygon class="st3" points="347.6,50.5 352.5,69 357.5,50.5 				"/>
			</g>
		</g>
	</g>
	<path class="st2" d="M355.9,0c0,6.5-0.6,13.2,1.6,15.9c3.1,3.7,9.1-0.7,4.4-5.6"/>
	<path class="st2" d="M349.2,0c0,6.5,1,29.6-1,33.1c-2.8,5-9.8,0.3-5.6-5.2"/>
</g>
<text transform="matrix(1 0 0 1 336.255 83.1712)" class="st4 st5">Wind</text>
<g>
	<path id="path1317_00000134934487493084475570000006058517342375187857_" class="st6" d="M69.9,148.8c-10.1,19.6-11.2,28.8-11,29.8
		c0.5,2,4.5,4.6,6.6,5.7c2.2,1.1,6.6,2.9,8.5,2.3c1-0.4,7.9-6.5,18.4-26c7.8-14.6,7-27.8,6-33.8c-0.3-1.9-2.3-2.9-4.1-2.2
		C88.8,127.2,77.5,134.1,69.9,148.8z"/>
	<path class="st7" d="M88.8,143.2c-1-1,2.7,15.4-16.2,36"/>
</g>
<g>
	<path id="path1317_00000013177402082359716090000011826111779853773448_" class="st8" d="M42.1,105.6
		c-14.3,16.8-17.6,25.5-17.6,26.6c0,2,3.3,5.5,5.2,7.1c1.8,1.6,5.7,4.4,7.8,4.1c1.1-0.1,9.2-4.6,23.8-21.1
		c11-12.3,13.2-25.4,13.6-31.6c0.1-1.9-1.6-3.4-3.5-3C65.4,89,52.8,93.1,42.1,105.6z"/>
	<path class="st7" d="M61.8,104.5c-0.7-1.2,8.9,9.8-20,31.3"/>
</g>
<g>
	<path id="path1317_00000087412824918216452320000006776935409711064960_" class="st6" d="M627,104.7c-0.4-22-3.8-30.7-4.5-31.5
		c-1.4-1.5-6.1-1.9-8.5-1.9c-2.4,0-7.2,0.6-8.6,2c-0.7,0.8-3.8,9.5-3.9,31.6c0,16.5,7,27.8,10.8,32.6c1.2,1.5,3.4,1.4,4.6-0.1
		C620.7,132.6,627.3,121.3,627,104.7z"/>
	<path class="st7" d="M613,118.7c1.3,0.4,24.2,6,35.7-13.6"/>
</g>
<g>
	<path id="path1317_00000081624629743918593620000010771742315844900269_" class="st8" d="M418,112c11.1-19.1,12.8-28.2,12.6-29.3
		c-0.4-2-4.2-4.8-6.4-6.1c-2.1-1.3-6.4-3.3-8.4-2.6c-1.1,0.3-8.2,6.2-19.7,25c-8.6,14.1-8.5,27.3-7.8,33.5c0.2,1.9,2.2,3.1,4,2.3
		C398.1,132.5,409.7,126.2,418,112z"/>
	<path class="st7" d="M398.8,116.6c0.9,1.1,23.5,6,39.7-4.2"/>
</g>
<text transform="matrix(1 0 0 1 29.4773 206.9312)"><tspan x="0" y="0" class="st9 st10 st11">Leeward</tspan><tspan x="-9.6" y="16.8" class="st9 st10 st11">right of way</tspan></text>
<text transform="matrix(1 0 0 1 53.8299 255.9358)" class="st12 st11">(a)</text>
<text transform="matrix(1 0 0 1 223.2591 255.9365)" class="st12 st11">(b)</text>
<text transform="matrix(1 0 0 1 590.9485 255.9362)" class="st12 st11">(d)</text>
<g>
	<path id="path1317_00000141454855957716981170000014677559131807818414_" class="st8" d="M593.9,49.7c5.2-21.4,4.2-30.7,3.7-31.7
		c-0.9-1.8-5.4-3.4-7.8-4c-2.3-0.6-7.1-1.4-8.8-0.1c-0.9,0.6-6.1,8.3-11.7,29.6c-4.3,15.9-0.3,28.6,2.1,34.3c0.8,1.7,3,2.3,4.5,1.1
		C580.6,75,590,65.7,593.9,49.7z"/>
	<path class="st7" d="M576.8,59.5c1.2,0.8,25.6,9.5,36.1-16"/>
</g>
<text transform="matrix(1 0 0 1 402.5371 255.9362)" class="st12 st11">(c)</text>
<g>
	<path id="path1317_00000144325656914986300550000015485903685026963106_" class="st6" d="M396.3,203.9c15,16.1,23.3,20.4,24.4,20.4
		c2,0.2,5.8-2.7,7.6-4.3c1.8-1.7,5-5.3,5-7.2c0-1.1-3.5-9.6-18.2-26.1c-11.1-12.3-23.7-16-29.8-17.1c-1.9-0.4-3.5,1.2-3.4,3.1
		C382.4,178.9,385,191.8,396.3,203.9z"/>
	<path class="st7" d="M397.4,184.2c-1.3,0.6-7.4,7.8,15.9,31.4"/>
</g>
<g>
	<path id="path1317_00000181086029521297192010000005955324601093965960_" class="st6" d="M173.9,114.1c13,17.8,20.8,23,21.8,23.2
		c2,0.4,6.1-2,8.1-3.4c2-1.4,5.6-4.6,5.8-6.6c0.1-1.1-2.3-10-15-28.1C185,85.7,172.9,80.5,167,78.7c-1.9-0.6-3.6,0.8-3.8,2.7
		C163,87.6,164.1,100.7,173.9,114.1z"/>
	<path class="st7" d="M177.3,94.6c-1.3,0.4-5.1,6.9,13.4,33.9"/>
</g>
<g>
	<path id="path1317_00000055696496975183656000000009035261426322080181_" class="st8" d="M236.9,138.7
		c15.1,16.1,23.4,20.3,24.5,20.4c2,0.2,5.8-2.7,7.6-4.4c1.8-1.6,5-5.2,4.9-7.3c0-1.1-3.5-9.7-18.3-26c-11-12.3-23.8-15.9-29.9-17
		c-1.9-0.3-3.6,1.2-3.4,3.1C223,113.7,225.7,126.7,236.9,138.7z"/>
	<path class="st7" d="M238,119c-1.3,0.6-12.3,2,14.4,30.4"/>
</g>
<text transform="matrix(1 0 0 1 158.258 174.2781)"><tspan x="0" y="0" class="st9 st10 st11">Leeward</tspan><tspan x="-9.6" y="16.8" class="st9 st10 st11">right of way</tspan></text>
<text transform="matrix(1 0 0 1 330.766 213.6371)"><tspan x="0" y="0" class="st9 st10 st11">Leeward</tspan><tspan x="-9.6" y="16.8" class="st9 st10 st11">right of way</tspan></text>
<text transform="matrix(1 0 0 1 593.864 155.621)"><tspan x="0" y="0" class="st9 st10 st11">Leeward</tspan><tspan x="-9.6" y="16.8" class="st9 st10 st11">right of way</tspan></text>
</svg>
