<?xml version="1.0" encoding="utf-8"?>
<!-- Generator: Adobe Illustrator 27.5.0, SVG Export Plug-In . SVG Version: 6.00 Build 0)  -->
<svg version="1.1" id="Layer_1" xmlns="http://www.w3.org/2000/svg" xmlns:xlink="http://www.w3.org/1999/xlink" x="0px" y="0px"
	 viewBox="0 0 658 217.2" style="enable-background:new 0 0 658 217.2;" xml:space="preserve">
<style type="text/css">
	.st0{fill:none;stroke:#F26522;stroke-width:2;stroke-miterlimit:7.0169;stroke-dasharray:8,6;}
	.st1{fill:none;stroke:#010101;stroke-width:2;stroke-miterlimit:10;}
	.st2{fill:#010101;}
	.st3{font-family:'ArialMT';}
	.st4{font-size:14.2754px;}
	.st5{fill:#F26522;stroke:#010101;stroke-width:2;stroke-miterlimit:7.0169;}
	.st6{fill:none;stroke:#010101;stroke-width:2;stroke-miterlimit:7.0169;}
	.st7{fill:#00AEEF;stroke:#010101;stroke-width:2;stroke-miterlimit:7.0169;}
	.st8{fill:#F26522;}
	.st9{font-family:'MyriadPro-Regular';}
	.st10{font-size:14px;}
	.st11{font-family:'Arial-BoldMT';}
</style>
<line class="st0" x1="32.5" y1="96" x2="127" y2="146"/>
<line class="st0" x1="474.6" y1="123.9" x2="354.9" y2="127.5"/>
<line class="st0" x1="176" y1="111" x2="275.1" y2="36.6"/>
<g>
	<g>
		<g>
			<line class="st1" x1="348.3" y1="0" x2="348.3" y2="53.8"/>
			<g>
				<polygon class="st2" points="343.4,50.5 348.3,69 353.3,50.5 				"/>
			</g>
		</g>
	</g>
	<path class="st1" d="M351.7,0c0,6.5-0.6,13.2,1.6,15.9c3.1,3.7,9.1-0.7,4.4-5.6"/>
	<path class="st1" d="M345,0c0,6.5,1,29.6-1,33.1c-2.8,5-9.8,0.3-5.6-5.2"/>
</g>
<text transform="matrix(1 0 0 1 332.0409 83.1712)" class="st3 st4">Wind</text>
<g>
	<path id="path1317_00000134934487493084475570000006058517342375187857_" class="st5" d="M84.9,88.1c-10.1,19.6-11.2,28.8-11,29.8
		c0.5,2,4.5,4.6,6.6,5.7c2.2,1.1,6.6,2.9,8.5,2.3c1-0.4,7.9-6.5,18.4-26c7.8-14.6,7-27.8,6-33.8c-0.3-1.9-2.3-2.9-4.1-2.2
		C103.8,66.5,92.5,73.4,84.9,88.1z"/>
	<path class="st6" d="M103.8,82.5c-1-1,2.7,15.4-16.2,36"/>
</g>
<g>
	<path id="path1317_00000013177402082359716090000011826111779853773448_" class="st7" d="M21.3,139.7C7,156.5,3.7,165.2,3.7,166.3
		c0,2,3.3,5.5,5.2,7.1c1.8,1.6,5.7,4.4,7.8,4.1c1.1-0.1,9.2-4.6,23.8-21.1c11-12.3,13.2-25.4,13.6-31.6c0.1-1.9-1.6-3.4-3.5-3
		C44.6,123.1,32,127.2,21.3,139.7z"/>
	<path class="st6" d="M41,138.6c-0.7-1.2,8.9,9.8-20,31.3"/>
</g>
<g>
	<path id="path1317_00000087412824918216452320000006776935409711064960_" class="st5" d="M448.2,157.2c-0.4-22-3.8-30.7-4.5-31.5
		c-1.4-1.5-6.1-1.9-8.5-1.9s-7.2,0.6-8.6,2c-0.7,0.8-3.8,9.5-3.9,31.6c0,16.5,7,27.8,10.8,32.6c1.2,1.5,3.4,1.4,4.6-0.1
		C441.9,185.1,448.5,173.8,448.2,157.2z"/>
	<path class="st6" d="M434.2,171.2c1.3,0.4,24.2,6,35.7-13.6"/>
</g>
<text transform="matrix(1 0 0 1 58.9107 161.5175)" class="st8 st9 st10">Ahead</text>
<text transform="matrix(1 0 0 1 49.3107 178.3175)" class="st8 st9 st10">right of way</text>
<text transform="matrix(1 0 0 1 53.8299 214.1931)" class="st11 st10">(a)</text>
<text transform="matrix(1 0 0 1 223.2591 214.1938)" class="st11 st10">(b)</text>
<text transform="matrix(1 0 0 1 590.9485 214.1935)" class="st11 st10">(d)</text>
<g>
	<path id="path1317_00000141454855957716981170000014677559131807818414_" class="st7" d="M430.4,81.7c-1.2-22-4.9-30.6-5.7-31.4
		c-1.4-1.5-6.2-1.7-8.6-1.6c-2.4,0.1-7.2,0.7-8.4,2.5c-0.7,0.8-3.4,9.7-2.6,31.7c0.5,16.5,8,27.5,12,32.2c1.3,1.4,3.5,1.3,4.6-0.3
		C425,109.8,431.3,98.2,430.4,81.7z"/>
	<path class="st6" d="M416.8,96.1c1.4,0.4,27.3,1.6,29.9-25.8"/>
</g>
<text transform="matrix(1 0 0 1 402.5371 214.1935)" class="st11 st10">(c)</text>
<g>
	<path id="path1317_00000181086029521297192010000005955324601093965960_" class="st5" d="M173.9,72.4c13,17.8,20.8,23,21.8,23.2
		c2,0.4,6.1-2,8.1-3.4s5.6-4.6,5.8-6.6c0.1-1.1-2.3-10-15-28.1C185,44,172.9,38.8,167,37c-1.9-0.6-3.6,0.8-3.8,2.7
		C163,45.9,164.1,59,173.9,72.4z"/>
	<path class="st6" d="M177.3,52.9c-1.3,0.4-5.1,6.9,13.4,33.9"/>
</g>
<g>
	<path id="path1317_00000055696496975183656000000009035261426322080181_" class="st7" d="M206.6,146.2
		c15.1,16.1,23.4,20.3,24.5,20.4c2,0.2,5.8-2.7,7.6-4.4c1.8-1.6,5-5.2,4.9-7.3c0-1.1-3.5-9.7-18.3-26c-11-12.3-23.8-15.9-29.9-17
		c-1.9-0.3-3.6,1.2-3.4,3.1C192.7,121.2,195.4,134.2,206.6,146.2z"/>
	<path class="st6" d="M207.7,126.5c-1.3,0.6-12.3,2,14.4,30.4"/>
</g>
<text transform="matrix(1 0 0 1 226.9377 88.4334)" class="st8 st9 st10">Ahead</text>
<text transform="matrix(1 0 0 1 217.3377 105.2334)" class="st8 st9 st10">right of way</text>
<text transform="matrix(1 0 0 1 367.8659 156.635)" class="st8 st9 st10">Ahead</text>
<text transform="matrix(1 0 0 1 353.2659 173.435)" class="st8 st9 st10">right of way</text>
<line class="st0" x1="648.7" y1="120.9" x2="529" y2="124.5"/>
<g>
	<path id="path1317_00000051367828059840989030000017967228976425334945_" class="st5" d="M570,156.4c-0.4-22-3.8-30.7-4.5-31.5
		c-1.4-1.5-6.1-1.9-8.5-1.9s-7.2,0.6-8.6,2c-0.7,0.8-3.8,9.5-3.9,31.6c0,16.5,7,27.8,10.8,32.6c1.2,1.5,3.4,1.4,4.6-0.1
		C563.7,184.3,570.3,173,570,156.4z"/>
	<path class="st6" d="M556,170.4c1.3,0.4,24.2,6,35.7-13.6"/>
</g>
<g>
	<path id="path1317_00000178899936723764313910000012117545565189612416_" class="st7" d="M623.4,84.5c5.2-21.4,4.2-30.7,3.7-31.7
		c-0.9-1.8-5.4-3.4-7.8-4c-2.3-0.6-7.1-1.4-8.8-0.1c-0.9,0.6-6.1,8.3-11.7,29.6c-4.3,15.9-0.3,28.6,2.1,34.3c0.8,1.7,3,2.3,4.5,1.1
		C610.1,109.8,619.5,100.5,623.4,84.5z"/>
	<path class="st6" d="M606.3,94.3c1.2,0.8,25.6,9.5,36.1-16"/>
</g>
<text transform="matrix(1 0 0 1 598.9762 168.1286)" class="st8 st9 st10">Ahead</text>
<text transform="matrix(1 0 0 1 584.3762 184.9286)" class="st8 st9 st10">right of way</text>
</svg>
