<?xml version="1.0" encoding="utf-8"?>
<!-- Generator: Adobe Illustrator 27.5.0, SVG Export Plug-In . SVG Version: 6.00 Build 0)  -->
<svg version="1.1"
	 id="Layer_1" xmlns:svg="http://www.w3.org/2000/svg" xmlns:sodipodi="http://sodipodi.sourceforge.net/DTD/sodipodi-0.dtd" xmlns:inkscape="http://www.inkscape.org/namespaces/inkscape"
	 xmlns="http://www.w3.org/2000/svg" xmlns:xlink="http://www.w3.org/1999/xlink" x="0px" y="0px" viewBox="0 0 449.1 344"
	 style="enable-background:new 0 0 449.1 344;" xml:space="preserve">
<style type="text/css">
	.st0{fill:none;stroke:#F26522;stroke-width:2;stroke-miterlimit:7.0169;stroke-dasharray:11.7791,11.7791;}
	.st1{fill:none;stroke:#FFDE17;stroke-width:2;stroke-miterlimit:7.0169;stroke-dasharray:11.9252,11.9252;}
	.st2{fill:#FFF200;stroke:#010101;stroke-width:2;stroke-miterlimit:10;}
	.st3{font-family:'Arial-BoldMT';}
	.st4{font-size:18px;}
	.st5{fill:none;stroke:#010101;stroke-width:2.6297;stroke-miterlimit:10;}
	.st6{fill:#010101;}
	.st7{font-family:'ArialMT';}
	.st8{fill:#F26522;stroke:#010101;stroke-width:2;stroke-miterlimit:7.0169;}
	.st9{fill:none;stroke:#010101;stroke-width:2;stroke-miterlimit:7.0169;}
	.st10{fill:#00AEEF;stroke:#010101;stroke-width:2;stroke-miterlimit:7.0169;}
	.st11{fill:none;stroke:#F26522;stroke-miterlimit:7.0169;}
	.st12{fill:none;stroke:#E6E7E8;stroke-width:2;stroke-miterlimit:7.0169;}
	.st13{fill:#D1D3D4;}
	.st14{font-family:'MyriadPro-Regular';}
	.st15{fill:#C63FFF;stroke:#010101;stroke-width:2;stroke-miterlimit:7.0169;}
</style>
<g id="g9">
	<g id="g8">
		<line id="line7" class="st0" x1="43" y1="53.6" x2="240.9" y2="30"/>
	</g>
</g>
<sodipodi:namedview  bordercolor="#000000" borderopacity="0.25" id="namedview13" inkscape:current-layer="Layer_1" inkscape:cx="157.20747" inkscape:cy="208.022" inkscape:deskcolor="#d1d1d1" inkscape:pagecheckerboard="0" inkscape:pageopacity="0.0" inkscape:showpageshadow="2" inkscape:window-height="773" inkscape:window-maximized="0" inkscape:window-width="1371" inkscape:window-x="0" inkscape:window-y="37" inkscape:zoom="0.94461163" pagecolor="#ffffff" showgrid="false">
	</sodipodi:namedview>
<g id="g1">
	<circle id="circle1" class="st1" cx="227" cy="289.7" r="216.4"/>
</g>
<circle id="circle2" class="st2" cx="226.9" cy="289.7" r="11.1"/>
<text id="text2" transform="matrix(1 0 0 1 153.3372 329.8073)" class="st3 st4">Leeward Mark</text>
<g id="g5">
	<g id="g4">
		<g id="g3">
			<line id="line2" class="st5" x1="279.7" y1="88.1" x2="279.7" y2="156"/>
			<g id="g2">
				<polygon id="polygon2" class="st6" points="273.5,151.8 279.7,175.1 286,151.8 				"/>
			</g>
		</g>
	</g>
	<path id="path4" class="st5" d="M284,88.1c0,8.2-0.8,16.7,2,20c3.9,4.7,11.5-0.9,5.6-7"/>
	<path id="path5" class="st5" d="M275.5,88.1c0,8.2,1.2,37.3-1.3,41.7c-3.5,6.3-12.3,0.4-7.1-6.6"/>
</g>
<text id="text5" transform="matrix(1 0 0 1 255.4702 193.2238)" class="st7 st4">Wind</text>
<g id="g6">
	<path id="path1317_00000134934487493084475570000006058517342375187857_" class="st8" d="M170.5,71.8c-2.6-21.9-6.7-30.2-7.5-30.9
		c-1.5-1.4-6.3-1.3-8.7-1s-7.2,1.3-8.3,2.8c-0.6,0.9-2.9,9.8-0.8,31.8c1.6,16.5,9.6,27,13.8,31.4c1.3,1.4,3.5,1.1,4.6-0.5
		C166.9,100.2,172.4,88.3,170.5,71.8z"/>
	<path id="path6" class="st9" d="M157.9,87.1c1.4,0.3-14.4,1.1-28.9-22.1"/>
</g>
<g id="g10">
	<path id="path1317_00000013177402082359716090000011826111779853773448_" class="st10" d="M106.9,37.1c-5.1-21.5-10.1-29.3-11-29.9
		c-1.6-1.2-6.4-0.6-8.8,0c-2.4,0.5-6.9,2-7.9,3.9c-0.6,0.9-1.7,10.1,2.9,31.7c3.4,16.1,12.7,25.7,17.4,29.7c1.5,1.2,3.7,0.7,4.5-1
		C106.5,65.7,110.7,53.1,106.9,37.1z"/>
	<path id="path9" class="st9" d="M96.2,53.6c1.4,0.1,16.2-0.3,23-23.6"/>
</g>
<path id="path11" class="st11" d="M81.1,389.2"/>
<path id="path1317_00000001626342459417705030000014968348285088923021_" class="st12" d="M275.5,302.5c22-1.5,30.5-5.1,31.3-5.9
	c1.5-1.4,1.6-6.2,1.5-8.6c-0.2-2.4-0.9-7.2-2.5-8.4c-0.9-0.7-9.7-3.4-31.8-2.4c-16.5,0.7-27.4,8.2-32.1,12.2
	c-1.5,1.3-1.3,3.5,0.3,4.6C247.4,297.4,259.1,303.6,275.5,302.5z"/>
<path id="path1317_00000149382868289508930510000004295788303968221356_" class="st12" d="M342.2,300.7c22.1-0.2,30.7-3.4,31.6-4.1
	c1.5-1.4,2-6.1,2-8.6c0-2.4-0.4-7.2-2-8.6c-0.8-0.7-9.5-3.9-31.6-4.2c-16.5-0.2-27.8,6.7-32.7,10.4c-1.5,1.2-1.5,3.4,0,4.6
	C314.3,294.1,325.7,300.9,342.2,300.7z"/>
<path id="path1317_00000152977134369279196520000004090396356190554002_" class="st12" d="M409.6,300.7c22.1-0.2,30.7-3.4,31.6-4.1
	c1.5-1.4,2-6.1,2-8.6c0-2.4-0.4-7.2-2-8.6c-0.8-0.7-9.5-3.9-31.6-4.2c-16.5-0.2-27.8,6.7-32.7,10.4c-1.5,1.2-1.5,3.4,0,4.6
	C381.8,294.1,393.1,300.9,409.6,300.7z"/>
<text id="text13" transform="matrix(1 0 0 1 279.3789 266.1889)" class="st13 st14 st4">3 Hull Lengths</text>
<path id="path1317_00000061456797756994941070000011693019937171705500_" class="st15" d="M263.8,47.2c2.7-21.9,0.6-31,0-31.8
	c-1.2-1.7-5.8-2.7-8.2-3c-2.4-0.3-7.2-0.5-8.8,0.8c-0.8,0.7-5.1,8.8-8.2,30.7c-2.3,16.4,3,28.5,6.1,33.8c0.9,1.7,3.2,1.9,4.6,0.6
	C253.6,73.9,261.8,63.6,263.8,47.2z"/>
<path id="path6_00000114791699644626326830000011745995410443947428_" class="st9" d="M244.7,64.6c1.4,0.3-16.8,8.4-33.6-11"/>
</svg>
