<?xml version="1.0" encoding="utf-8"?>
<!-- Generator: Adobe Illustrator 27.5.0, SVG Export Plug-In . SVG Version: 6.00 Build 0)  -->
<svg version="1.1" id="Layer_1" xmlns="http://www.w3.org/2000/svg" xmlns:xlink="http://www.w3.org/1999/xlink" x="0px" y="0px"
	 viewBox="0 0 351 381.4" style="enable-background:new 0 0 351 381.4;" xml:space="preserve">
<style type="text/css">
	.st0{fill:none;stroke:#FFDE17;stroke-width:2;stroke-miterlimit:7.0169;stroke-dasharray:11.9252,11.9252;}
	.st1{fill:#FFF200;stroke:#010101;stroke-width:2;stroke-miterlimit:10;}
	.st2{font-family:'Arial-BoldMT';}
	.st3{font-size:18px;}
	.st4{fill:none;stroke:#010101;stroke-width:2.6297;stroke-miterlimit:10;}
	.st5{fill:#010101;}
	.st6{font-family:'ArialMT';}
	.st7{fill:#F26522;stroke:#010101;stroke-width:2;stroke-miterlimit:7.0169;}
	.st8{fill:none;stroke:#010101;stroke-width:2;stroke-miterlimit:7.0169;}
	.st9{fill:none;stroke:#00AEEF;stroke-width:2;stroke-miterlimit:7.0169;}
	.st10{fill:none;stroke:#00AEEF;stroke-width:2;stroke-miterlimit:7.0169;stroke-dasharray:11.7791,11.7791;}
	.st11{fill:#00AEEF;stroke:#010101;stroke-width:2;stroke-miterlimit:7.0169;}
	.st12{fill:#FFFFFF;stroke:#F26522;stroke-miterlimit:7.0169;}
	.st13{fill:#F26522;}
	.st14{font-family:'MyriadPro-Regular';}
	.st15{fill:none;stroke:#F26522;stroke-miterlimit:7.0169;}
	.st16{fill:none;stroke:#00AEEF;stroke-miterlimit:7.0169;}
	.st17{fill:#00AEEF;}
	.st18{fill:none;stroke:#E6E7E8;stroke-width:2;stroke-miterlimit:7.0169;}
	.st19{fill:#D1D3D4;}
</style>
<g>
	<circle class="st0" cx="241" cy="80.7" r="216.4"/>
</g>
<circle class="st1" cx="240.9" cy="80.7" r="11.1"/>
<text transform="matrix(1 0 0 1 118.602 59.0001)" class="st2 st3">Windward Mark</text>
<g>
	<g>
		<g>
			<line class="st4" x1="313.2" y1="9.3" x2="313.2" y2="77.2"/>
			<g>
				<polygon class="st5" points="307,73 313.2,96.3 319.5,73 				"/>
			</g>
		</g>
	</g>
	<path class="st4" d="M317.5,9.3c0,8.2-0.8,16.7,2,20c3.9,4.7,11.5-0.9,5.6-7"/>
	<path class="st4" d="M309,9.3c0,8.2,1.2,37.3-1.3,41.7c-3.5,6.3-12.3,0.4-7.1-6.6"/>
</g>
<text transform="matrix(1 0 0 1 298.9952 114.172)" class="st6 st3">Wind</text>
<g>
	<path id="path1317_00000134934487493084475570000006058517342375187857_" class="st7" d="M33.4,266.6c-20.8,7.3-28,13.2-28.5,14.1
		c-1,1.8,0.1,6.4,0.9,8.7c0.8,2.3,2.8,6.7,4.6,7.5c1,0.4,10.2,0.7,31.2-6.2c15.7-5.2,24.2-15.3,27.6-20.4c1.1-1.6,0.3-3.7-1.5-4.4
		C61.9,263.9,49,261.1,33.4,266.6z"/>
	<path class="st8" d="M51,275.5c0-1.4,1.1,6.8-27.8,16.7"/>
</g>
<g>
	<g>
		<line class="st9" x1="174.2" y1="378.6" x2="169.7" y2="374.7"/>
		<line class="st10" x1="160.7" y1="367" x2="21.7" y2="248.6"/>
		<line class="st9" x1="17.2" y1="244.8" x2="12.6" y2="240.9"/>
	</g>
</g>
<g>
	<path id="path1317_00000013177402082359716090000011826111779853773448_" class="st11" d="M111,282c-14.3,16.8-17.6,25.5-17.6,26.6
		c0,2,3.3,5.5,5.2,7.1c1.8,1.6,5.7,4.4,7.8,4.1c1.1-0.1,9.2-4.6,23.8-21.1c11-12.3,13.2-25.4,13.6-31.6c0.1-1.9-1.6-3.4-3.5-3
		C134.3,265.4,121.7,269.5,111,282z"/>
	<path class="st8" d="M130.7,280.9c-0.7-1.2,8.9,9.8-20,31.3"/>
</g>
<path class="st12" d="M25.2,221.3c5.1,0,15.4,0,15.4,0l23.5,36.9L61.3,221c0,0,73.4,0.3,106.5,0.3c0.7,0,4.2-0.1,7-2.3
	c1.8-1.4,2.9-3.4,2.9-5.6v-9.2c0-4.4-4.4-7.9-9.9-7.9H25.2c-5.5,0-9.9,3.6-9.9,7.9v9.2C15.2,217.7,19.7,221.3,25.2,221.3z"/>
<text transform="matrix(1 0 0 1 21.0898 214.2738)" class="st13 st14 st3">“I need mark-room!”</text>
<path class="st15" d="M95.1,180.2"/>
<path class="st16" d="M143,253.5c5.1,0,15.3,0,15.3,0l-5.8,20l26.3-20.4c0,0,72.7,0.3,105.5,0.3c0.7,0,4.1-0.1,7-2.3
	c1.8-1.4,2.9-3.4,2.9-5.6v-9.2c0-4.4-4.4-7.9-9.8-7.9H143c-5.4,0-9.8,3.6-9.8,7.9v9.2C133.2,250,137.6,253.5,143,253.5z"/>
<text transform="matrix(1 0 0 1 146.7653 246.6783)" class="st17 st14 st3">“OK, giving room.”</text>
<path id="path1317_00000001626342459417705030000014968348285088923021_" class="st18" d="M60.4,96.2c22-1.5,30.5-5.1,31.3-5.9
	c1.5-1.4,1.6-6.2,1.5-8.6c-0.2-2.4-0.9-7.2-2.5-8.4c-0.9-0.7-9.7-3.4-31.8-2.4c-16.5,0.7-27.4,8.2-32.1,12.2
	c-1.5,1.3-1.3,3.5,0.3,4.6C32.3,91.1,44,97.3,60.4,96.2z"/>
<path id="path1317_00000149382868289508930510000004295788303968221356_" class="st18" d="M127.1,94.4c22.1-0.2,30.7-3.4,31.6-4.1
	c1.5-1.4,2-6.1,2-8.6c0-2.4-0.4-7.2-2-8.6c-0.8-0.7-9.5-3.9-31.6-4.2c-16.5-0.2-27.8,6.7-32.7,10.4c-1.5,1.2-1.5,3.4,0,4.6
	C99.2,87.8,110.6,94.6,127.1,94.4z"/>
<path id="path1317_00000152977134369279196520000004090396356190554002_" class="st18" d="M194.5,94.4c22.1-0.2,30.7-3.4,31.6-4.1
	c1.5-1.4,2-6.1,2-8.6c0-2.4-0.4-7.2-2-8.6c-0.8-0.7-9.5-3.9-31.6-4.2c-16.5-0.2-27.8,6.7-32.7,10.4c-1.5,1.2-1.5,3.4,0,4.6
	C166.7,87.8,178,94.6,194.5,94.4z"/>
<text transform="matrix(1 0 0 1 69.7019 114.172)" class="st19 st14 st3">3 Hull Lengths</text>
</svg>
