<?xml version="1.0" encoding="utf-8"?>
<!-- Generator: Adobe Illustrator 27.5.0, SVG Export Plug-In . SVG Version: 6.00 Build 0)  -->
<svg version="1.1" id="Layer_1" xmlns="http://www.w3.org/2000/svg" xmlns:xlink="http://www.w3.org/1999/xlink" x="0px" y="0px"
	 viewBox="0 0 842 295" style="enable-background:new 0 0 842 295;" xml:space="preserve">
<style type="text/css">
	.st0{fill:none;stroke:#FFDE17;stroke-width:2;stroke-miterlimit:7.0169;stroke-dasharray:11.9252,11.9252;}
	.st1{fill:#FFF200;stroke:#010101;stroke-width:2;stroke-miterlimit:10;}
	.st2{fill:#F26522;stroke:#010101;stroke-width:2;stroke-miterlimit:7.0169;}
	.st3{fill:none;stroke:#010101;stroke-width:2;stroke-miterlimit:7.0169;}
	.st4{fill:none;stroke:#00AEEF;stroke-width:2;stroke-miterlimit:7.0169;stroke-dasharray:11.7791,11.7791;}
	.st5{fill:#00AEEF;stroke:#010101;stroke-width:2;stroke-miterlimit:7.0169;}
	.st6{fill:none;stroke:#F26522;stroke-miterlimit:7.0169;}
	.st7{opacity:0.3;fill:none;stroke:#00AEEF;stroke-width:2;stroke-miterlimit:7.0169;}
	.st8{opacity:0.5;fill:#00AEEF;enable-background:new    ;}
	.st9{font-family:'MyriadPro-Regular';}
	.st10{font-size:18px;}
	.st11{opacity:0.3;fill:none;stroke:#F26522;stroke-width:2;stroke-miterlimit:7.0169;}
	.st12{opacity:0.5;fill:#F26522;enable-background:new    ;}
</style>
<g>
	<circle class="st0" cx="223" cy="49.7" r="216.4"/>
</g>
<circle class="st1" cx="222.9" cy="49.7" r="11.1"/>
<path id="path1317_00000134934487493084475570000006058517342375187857_" class="st2" d="M37.9,256.4c-14.8,5.2-20,9.4-20.3,10.1
	c-0.7,1.3,0.1,4.6,0.6,6.2c0.6,1.6,2,4.8,3.3,5.3c0.7,0.3,7.3,0.5,22.3-4.4c11.2-3.7,17.3-10.9,19.7-14.5c0.8-1.1,0.2-2.6-1.1-3.1
	C58.2,254.5,49,252.5,37.9,256.4z"/>
<path class="st3" d="M50.4,262.7c0-1,0.8,4.8-19.8,11.9"/>
<g>
	<g>
		<path class="st4" d="M3.7,217.6"/>
	</g>
</g>
<path id="path1317_00000013177402082359716090000011826111779853773448_" class="st5" d="M93,251c-14.3,16.8-17.6,25.5-17.6,26.6
	c0,2,3.3,5.5,5.2,7.1c1.8,1.6,5.7,4.4,7.8,4.1c1.1-0.1,9.2-4.6,23.8-21.1c11-12.3,13.2-25.4,13.6-31.6c0.1-1.9-1.6-3.4-3.5-3
	C116.3,234.4,103.7,238.5,93,251z"/>
<path class="st3" d="M112.7,249.9c-0.7-1.2,8.9,9.8-20,31.3"/>
<path class="st6" d="M77.1,149.2"/>
<path id="path1317_00000001626342459417705030000014968348285088923021_" class="st7" d="M271.5,62.5c22-1.5,30.5-5.1,31.3-5.9
	c1.5-1.4,1.6-6.2,1.5-8.6c-0.2-2.4-0.9-7.2-2.5-8.4c-0.9-0.7-9.7-3.4-31.8-2.4c-16.5,0.7-27.4,8.2-32.1,12.2
	c-1.5,1.3-1.3,3.5,0.3,4.6C243.4,57.4,255.1,63.6,271.5,62.5z"/>
<path id="path1317_00000149382868289508930510000004295788303968221356_" class="st7" d="M338.2,60.7c22.1-0.2,30.7-3.4,31.6-4.1
	c1.5-1.4,2-6.1,2-8.6c0-2.4-0.4-7.2-2-8.6c-0.8-0.7-9.5-3.9-31.6-4.2c-16.5-0.2-27.8,6.7-32.7,10.4c-1.5,1.2-1.5,3.4,0,4.6
	C310.3,54.1,321.7,60.9,338.2,60.7z"/>
<path id="path1317_00000152977134369279196520000004090396356190554002_" class="st7" d="M405.6,60.7c22.1-0.2,30.7-3.4,31.6-4.1
	c1.5-1.4,2-6.1,2-8.6c0-2.4-0.4-7.2-2-8.6c-0.8-0.7-9.5-3.9-31.6-4.2c-16.5-0.2-27.8,6.7-32.7,10.4c-1.5,1.2-1.5,3.4,0,4.6
	C377.8,54.1,389.1,60.9,405.6,60.7z"/>
<text transform="matrix(1 0 0 1 275.3789 26.1889)" class="st8 st9 st10">3 Hull Lengths</text>
<g>
	<circle class="st0" cx="668.9" cy="51.1" r="160.7"/>
</g>
<circle class="st1" cx="668.9" cy="49.2" r="11.1"/>
<g>
	<path id="path1317_00000168095139428223040930000017259177701630191005_" class="st2" d="M570.8,187.2c-14.8,5.2-20,9.4-20.3,10.1
		c-0.7,1.3,0.1,4.6,0.6,6.2c0.6,1.6,2,4.8,3.3,5.3c0.7,0.3,7.3,0.5,22.3-4.4c11.2-3.7,17.3-10.9,19.7-14.5c0.8-1.1,0.2-2.6-1.1-3.1
		C591.1,185.3,581.9,183.3,570.8,187.2z"/>
	<path class="st3" d="M583.3,193.6c0-1,0.8,4.8-19.8,11.9"/>
</g>
<g>
	<g>
		<path class="st4" d="M449.7,217.1"/>
	</g>
</g>
<g>
	<path id="path1317_00000043458957313938995920000017364480214061515665_" class="st5" d="M555.9,239.9
		c-14.3,16.8-17.6,25.5-17.6,26.6c0,2,3.3,5.5,5.2,7.1c1.8,1.6,5.7,4.4,7.8,4.1c1.1-0.1,9.2-4.6,23.8-21.1
		c11-12.3,13.2-25.4,13.6-31.6c0.1-1.9-1.6-3.4-3.5-3C579.2,223.3,566.6,227.4,555.9,239.9z"/>
	<path class="st3" d="M575.6,238.8c-0.7-1.2,8.9,9.8-20,31.3"/>
</g>
<path class="st6" d="M523.1,148.7"/>
<path id="path1317_00000041266554222645498590000001862145927712024221_" class="st11" d="M708.2,62c16.1-1.3,22.3-4.4,22.9-5.1
	c1.1-1.2,1.2-5.4,1.1-7.4c-0.1-2.1-0.7-6.2-1.8-7.3c-0.7-0.6-7.1-2.9-23.3-2.1c-12.1,0.6-20,7.1-23.5,10.5c-1.1,1.1-1,3,0.2,4
	C687.7,57.6,696.2,63,708.2,62z"/>
<path id="path1317_00000021080562220013014770000006350892834915452293_" class="st11" d="M757,60.5c16.2-0.2,22.5-2.9,23.1-3.5
	c1.1-1.2,1.5-5.3,1.5-7.4c0-2.1-0.3-6.2-1.5-7.4c-0.6-0.6-7-3.4-23.1-3.6c-12.1-0.2-20.3,5.8-23.9,9c-1.1,1-1.1,2.9,0,4
	C736.6,54.8,744.9,60.6,757,60.5z"/>
<path id="path1317_00000056408380898746386900000010436906401042468790_" class="st11" d="M806.3,60.5c16.2-0.2,22.5-2.9,23.1-3.5
	c1.1-1.2,1.5-5.3,1.5-7.4c0-2.1-0.3-6.2-1.5-7.4c-0.6-0.6-7-3.4-23.1-3.6c-12.1-0.2-20.3,5.8-23.9,9c-1.1,1-1.1,2.9,0,4
	C786,54.8,794.2,60.6,806.3,60.5z"/>
<text transform="matrix(1 0 0 1 697.0502 35.1956)" class="st12 st9 st10">3 Hull Lengths</text>
</svg>
