<?xml version="1.0" encoding="utf-8"?>
<!-- Generator: Adobe Illustrator 27.4.1, SVG Export Plug-In . SVG Version: 6.00 Build 0)  -->
<svg version="1.1" id="Layer_1" xmlns="http://www.w3.org/2000/svg" xmlns:xlink="http://www.w3.org/1999/xlink" x="0px" y="0px"
	 viewBox="0 0 655.3 589.4" style="enable-background:new 0 0 655.3 589.4;" xml:space="preserve">
<style type="text/css">
	.st0{fill:url(#path1471_00000060017602790532469780000008332019364926951343_);}
	.st1{fill:url(#path1471_00000151507549481249846530000004590113220628382346_);}
	.st2{fill:#F1F2F2;stroke:#808080;stroke-width:0.2835;stroke-miterlimit:7.0169;}
	.st3{fill:url(#path1471_00000075142868897742749100000012884287815286328466_);}
	.st4{fill:url(#path1471_00000086675539365346131370000003465848385443200669_);}
	.st5{fill:url(#path1471_00000020400128344788554570000007834787252420117173_);}
	.st6{fill:#D1D3D4;stroke:#010101;stroke-width:0.2835;stroke-miterlimit:7.0169;}
	.st7{fill:none;stroke:#000000;stroke-width:2;stroke-miterlimit:7.0169;stroke-dasharray:2.9424,2.9424;}
	.st8{fill:none;stroke:#000000;stroke-width:2.6297;stroke-miterlimit:10;}
	.st9{fill:#895322;stroke:#010101;stroke-width:0.2806;stroke-miterlimit:11.3386;}
	.st10{fill:#895322;stroke:#010101;stroke-width:0.282;stroke-miterlimit:11.3386;}
	.st11{fill:#895322;stroke:#010101;stroke-width:0.5554;stroke-miterlimit:11.3386;}
	.st12{fill:#895322;stroke:#010101;stroke-width:0.519;stroke-miterlimit:11.3386;}
	.st13{fill:#895322;stroke:#010101;stroke-width:0.4521;stroke-miterlimit:11.3386;}
	.st14{fill:#895322;stroke:#010101;stroke-width:0.4523;stroke-miterlimit:11.3386;}
	.st15{fill:#333333;}
	.st16{font-family:'Georgia-Bold';}
	.st17{font-size:23px;}
</style>
<radialGradient id="path1471_00000116938089023854319800000007510938445443401887_" cx="-622.1478" cy="554.2569" r="45.2113" gradientTransform="matrix(1.753 -6.470034e-02 -2.036605e-02 -0.5518 1315.0065 530.222)" gradientUnits="userSpaceOnUse">
	<stop  offset="0.292" style="stop-color:#548DC6"/>
	<stop  offset="1" style="stop-color:#689ED4;stop-opacity:0"/>
</radialGradient>
<path id="path1471_00000062155684097577230220000008890237217511636119_" style="fill:url(#path1471_00000116938089023854319800000007510938445443401887_);" d="
	M203.7,241.1c-41.3,1.9-57.2,8.6-58.7,10.1c-2.8,2.7-3.3,11.8-3.1,16.4c0.2,4.6,1.3,13.7,4.3,16.2c1.6,1.3,18,6.8,59.3,5.8
	c40.6-1,88.7-25.5,90.3-27.5C286.8,252.8,353.7,234.1,203.7,241.1z"/>
<radialGradient id="path1471_00000142854920151262645930000011546236540180337548_" cx="-626.3906" cy="617.3284" r="25.7465" gradientTransform="matrix(0.7349 -1.5929 -0.5014 -0.2313 884.464 -580.3379)" gradientUnits="userSpaceOnUse">
	<stop  offset="0.292" style="stop-color:#548DC6"/>
	<stop  offset="1" style="stop-color:#689ED4;stop-opacity:0"/>
</radialGradient>
<path id="path1471_00000033330712754847522690000009899791713255559318_" style="fill:url(#path1471_00000142854920151262645930000011546236540180337548_);" d="
	M145.8,236.6c-12.3,3.8,1.2-64.3-60.3,72.7"/>
<path id="path3235_00000153673403057508084330000017239913785716168124_" class="st2" d="M92.1,297c-15.3,38.4-15.8,55.7-15.1,57.6
	c1.3,3.6,9.4,7.9,13.7,9.6c4.3,1.7,13,4.4,16.5,2.8c1.9-0.9,13.7-13.6,29.8-51.6c15.9-37.4,13.4-91.3,12.3-93.6
	C146.7,222.7,107.1,259.3,92.1,297z"/>
<radialGradient id="path1471_00000041274205660306718280000018307318322762177410_" cx="-769.1122" cy="-30.0041" r="43.9014" gradientTransform="matrix(1.6471 0.6035 0.19 -0.5185 1768.8488 722.2943)" gradientUnits="userSpaceOnUse">
	<stop  offset="0.292" style="stop-color:#548DC6"/>
	<stop  offset="1" style="stop-color:#689ED4;stop-opacity:0"/>
</radialGradient>
<path id="path1471_00000094602067081937716360000013686773307319372938_" style="fill:url(#path1471_00000041274205660306718280000018307318322762177410_);" d="
	M499.8,249.5c-38.9-13.8-56.2-13.7-58.2-12.9c-3.6,1.4-7.5,9.7-9.1,14c-1.6,4.3-3.9,13.2-2.1,16.6c1,1.9,14.1,13.1,52.7,27.8
	c38,14.4,91.7,9.9,94,8.7C576.1,301.3,538.1,263.1,499.8,249.5z"/>
<path id="path3235_00000022548091766834723960000004178076741285801890_" class="st2" d="M496.2,251.4c-41.3,0.1-57.5,6.1-59.1,7.4
	c-2.9,2.6-3.8,11.7-3.9,16.3c0,4.6,0.7,13.7,3.6,16.3c1.5,1.4,17.7,7.6,59,8.4c40.6,0.8,89.7-21.6,91.5-23.5
	C585.6,274.5,536.9,251.3,496.2,251.4z"/>
<radialGradient id="path1471_00000114790692619579121690000006612534055376427939_" cx="-761.4706" cy="710.7471" r="43.9014" gradientTransform="matrix(3.819594e-02 -1.7538 -0.5521 -1.202313e-02 510.3101 -893.5348)" gradientUnits="userSpaceOnUse">
	<stop  offset="0.292" style="stop-color:#548DC6"/>
	<stop  offset="1" style="stop-color:#689ED4;stop-opacity:0"/>
</radialGradient>
<path id="path1471_00000104703982897875831800000011948457334372030351_" style="fill:url(#path1471_00000114790692619579121690000006612534055376427939_);" d="
	M64.9,437.9c-0.5,41.3,5.2,57.6,6.6,59.2c2.5,2.9,11.6,4,16.2,4.1c4.6,0.1,13.7-0.5,16.4-3.3c1.4-1.5,7.9-17.6,9.3-58.9
	c1.4-40.6-20.3-90-22.2-91.8C89.2,348.9,65.3,397.3,64.9,437.9z"/>
<radialGradient id="path1471_00000155109632100864963120000008854502102002405765_" cx="-544.5855" cy="-314.6479" r="43.9014" gradientTransform="matrix(-3.819594e-02 1.7538 0.5521 1.202313e-02 611.2229 1035.4535)" gradientUnits="userSpaceOnUse">
	<stop  offset="0.292" style="stop-color:#548DC6"/>
	<stop  offset="1" style="stop-color:#689ED4;stop-opacity:0"/>
</radialGradient>
<path id="path1471_00000070096505004304849410000010308298781772856470_" style="fill:url(#path1471_00000155109632100864963120000008854502102002405765_);" d="
	M482.3,72c0.5-41.3-5.2-57.6-6.6-59.2c-2.5-2.9-11.6-4-16.2-4.1c-4.6-0.1-13.7,0.5-16.4,3.3c-1.4,1.5-7.9,17.6-9.3,58.9
	c-1.4,40.6,20.3,90,22.2,91.8C458,161,481.8,112.7,482.3,72z"/>
<path id="path3235_00000177460458528775462900000010415605581158343057_" class="st2" d="M217.6,241.4
	c-41.1,3.7-56.8,11.1-58.2,12.6c-2.7,2.8-2.8,11.9-2.4,16.5c0.4,4.6,1.9,13.6,5,16c1.7,1.3,18.3,6.1,59.5,3.3
	c40.5-2.8,87.5-29.3,89.1-31.4C308.6,256.6,258,237.8,217.6,241.4z"/>
<path id="path3235_00000078750963438369641440000001151627310213452473_" class="st2" d="M477.8,89.9c-0.1-41.3-6.1-57.5-7.4-59.1
	c-2.6-2.9-11.7-3.8-16.3-3.9c-4.6,0-13.7,0.7-16.3,3.6c-1.4,1.5-7.6,17.7-8.4,59c-0.8,40.6,21.6,89.7,23.5,91.5
	C454.7,179.3,477.9,130.6,477.8,89.9z"/>
<path id="path3235_00000087400470097155145670000004877574558863805598_" class="st6" d="M64.9,473.5c0.1,41.3,6.1,57.5,7.4,59.1
	c2.6,2.9,11.7,3.8,16.3,3.9c4.6,0,13.7-0.7,16.3-3.6c1.4-1.5,7.6-17.7,8.4-59c0.8-40.6-21.6-89.7-23.5-91.5
	C87.9,384.1,64.8,432.8,64.9,473.5z"/>
<g>
	<g>
		<path class="st7" d="M91.3,460.3c9.5-71.1,9.8-210.2,122.6-195.7c77,9.9,163.9-11.2,199.9,0.7c53.2,17.6,97.5-30.3,89.6,10.3
			c-23.4,36.3-54.2-73.5-50.7-169.2"/>
		<g>
			<polygon points="101.6,458.9 89.1,474.5 81.8,455.9 			"/>
		</g>
		<g>
			<polygon points="463.5,92 452.7,108.2 443.6,91 			"/>
		</g>
	</g>
</g>
<g>
	<g>
		<g>
			<line class="st8" x1="600" y1="212.9" x2="532" y2="212.9"/>
			<g>
				<polygon points="536.3,206.7 512.9,212.9 536.3,219.2 				"/>
			</g>
		</g>
	</g>
	<path class="st8" d="M600,217.2c-8.2,0-16.7-0.8-20,2c-4.7,3.9,0.9,11.5,7,5.6"/>
	<path class="st8" d="M600,208.7c-8.2,0-37.3,1.2-41.7-1.3c-6.3-3.5-0.4-12.3,6.6-7.1"/>
</g>
<rect id="rect4109_00000044882406907205199170000004741342279474615997_" x="350.1" y="401.1" class="st9" width="36.5" height="146.8"/>
<rect id="rect4109_00000025402858131285112590000007029377394326808201_" x="234.9" y="401.1" class="st9" width="36.5" height="146.8"/>
<rect id="rect4109_00000011020950915220452340000002801354423982051005_" x="350.1" y="45.3" class="st10" width="36.5" height="148.3"/>
<rect id="rect4109_00000093868584958327955000000000356282245348396697_" x="609.4" y="8.7" class="st11" width="36.5" height="575.2"/>
<rect id="rect4109_00000029741115371431066820000014040850579432924340_" x="5.2" y="45.2" class="st12" width="36.5" height="502.2"/>
<rect id="rect4109_00000067957002060582544490000009394885783616656298_" x="5.2" y="547.4" class="st13" width="381.1" height="36.5"/>
<rect id="rect4109_00000160881842337411645640000005057655445862743484_" x="5" y="8.7" class="st14" width="381.4" height="36.5"/>
<rect id="rect4109_00000075842676630546760330000013578958255198045621_" x="120.1" y="401.1" class="st9" width="36.5" height="146.8"/>
<text transform="matrix(1 0 0 1 442.3897 530.5975)"><tspan x="0" y="0" class="st15 st16 st17">Wide Main</tspan><tspan x="0" y="27.6" class="st15 st16 st17">Fairway</tspan></text>
<text transform="matrix(1 0 0 1 180.8196 367.5487)" class="st15 st16 st17">Narrow Side Fairway</text>
<text transform="matrix(1 0 0 1 437.5495 66.386)" class="st15 st16 st17">(a)</text>
<text transform="matrix(1 0 0 1 470.5188 326.6334)" class="st15 st16 st17">(b)</text>
<text transform="matrix(1 0 0 1 181.1649 231.2594)" class="st15 st16 st17">(c)</text>
<rect id="rect4109_00000111163999722788454610000004392280510674640288_" x="227.2" y="45.3" class="st10" width="36.5" height="148.3"/>
<rect id="rect4109_00000069398786681567575720000003691024590705675669_" x="120.1" y="45.3" class="st10" width="36.5" height="148.3"/>
<text transform="matrix(1 0 0 1 52.2634 305.3546)" class="st15 st16 st17">(d)</text>
</svg>
