<?xml version="1.0" encoding="utf-8"?>
<!-- Generator: Adobe Illustrator 27.4.1, SVG Export Plug-In . SVG Version: 6.00 Build 0)  -->
<svg version="1.1" id="Layer_1" xmlns="http://www.w3.org/2000/svg" xmlns:xlink="http://www.w3.org/1999/xlink" x="0px" y="0px"
	 viewBox="0 0 655.3 589.4" style="enable-background:new 0 0 655.3 589.4;" xml:space="preserve">
<style type="text/css">
	.st0{fill:url(#path1471_00000176740843935969135040000014537163359359770538_);}
	.st1{fill:url(#path1471_00000078042008022408710110000018442091603530733734_);}
	.st2{fill:#F1F2F2;stroke:#808080;stroke-width:0.2835;stroke-miterlimit:7.0169;}
	.st3{fill:url(#path1471_00000029043741527241427260000006563940466812069511_);}
	.st4{fill:url(#path1471_00000062174120736669959300000003967974619647919245_);}
	.st5{fill:url(#path1471_00000011013357348761529140000008765607382609331127_);}
	.st6{fill:#D1D3D4;stroke:#010101;stroke-width:0.2835;stroke-miterlimit:7.0169;}
	.st7{fill:none;stroke:#000000;stroke-width:2;stroke-miterlimit:7.0169;stroke-dasharray:2.9424,2.9424;}
	.st8{fill:none;stroke:#000000;stroke-width:2.6297;stroke-miterlimit:10;}
	.st9{fill:#895322;stroke:#010101;stroke-width:0.2806;stroke-miterlimit:11.3386;}
	.st10{fill:#895322;stroke:#010101;stroke-width:0.282;stroke-miterlimit:11.3386;}
	.st11{fill:#895322;stroke:#010101;stroke-width:0.5554;stroke-miterlimit:11.3386;}
	.st12{fill:#895322;stroke:#010101;stroke-width:0.519;stroke-miterlimit:11.3386;}
	.st13{fill:#895322;stroke:#010101;stroke-width:0.4521;stroke-miterlimit:11.3386;}
	.st14{fill:#895322;stroke:#010101;stroke-width:0.4523;stroke-miterlimit:11.3386;}
	.st15{fill:#333333;}
	.st16{font-family:'Georgia-Bold';}
	.st17{font-size:23px;}
</style>
<radialGradient id="path1471_00000182508985186294527500000008662273419766266803_" cx="-757.5803" cy="-96.6152" r="43.9014" gradientTransform="matrix(1.6536 0.5857 0.1844 -0.5205 1773.5864 708.615)" gradientUnits="userSpaceOnUse">
	<stop  offset="0.292" style="stop-color:#548DC6"/>
	<stop  offset="1" style="stop-color:#689ED4;stop-opacity:0"/>
</radialGradient>
<path id="path1471_00000094602067081937716360000013686773307319372938_" style="fill:url(#path1471_00000182508985186294527500000008662273419766266803_);" d="
	M506.3,291c-39.1-13.4-56.4-13.1-58.3-12.3c-3.6,1.5-7.4,9.8-9,14.1c-1.5,4.4-3.8,13.2-2,16.6c1,1.8,14.2,13,53,27.2
	c38.1,14,91.8,8.9,94.1,7.7C583.2,342,544.7,304.2,506.3,291z"/>
<radialGradient id="path1471_00000123409751576155976090000000017132789477302941_" cx="-601.2159" cy="197.1663" r="43.9014" gradientTransform="matrix(0.5309 -1.6719 -0.5263 -0.1671 855.8764 -689.5385)" gradientUnits="userSpaceOnUse">
	<stop  offset="0.292" style="stop-color:#548DC6"/>
	<stop  offset="1" style="stop-color:#689ED4;stop-opacity:0"/>
</radialGradient>
<path id="path1471_00000091004235167737133860000011934948719654309771_" style="fill:url(#path1471_00000123409751576155976090000000017132789477302941_);" d="
	M408.6,280.3c-12.1,39.5-11.2,56.8-10.4,58.7c1.6,3.5,10,7.1,14.4,8.5c4.4,1.4,13.3,3.4,16.7,1.4c1.8-1.1,12.5-14.6,25.5-53.9
	c12.8-38.6,5.9-92.1,4.6-94.3C457,201.8,420.5,241.5,408.6,280.3z"/>
<path id="path3235_00000163770371449932536840000002349954334312537473_" class="st2" d="M402.8,302.9c-8.4,40.5-5.9,57.6-4.9,59.4
	c1.9,3.4,10.6,6.1,15.1,7.1c4.5,1,13.6,2.1,16.7-0.1c1.7-1.2,11.1-15.7,20.4-56c9.1-39.6-2.6-92.2-4.1-94.3
	C443.7,220.3,411,263.2,402.8,302.9z"/>
<path id="path3235_00000022548091766834723960000004178076741285801890_" class="st2" d="M499.2,288.1c-41.3,0.1-57.5,6.1-59.1,7.4
	c-2.9,2.6-3.8,11.7-3.9,16.3c0,4.6,0.7,13.7,3.6,16.3c1.5,1.4,17.7,7.6,59,8.4c40.6,0.8,89.7-21.6,91.5-23.5
	C588.6,311.2,539.9,288,499.2,288.1z"/>
<radialGradient id="path1471_00000107566959431195278110000008941703756679797385_" cx="-756.2527" cy="300.6479" r="43.9014" gradientTransform="matrix(3.819594e-02 -1.7538 -0.5521 -1.202313e-02 510.3101 -893.5348)" gradientUnits="userSpaceOnUse">
	<stop  offset="0.292" style="stop-color:#548DC6"/>
	<stop  offset="1" style="stop-color:#689ED4;stop-opacity:0"/>
</radialGradient>
<path id="path1471_00000104703982897875831800000011948457334372030351_" style="fill:url(#path1471_00000107566959431195278110000008941703756679797385_);" d="
	M291.5,433.7c-0.5,41.3,5.2,57.6,6.6,59.2c2.5,2.9,11.6,4,16.2,4.1c4.6,0.1,13.7-0.5,16.4-3.3c1.4-1.5,7.9-17.6,9.3-58.9
	c1.4-40.6-20.3-90-22.2-91.8C315.8,344.7,291.9,393.1,291.5,433.7z"/>
<radialGradient id="path1471_00000152961453397913407970000010541672679480647054_" cx="-616.6302" cy="325.7136" r="43.9014" gradientTransform="matrix(0.5309 -1.6719 -0.5263 -0.1671 855.8764 -689.5385)" gradientUnits="userSpaceOnUse">
	<stop  offset="0.292" style="stop-color:#548DC6"/>
	<stop  offset="1" style="stop-color:#689ED4;stop-opacity:0"/>
</radialGradient>
<path id="path1471_00000062155684097577230220000008890237217511636119_" style="fill:url(#path1471_00000152961453397913407970000010541672679480647054_);" d="
	M332.8,284.6c-12.1,39.5-11.2,56.8-10.4,58.7c1.6,3.5,10,7.1,14.4,8.5c4.4,1.4,13.3,3.4,16.7,1.4c1.8-1.1,12.5-14.6,25.5-53.9
	c12.8-38.6,5.9-92.1,4.6-94.3C381.2,206.1,344.7,245.7,332.8,284.6z"/>
<radialGradient id="path1471_00000088840980505764160810000015307075609508499363_" cx="-544.5855" cy="-314.6479" r="43.9014" gradientTransform="matrix(-3.819594e-02 1.7538 0.5521 1.202313e-02 611.2229 1035.4535)" gradientUnits="userSpaceOnUse">
	<stop  offset="0.292" style="stop-color:#548DC6"/>
	<stop  offset="1" style="stop-color:#689ED4;stop-opacity:0"/>
</radialGradient>
<path id="path1471_00000070096505004304849410000010308298781772856470_" style="fill:url(#path1471_00000088840980505764160810000015307075609508499363_);" d="
	M482.3,72c0.5-41.3-5.2-57.6-6.6-59.2c-2.5-2.9-11.6-4-16.2-4.1c-4.6-0.1-13.7,0.5-16.4,3.3c-1.4,1.5-7.9,17.6-9.3,58.9
	c-1.4,40.6,20.3,90,22.2,91.8C458,161,481.8,112.7,482.3,72z"/>
<path id="path3235_00000177460458528775462900000010415605581158343057_" class="st2" d="M326.9,307.2c-8.4,40.5-5.9,57.6-4.9,59.4
	c1.9,3.4,10.6,6.1,15.1,7.1c4.5,1,13.6,2.1,16.7-0.1c1.7-1.2,11.1-15.7,20.4-56c9.1-39.6-2.6-92.2-4.1-94.3
	C367.9,224.5,335.2,267.5,326.9,307.2z"/>
<path id="path3235_00000078750963438369641440000001151627310213452473_" class="st2" d="M477.8,89.9c-0.1-41.3-6.1-57.5-7.4-59.1
	c-2.6-2.9-11.7-3.8-16.3-3.9c-4.6,0-13.7,0.7-16.3,3.6c-1.4,1.5-7.6,17.7-8.4,59c-0.8,40.6,21.6,89.7,23.5,91.5
	C454.7,179.3,477.9,130.6,477.8,89.9z"/>
<path id="path3235_00000087400470097155145670000004877574558863805598_" class="st6" d="M291.5,473.5c0.1,41.3,6.1,57.5,7.4,59.1
	c2.6,2.9,11.7,3.8,16.3,3.9c4.6,0,13.7-0.7,16.3-3.6c1.4-1.5,7.6-17.7,8.4-59c0.8-40.6-21.6-89.7-23.5-91.5
	C314.5,384.1,291.4,432.8,291.5,473.5z"/>
<g>
	<g>
		<path class="st7" d="M315.9,460.1c1.7-56.5,13-170.4,43.6-180.6c27-9,33.2,0,65.5,19.6c49.2,29.8,85.1-19.4,77.3,21.1
			C479,356.5,449,206.1,452.7,106.4"/>
		<g>
			<polygon points="326.1,457.4 315.7,474.5 306.1,457 			"/>
		</g>
		<g>
			<polygon points="463.5,92 452.7,108.2 443.6,91 			"/>
		</g>
	</g>
</g>
<g>
	<g>
		<g>
			<line class="st8" x1="597.3" y1="279.6" x2="529.4" y2="279.6"/>
			<g>
				<polygon points="533.6,273.4 510.3,279.6 533.6,285.9 				"/>
			</g>
		</g>
	</g>
	<path class="st8" d="M597.3,283.9c-8.2,0-16.7-0.8-20,2c-4.7,3.9,0.9,11.5,7,5.6"/>
	<path class="st8" d="M597.3,275.4c-8.2,0-37.3,1.2-41.7-1.3c-6.3-3.5-0.4-12.3,6.6-7.1"/>
</g>
<rect id="rect4109_00000044882406907205199170000004741342279474615997_" x="350.1" y="401.1" class="st9" width="36.5" height="146.8"/>
<rect id="rect4109_00000025402858131285112590000007029377394326808201_" x="234.9" y="401.1" class="st9" width="36.5" height="146.8"/>
<rect id="rect4109_00000011020950915220452340000002801354423982051005_" x="350.1" y="45.3" class="st10" width="36.5" height="148.3"/>
<rect id="rect4109_00000093868584958327955000000000356282245348396697_" x="609.4" y="8.7" class="st11" width="36.5" height="575.2"/>
<rect id="rect4109_00000029741115371431066820000014040850579432924340_" x="5.2" y="45.2" class="st12" width="36.5" height="502.2"/>
<rect id="rect4109_00000067957002060582544490000009394885783616656298_" x="5.2" y="547.4" class="st13" width="381.1" height="36.5"/>
<rect id="rect4109_00000160881842337411645640000005057655445862743484_" x="5" y="8.7" class="st14" width="381.4" height="36.5"/>
<rect id="rect4109_00000075842676630546760330000013578958255198045621_" x="120.1" y="401.1" class="st9" width="36.5" height="146.8"/>
<text transform="matrix(1 0 0 1 442.3897 530.5975)"><tspan x="0" y="0" class="st15 st16 st17">Wide Main</tspan><tspan x="0" y="27.6" class="st15 st16 st17">Fairway</tspan></text>
<text transform="matrix(1 0 0 1 49.1568 358.3714)" class="st15 st16 st17">Narrow Side Fairway</text>
<text transform="matrix(1 0 0 1 437.5495 66.386)" class="st15 st16 st17">(a)</text>
<text transform="matrix(1 0 0 1 491.9691 363.3619)" class="st15 st16 st17">(b)</text>
<text transform="matrix(1 0 0 1 339.9444 320.2128)" class="st15 st16 st17">(d)</text>
<text transform="matrix(1 0 0 1 405.2781 329.5194)" class="st15 st16 st17">(c)</text>
<rect id="rect4109_00000111163999722788454610000004392280510674640288_" x="227.2" y="45.3" class="st10" width="36.5" height="148.3"/>
<rect id="rect4109_00000069398786681567575720000003691024590705675669_" x="120.1" y="45.3" class="st10" width="36.5" height="148.3"/>
</svg>
