<?xml version="1.0" encoding="utf-8"?>
<!-- Generator: Adobe Illustrator 27.4.1, SVG Export Plug-In . SVG Version: 6.00 Build 0)  -->
<svg version="1.1" id="Layer_1" xmlns="http://www.w3.org/2000/svg" xmlns:xlink="http://www.w3.org/1999/xlink" x="0px" y="0px"
	 viewBox="0 0 655.3 551.5" style="enable-background:new 0 0 655.3 551.5;" xml:space="preserve">
<style type="text/css">
	.st0{fill:#F1F2F2;stroke:#808080;stroke-width:0.2835;stroke-miterlimit:7.0169;}
	.st1{fill:url(#path1471_00000000904763059627742330000003092282269593232305_);}
	.st2{fill:url(#path1471_00000053516200642819170840000017252353228366437039_);}
	.st3{fill:url(#path1471_00000063624440301612474250000010316283524689351844_);}
	.st4{fill:url(#path1471_00000164475539171992924240000011339469528500561561_);}
	.st5{fill:#D1D3D4;stroke:#010101;stroke-width:0.2835;stroke-miterlimit:7.0169;}
	.st6{fill:none;stroke:#000000;stroke-width:2;stroke-miterlimit:7.0169;stroke-dasharray:2.9424,2.9424;}
	.st7{fill:none;stroke:#000000;stroke-width:2.6297;stroke-miterlimit:10;}
	.st8{fill:#895322;stroke:#010101;stroke-width:0.2979;stroke-miterlimit:11.3386;}
	.st9{fill:#895322;stroke:#010101;stroke-width:0.5375;stroke-miterlimit:11.3386;}
	.st10{fill:#895322;stroke:#010101;stroke-width:0.519;stroke-miterlimit:11.3386;}
	.st11{fill:#895322;stroke:#010101;stroke-width:0.4521;stroke-miterlimit:11.3386;}
	.st12{fill:#895322;stroke:#010101;stroke-width:0.4523;stroke-miterlimit:11.3386;}
	.st13{fill:#333333;}
	.st14{font-family:'Georgia-Bold';}
	.st15{font-size:23px;}
</style>
<path id="path3235_00000022548091766834723960000004178076741285801890_" class="st0" d="M425.6,276.8c41.3-0.1,57.5-6.1,59.1-7.4
	c2.9-2.6,3.8-11.7,3.9-16.3c0-4.6-0.7-13.7-3.6-16.3c-1.5-1.4-17.7-7.6-59-8.4c-40.6-0.8-89.7,21.6-91.5,23.5
	C336.2,253.7,384.9,276.9,425.6,276.8z"/>
<radialGradient id="path1471_00000159446395544221760570000004252295109525226884_" cx="-734.9613" cy="-192.1988" r="43.9014" gradientTransform="matrix(3.819594e-02 -1.7538 -0.5521 -1.202313e-02 489.3846 -931.8955)" gradientUnits="userSpaceOnUse">
	<stop  offset="0.292" style="stop-color:#548DC6"/>
	<stop  offset="1" style="stop-color:#689ED4;stop-opacity:0"/>
</radialGradient>
<path id="path1471_00000094602067081937716360000013686773307319372938_" style="fill:url(#path1471_00000159446395544221760570000004252295109525226884_);" d="
	M543.4,363.9c-0.5,41.3,5.2,57.6,6.6,59.2c2.5,2.9,11.6,4,16.2,4.1c4.6,0.1,13.7-0.5,16.4-3.3c1.4-1.5,7.9-17.6,9.3-58.9
	c1.4-40.6-20.3-90-22.2-91.8C567.8,274.9,543.9,323.3,543.4,363.9z"/>
<radialGradient id="path1471_00000024687038170425899140000012098122205066276226_" cx="-781.97" cy="260.9636" r="43.9014" gradientTransform="matrix(3.819594e-02 -1.7538 -0.5521 -1.202313e-02 489.3846 -931.8955)" gradientUnits="userSpaceOnUse">
	<stop  offset="0.292" style="stop-color:#548DC6"/>
	<stop  offset="1" style="stop-color:#689ED4;stop-opacity:0"/>
</radialGradient>
<path id="path1471_00000104703982897875831800000011948457334372030351_" style="fill:url(#path1471_00000024687038170425899140000012098122205066276226_);" d="
	M291.5,440.9c-0.5,41.3,5.2,57.6,6.6,59.2c2.5,2.9,11.6,4,16.2,4.1c4.6,0.1,13.7-0.5,16.4-3.3c1.4-1.5,7.9-17.6,9.3-58.9
	c1.4-40.6-20.3-90-22.2-91.8C315.8,351.9,291.9,400.3,291.5,440.9z"/>
<radialGradient id="path1471_00000109004363885202066360000017170512094431475871_" cx="-643.3484" cy="538.093" r="43.9014" gradientTransform="matrix(-1.7525 7.785358e-02 2.450636e-02 0.5516 -928.6639 10.1285)" gradientUnits="userSpaceOnUse">
	<stop  offset="0.292" style="stop-color:#548DC6"/>
	<stop  offset="1" style="stop-color:#689ED4;stop-opacity:0"/>
</radialGradient>
<path id="path1471_00000062155684097577230220000008890237217511636119_" style="fill:url(#path1471_00000109004363885202066360000017170512094431475871_);" d="
	M218.1,280.5c41.3-2.2,57.2-9,58.6-10.5c2.7-2.7,3.2-11.8,3-16.4c-0.2-4.6-1.4-13.7-4.4-16.1c-1.6-1.3-18-6.7-59.3-5.4
	c-40.6,1.3-88.5,26.2-90.1,28.2C127.7,262.1,177.5,282.7,218.1,280.5z"/>
<radialGradient id="path1471_00000179641167483341958040000010506091993755400359_" cx="-603.6645" cy="-130.1982" r="43.9014" gradientTransform="matrix(3.819594e-02 -1.7538 -0.5521 -1.202313e-02 489.3846 -931.8955)" gradientUnits="userSpaceOnUse">
	<stop  offset="0.292" style="stop-color:#548DC6"/>
	<stop  offset="1" style="stop-color:#689ED4;stop-opacity:0"/>
</radialGradient>
<path id="path1471_00000070096505004304849410000010308298781772856470_" style="fill:url(#path1471_00000179641167483341958040000010506091993755400359_);" d="
	M514.2,132.9c-0.5,41.3,5.2,57.6,6.6,59.2c2.5,2.9,11.6,4,16.2,4.1c4.6,0.1,13.7-0.5,16.4-3.3c1.4-1.5,7.9-17.6,9.3-58.9
	c1.4-40.6-20.3-90-22.2-91.8C538.6,43.9,514.7,92.3,514.2,132.9z"/>
<path id="path3235_00000026880696605537393520000017589974152457719200_" class="st0" d="M536.7,353.2c-2.5,41.2,2.4,57.8,3.7,59.5
	c2.4,3,11.4,4.5,16,4.9c4.6,0.3,13.7,0.1,16.5-2.6c1.5-1.5,8.7-17.2,12.1-58.3c3.3-40.5-15.9-90.9-17.7-92.7
	C565.4,265.5,539.2,312.6,536.7,353.2z"/>
<path id="path3235_00000177460458528775462900000010415605581158343057_" class="st0" d="M241.4,278.2c40.9-6.1,56.1-14.3,57.4-15.9
	c2.5-3,2.1-12.1,1.5-16.6c-0.7-4.6-2.7-13.5-5.9-15.6c-1.7-1.2-18.6-5-59.6,0.2c-40.3,5.1-85.7,34.3-87.1,36.4
	C149.6,268.3,201.2,284.2,241.4,278.2z"/>
<path id="path3235_00000078750963438369641440000001151627310213452473_" class="st0" d="M291.5,419.5c0.1,41.3,6.1,57.5,7.4,59.1
	c2.6,2.9,11.7,3.8,16.3,3.9c4.6,0,13.7-0.7,16.3-3.6c1.4-1.5,7.6-17.7,8.4-59c0.8-40.6-21.6-89.7-23.5-91.5
	C314.5,330.2,291.4,378.9,291.5,419.5z"/>
<path id="path3235_00000087400470097155145670000004877574558863805598_" class="st5" d="M514.2,112.7c0.1,41.3,6.1,57.5,7.4,59.1
	c2.6,2.9,11.7,3.8,16.3,3.9c4.6,0,13.7-0.7,16.3-3.6c1.4-1.5,7.6-17.7,8.4-59c0.8-40.6-21.6-89.7-23.5-91.5
	C537.3,23.3,514.1,72,514.2,112.7z"/>
<g>
	<g>
		<path class="st6" d="M315.8,412.3c0.8-72.4,6-123.9-23.9-139c-43.1-21.8-60.8-14.1-56.9-14.8c65.3-12.8,124.7-8.7,193.8-5.1
			c57.4,2.9,139.4,104.5,133.1,152.2c0,0-22.1-199.8-23.3-306.7"/>
		<g>
			<polygon points="325.7,427.4 315.9,410.5 305.7,427.1 			"/>
		</g>
		<g>
			<polygon points="548.5,101.6 538.5,84.4 528.6,101.8 			"/>
		</g>
	</g>
</g>
<g>
	<g>
		<g>
			<line class="st7" x1="479.8" y1="319.5" x2="411.8" y2="319.5"/>
			<g>
				<polygon points="416.1,313.3 392.7,319.5 416.1,325.8 				"/>
			</g>
		</g>
	</g>
	<path class="st7" d="M479.8,323.8c-8.2,0-16.7-0.8-20,2c-4.7,3.9,0.9,11.5,7,5.6"/>
	<path class="st7" d="M479.8,315.3c-8.2,0-37.3,1.2-41.7-1.3c-6.3-3.5-0.4-12.3,6.6-7.1"/>
</g>
<rect id="rect4109_00000044882406907205199170000004741342279474615997_" x="350.1" y="344.5" class="st8" width="36.5" height="165.5"/>
<rect id="rect4109_00000025402858131285112590000007029377394326808201_" x="234.9" y="344.5" class="st8" width="36.5" height="165.5"/>
<rect id="rect4109_00000034769413647638090420000011578943800967261849_" x="234.9" y="36.5" class="st8" width="36.5" height="165.5"/>
<rect id="rect4109_00000011020950915220452340000002801354423982051005_" x="350.1" y="36.5" class="st8" width="36.5" height="165.5"/>
<rect id="rect4109_00000093868584958327955000000000356282245348396697_" x="609.4" y="7.4" class="st9" width="36.5" height="538.6"/>
<rect id="rect4109_00000029741115371431066820000014040850579432924340_" x="5.2" y="7.3" class="st10" width="36.5" height="502.2"/>
<rect id="rect4109_00000067957002060582544490000009394885783616656298_" x="5.2" y="509.5" class="st11" width="381.1" height="36.5"/>
<rect id="rect4109_00000160881842337411645640000005057655445862743484_" x="5.2" y="0" class="st12" width="381.4" height="36.5"/>
<rect id="rect4109_00000075842676630546760330000013578958255198045621_" x="120.1" y="344.5" class="st8" width="36.5" height="165.5"/>
<rect id="rect4109_00000065769124138516226000000005260981223527116192_" x="120.1" y="36.5" class="st8" width="36.5" height="165.5"/>
<text transform="matrix(1 0 0 1 442.3897 492.6926)"><tspan x="0" y="0" class="st13 st14 st15">Wide Main</tspan><tspan x="0" y="27.6" class="st13 st14 st15">Fairway</tspan></text>
<text transform="matrix(1 0 0 1 49.1568 320.4664)" class="st13 st14 st15">Narrow Side Fairway</text>
<text transform="matrix(1 0 0 1 299.8308 466.619)" class="st13 st14 st15">(a)</text>
<text transform="matrix(1 0 0 1 311.8458 298.155)" class="st13 st14 st15">(b)</text>
<text transform="matrix(1 0 0 1 195.8571 269.2132)" class="st13 st14 st15">(c)</text>
<text transform="matrix(1 0 0 1 436.2615 253.5362)" class="st13 st14 st15">(d)</text>
<text transform="matrix(1 0 0 1 543.3903 449.4386)" class="st13 st14 st15">(e)</text>
</svg>
