<?xml version="1.0" encoding="utf-8"?>
<!-- Generator: Adobe Illustrator 27.6.1, SVG Export Plug-In . SVG Version: 6.00 Build 0)  -->
<svg version="1.1" id="Layer_1" xmlns="http://www.w3.org/2000/svg" xmlns:xlink="http://www.w3.org/1999/xlink" x="0px" y="0px"
	 viewBox="0 0 598.3 391.8" style="enable-background:new 0 0 598.3 391.8;" xml:space="preserve">
<style type="text/css">
	.st0{fill:#FFFFFF;stroke:#010101;stroke-width:0.2835;stroke-miterlimit:11.3386;}
	.st1{fill:url(#SVGID_1_);}
	.st2{fill:url(#SVGID_00000052804682076802704560000009222384557012649872_);}
	.st3{fill:#00C1EA;stroke:#010101;stroke-width:0.2835;stroke-miterlimit:7.0169;}
	.st4{enable-background:new    ;}
	.st5{fill:#FF841F;}
	.st6{font-family:'MyriadPro-Bold';}
	.st7{font-size:18px;}
	.st8{fill:#FF841F;stroke:#010101;stroke-width:0.2835;stroke-miterlimit:7.0169;}
	.st9{fill:#00C1EA;}
	.st10{fill:#B3B3B3;stroke:#010101;stroke-width:0.2835;stroke-miterlimit:7.0169;}
	.st11{fill:#E5E5E5;stroke:#010101;stroke-width:0.2835;stroke-miterlimit:7.0169;}
	.st12{fill:#919191;stroke:#010101;stroke-width:0.2835;stroke-miterlimit:7.0169;}
	.st13{fill:#010101;stroke:#010101;stroke-width:0.1824;stroke-miterlimit:11.3392;}
	.st14{fill:#010101;stroke:#010101;stroke-width:0.3713;stroke-miterlimit:11.3392;}
	.st15{fill:#010101;stroke:#010101;stroke-width:0.2909;stroke-miterlimit:11.3392;}
	.st16{fill:#919191;stroke:#010101;stroke-width:0.2835;stroke-miterlimit:11.3386;}
	.st17{fill:#919191;stroke:#010101;stroke-width:0.2103;stroke-miterlimit:11.3392;}
	.st18{fill:#919191;stroke:#010101;stroke-width:0.2103;stroke-miterlimit:11.3394;}
	.st19{fill:#919191;stroke:#010101;stroke-width:0.2103;stroke-miterlimit:11.3388;}
	.st20{fill:#919191;stroke:#010101;stroke-width:0.2103;stroke-miterlimit:11.3389;}
	.st21{fill:#919191;stroke:#010101;stroke-width:0.2103;stroke-miterlimit:11.3382;}
	.st22{fill:#919191;stroke:#010101;stroke-width:0.2103;stroke-miterlimit:11.3384;}
</style>
<path class="st0" d="M297.5,215.8l-173.3,71.6c9.8,10.9,72.4,97.9,173.3,98.3c101.6,0.4,163.5-87.4,173.3-98.3
	C413.1,263.8,355.3,239.8,297.5,215.8z"/>
<g>
	
		<radialGradient id="SVGID_1_" cx="295.3634" cy="199.5525" r="194.7504" gradientTransform="matrix(1 0 0 1 0 14.3177)" gradientUnits="userSpaceOnUse">
		<stop  offset="0" style="stop-color:#ED1C24"/>
		<stop  offset="0.8969" style="stop-color:#ED1C24;stop-opacity:0"/>
	</radialGradient>
	<path class="st1" d="M110.8,294l188.6-78V27.5c-7.3,0-111.4,2.4-168.6,91.8C78.9,199.4,107.1,283.8,110.8,294z"/>
	
		<radialGradient id="SVGID_00000020365305448310015920000005242989347931116982_" cx="304.2345" cy="203.5624" r="216.4864" fx="307.2644" fy="197.8173" gradientTransform="matrix(1 0 0 1 0 14.3177)" gradientUnits="userSpaceOnUse">
		<stop  offset="0" style="stop-color:#39B54A"/>
		<stop  offset="0.8014" style="stop-color:#39B54A;stop-opacity:0"/>
	</radialGradient>
	<path style="fill:url(#SVGID_00000020365305448310015920000005242989347931116982_);" d="M299.3,216.1V27.5
		c15.5,2,93.5,14.7,147.7,85.7c60.4,78.8,43.7,167.7,40.8,181.2C425,267.9,362.2,242.2,299.3,216.1z"/>
</g>
<path id="path3235_00000083083917073325898710000001581367699154290594_" class="st3" d="M251.2,26.9c-4.5-14.9-6.9-20.4-7.6-20.8
	c-1.2-0.8-6,0.2-7.7,0.7c-1.7,0.5-6.8,2.4-7.5,3.7c-0.3,0.7,1.2,6.5,5.3,21.4c4.1,14.7,13.8,19.1,14.7,19.6
	C248.9,50.8,255.6,41.6,251.2,26.9z"/>
<text transform="matrix(1 0 0 1 450.9593 66.6112)" class="st4"><tspan x="0" y="0" class="st5 st6 st7">You Keep Clear</tspan><tspan x="0" y="21.6" class="st5 st6 st7">of These</tspan></text>
<path id="path3235_00000137108158944732039320000008448673379080689025_" class="st3" d="M181,83.8c-12.9-8.6-18.4-11.3-19.1-11.2
	c-1.4,0.2-4.5,4-5.5,5.4c-1,1.4-3.7,6.2-3.4,7.6c0.2,0.8,5,4.2,17.8,13.1c12.5,8.7,22.8,5.9,23.8,5.7
	C194.4,103.6,193.7,92.2,181,83.8z"/>
<path id="path3235_00000166663309002443583350000011628472176491094922_" class="st3" d="M137.7,205c-13.8,7.1-18.8,10.5-19.1,11.2
	c-0.5,1.3,1.3,5.9,2.1,7.4c0.8,1.5,3.6,6.3,5,6.7c0.7,0.2,6.2-2.3,20.1-9.1c13.7-6.7,16.3-17,16.6-18
	C161.6,202.9,151.3,198,137.7,205z"/>
<path id="path3235_00000181088804618131076280000011527994332479596429_" class="st3" d="M247.6,322.2c-5.7,14.4-7.2,20.3-6.9,21
	c0.5,1.4,4.9,3.6,6.5,4.2s6.9,2.3,8.2,1.7c0.7-0.3,3.1-5.8,9.1-20.1c5.9-14,1.1-23.6,0.7-24.5C264.2,304.9,253.2,308,247.6,322.2z"
	/>
<path id="path3235_00000160188830185317792470000013577618061410815388_" class="st3" d="M403.7,316.8c9.2,12.5,13.4,16.9,14.1,17
	c1.4,0.3,5.6-2.2,7-3.2c1.4-1,5.6-4.6,5.8-6c0.1-0.8-3.3-5.7-12.2-18.4c-8.8-12.5-19.4-13.4-20.4-13.6
	C397.9,293.5,394.7,304.4,403.7,316.8z"/>
<path id="path3235_00000155137184490601488330000004822825235184506556_" class="st3" d="M325.2,338.9c4.5,14.8,7,20.4,7.7,20.7
	c1.2,0.8,6-0.3,7.7-0.7c1.7-0.5,6.8-2.5,7.4-3.8c0.3-0.7-1.2-6.5-5.4-21.4c-4.1-14.7-13.9-19.1-14.8-19.5
	C327.4,315,320.8,324.3,325.2,338.9z"/>
<path id="path3235_00000028293632865502991950000003872805388780359313_" class="st3" d="M185.4,295.6
	c-8.9,12.7-11.8,18.1-11.7,18.8c0.1,1.4,3.9,4.6,5.3,5.6s6.1,3.9,7.5,3.6c0.8-0.2,4.4-4.9,13.6-17.4c9-12.3,6.5-22.7,6.4-23.6
	C205.6,282.7,194.2,283.1,185.4,295.6z"/>
<path id="path3235_00000167360647508035926810000008350065438979736499_" class="st3" d="M125.1,144.3
	c-9.3,12.4-12.3,17.7-12.2,18.5c0.1,1.4,3.8,4.7,5.1,5.8s6,4.1,7.4,3.8c0.8-0.1,4.5-4.8,14.1-17c9.4-12,7.2-22.5,7.1-23.4
	C145.6,132,134.2,132,125.1,144.3z"/>
<path id="path3235_00000075155523857172399310000005106322834813568389_" class="st3" d="M207.1,143c-15.5,0.5-21.5,1.4-22,2
	c-1.1,1-1.3,5.9-1.3,7.6c0,1.7,0.6,7.2,1.7,8.2c0.6,0.5,6.6,0.5,22.1,0.4c15.2-0.2,22-8.4,22.7-9.1
	C229.6,151.3,222.4,142.5,207.1,143z"/>
<path id="path3235_00000012462854416699837840000006576419325193621431_" class="st8" d="M416.2,81.8c10-15.1,13.2-21.5,13.1-22.3
	c-0.3-1.7-4.7-5.3-6.4-6.4c-1.7-1.1-7.3-4.4-8.9-4c-0.9,0.2-5,5.9-15.3,20.8c-10.2,14.6-6.9,26.7-6.7,27.9
	C393,97.6,406.3,96.7,416.2,81.8z"/>
<path id="path3235_00000118391535418604694240000017861182740014131355_" class="st8" d="M377.5,210.9
	c13.8,11.7,19.7,15.7,20.6,15.6c1.7-0.1,5.8-4,7.1-5.6c1.3-1.5,5.2-6.7,5-8.4c-0.1-0.9-5.3-5.6-18.8-17.7
	c-13.3-11.9-25.7-10-26.9-10C364.6,186,363.9,199.3,377.5,210.9z"/>
<path id="path3235_00000021085650038640320020000013413815309015446154_" class="st8" d="M455.8,171.8c18.1,0.3,25.2-0.4,25.9-1
	c1.3-1.1,2-6.8,2-8.8c0.1-2-0.2-8.5-1.5-9.7c-0.7-0.6-7.6-1-25.8-1.8c-17.8-0.7-26.3,8.5-27.1,9.3
	C430.1,160.7,437.9,171.4,455.8,171.8z"/>
<path id="path3235_00000141417795462619795090000015814814001544762812_" class="st8" d="M336,117.4c4,17.7,6.4,24.4,7.2,24.9
	c1.4,1,7.1,0.3,9-0.2c2-0.4,8.2-2.3,9-3.7c0.4-0.8-0.8-7.7-4.5-25.5c-3.6-17.5-14.6-23.5-15.5-24.1C340.6,89.7,332.1,99.9,336,117.4
	z"/>
<path id="path3235_00000063630904381437906260000009128320772824624286_" class="st8" d="M335.7,50.2c7.8-16.4,10.1-23.1,9.8-23.9
	c-0.5-1.7-5.4-4.6-7.2-5.5c-1.8-0.9-7.8-3.3-9.4-2.7c-0.8,0.3-4.1,6.5-12.3,22.7c-8.1,15.9-3.1,27.4-2.8,28.5
	C314.9,69.1,327.9,66.4,335.7,50.2z"/>
<path id="path3235_00000026126344586056679390000017772577495239723924_" class="st8" d="M380.5,28.6c18.1,0.3,25.2-0.4,25.9-1
	c1.3-1.1,2-6.8,2-8.8c0.1-2-0.2-8.5-1.5-9.7c-0.7-0.6-7.6-1-25.8-1.8c-17.8-0.7-26.3,8.5-27.1,9.3C354.7,17.5,362.6,28.3,380.5,28.6
	z"/>
<path id="path3235_00000164495994110906344180000013713629894695840647_" class="st8" d="M439,239.9c3.6,17.8,5.8,24.5,6.6,25
	c1.4,1,7.1,0.4,9,0c2-0.4,8.2-2.1,9.1-3.5c0.5-0.8-0.7-7.7-3.8-25.6c-3.1-17.6-14-23.8-14.9-24.5C444.2,212.3,435.5,222.3,439,239.9
	z"/>
<text transform="matrix(1 0 0 1 26.8954 296.7078)" class="st4"><tspan x="0" y="0" class="st9 st6 st7">These Keep</tspan><tspan x="-5.3" y="21.6" class="st9 st6 st7">Clear of You</tspan></text>
<g id="g3275" transform="rotate(-90,39.977421,39.300132)">
	<path id="path3235" class="st10" d="M-148.6,277c-31.9,0.1-44.4,5.1-45.7,6.2c-2.2,2.2-2.9,9.7-3,13.6c0,3.8,0.5,11.4,2.8,13.6
		c1.2,1.2,13.7,6.3,45.6,7c31.4,0.7,69.3-18,70.7-19.6C-79.6,296.2-117.2,276.9-148.6,277z"/>
	<path id="path3237" class="st11" d="M-154.9,282.6c-26.7,0.2-36.3,3.8-36.6,5.6c-0.5,2.7-0.6,6.9-0.6,8.2v0.4v0.4
		c0,1.3,0,5.4,0.5,8.2c0.3,1.7,9.8,5.6,36.5,6.2c15.9,0.3,33.5-3,42-5.2s9.6-1.6,9.8-8.8c-0.2-7.2-1.3-6.6-9.7-9
		C-121.4,286.2-139,282.5-154.9,282.6z"/>
	<path id="path3239" class="st12" d="M-163.3,288.9c-11,0-17.8-0.2-20.4,0c-1.9,0.2-1.7,3.2-1.7,5.6v2.4v2.4c0,2.4-0.3,5.4,1.6,5.6
		c2.5,0.2,9.4,0.2,20.4,0.3c1.2-0.2,1.1-4,1.2-5.4c0.7,0,3-0.1,3.6-0.1c0.1-1.4,0.1-2.2,0.1-2.6c0-0.3,0.1-1.2,0-2.6
		c-0.5,0-2.9-0.1-3.6-0.2C-162.3,292.9-162.2,289.1-163.3,288.9z"/>
	<polygon id="rect3241" class="st13" points="-178.7,302.2 -178.9,302.2 -178.8,292.6 -178.6,292.6 	"/>
	
		<ellipse id="ellipse3243" transform="matrix(-1 -8.760251e-03 8.760251e-03 -1 -260.0385 593.7842)" class="st14" cx="-128.7" cy="297.5" rx="1.6" ry="1.1"/>
	<polygon id="rect3245" class="st15" points="-128.9,298.2 -182.7,297.8 -182.7,296 -128.9,296.5 	"/>
	<g id="g3259" transform="translate(-62.948033,-44.311823)">
		<ellipse id="circle3247" class="st16" cx="-107" cy="330" rx="0.7" ry="0.7"/>
		<ellipse id="circle3249" class="st16" cx="-112.6" cy="330.9" rx="0.7" ry="0.7"/>
		<ellipse id="circle3251" class="st16" cx="-97.4" cy="336.8" rx="0.7" ry="0.7"/>
		<polygon id="rect3253" class="st17" points="-91.2,322.5 -93.3,322.5 -93.3,321.8 -91.2,321.8 		"/>
		<polygon id="rect3255" class="st18" points="-129.3,328.1 -129.6,327.5 -127.7,326.6 -127.5,327.2 		"/>
		<polygon id="rect3257" class="st19" points="-20.6,340.8 -22.5,339.9 -22.2,339.3 -20.4,340.1 		"/>
	</g>
	<g id="g3273" transform="matrix(1,0,0,-1,-62.948033,104.57221)">
		<ellipse id="circle3261" class="st16" cx="-107.1" cy="-203.8" rx="0.7" ry="0.7"/>
		<ellipse id="circle3263" class="st16" cx="-112.7" cy="-202.8" rx="0.7" ry="0.7"/>
		<ellipse id="circle3265" class="st16" cx="-97.5" cy="-197.1" rx="0.7" ry="0.7"/>
		<polygon id="rect3267" class="st20" points="-91.5,-212 -93.5,-212 -93.5,-212 		"/>
		<polygon id="rect3269" class="st21" points="-127.7,-205.8 -129.5,-206.7 -129.5,-206.7 		"/>
		<polygon id="rect3271" class="st22" points="-20.4,-195.2 -20.7,-195.9 -20.7,-195.9 		"/>
	</g>
</g>
<path id="path3235_00000076587706516070423950000008337162201625441670_" class="st8" d="M235.4,98c-8.6,16-11.2,22.6-11,23.4
	c0.4,1.7,5.2,4.9,6.9,5.8c1.8,1,7.7,3.7,9.3,3.1c0.9-0.3,4.4-6.3,13.4-22.1c8.8-15.5,4.5-27.3,4.2-28.4
	C257.1,80.1,243.9,82.2,235.4,98z"/>
<path id="path3235_00000160910182774528951830000013755382962060727959_" class="st8" d="M260.2,141.6c-1.1,18.1-0.7,25.2-0.1,25.9
	c1.1,1.4,6.7,2.2,8.7,2.4c2,0.2,8.5,0.1,9.7-1c0.7-0.6,1.3-7.6,2.9-25.7c1.5-17.8-7.4-26.6-8.1-27.5
	C272.4,116.3,261.3,123.8,260.2,141.6z"/>
</svg>
