<?xml version="1.0" encoding="utf-8"?>
<!-- Generator: Adobe Illustrator 27.6.1, SVG Export Plug-In . SVG Version: 6.00 Build 0)  -->
<svg version="1.1" id="Layer_1" xmlns="http://www.w3.org/2000/svg" xmlns:xlink="http://www.w3.org/1999/xlink" x="0px" y="0px"
	 viewBox="0 0 206.8 443.5" style="enable-background:new 0 0 206.8 443.5;" xml:space="preserve">
<style type="text/css">
	.st0{fill:#FFFFFF;stroke:#010101;stroke-width:0.2835;stroke-miterlimit:11.3386;}
	.st1{fill:url(#SVGID_1_);}
	.st2{fill:url(#SVGID_00000116932695436821871690000001274054330198679424_);}
	.st3{fill:#B3B3B3;stroke:#010101;stroke-width:0.2835;stroke-miterlimit:7.0169;}
	.st4{fill:#E5E5E5;stroke:#010101;stroke-width:0.2835;stroke-miterlimit:7.0169;}
	.st5{fill:#919191;stroke:#010101;stroke-width:0.2835;stroke-miterlimit:7.0169;}
	.st6{fill:#010101;stroke:#010101;stroke-width:0.1824;stroke-miterlimit:11.3389;}
	.st7{fill:#010101;stroke:#010101;stroke-width:0.3713;stroke-miterlimit:11.3389;}
	.st8{fill:#010101;stroke:#010101;stroke-width:0.2909;stroke-miterlimit:11.3389;}
	.st9{fill:#919191;stroke:#010101;stroke-width:0.2835;stroke-miterlimit:11.3386;}
	.st10{fill:#919191;stroke:#010101;stroke-width:0.2103;stroke-miterlimit:11.3389;}
	.st11{fill:#919191;stroke:#010101;stroke-width:0.2103;stroke-miterlimit:11.339;}
	.st12{fill:#919191;stroke:#010101;stroke-width:0.2103;stroke-miterlimit:11.3387;}
	.st13{fill:#919191;stroke:#010101;stroke-width:0.2103;stroke-miterlimit:11.3382;}
	.st14{fill:#919191;stroke:#010101;stroke-width:0.2103;stroke-miterlimit:11.3384;}
	.st15{fill:url(#SVGID_00000149363393989737573320000013679112646882696600_);}
	.st16{fill:url(#SVGID_00000103259238674335080740000014633310078387512238_);}
	.st17{fill:none;stroke:#010101;stroke-width:2;stroke-miterlimit:7.0169;stroke-dasharray:2.9424,2.9424;}
	.st18{fill:#010101;}
</style>
<g>
	<path class="st0" d="M149.8,393.4l-46.2,19.1c2.6,2.9,19.3,26.1,46.2,26.2c27.1,0.1,43.6-23.3,46.2-26.2
		C180.6,406.1,165.2,399.7,149.8,393.4z"/>
	<g>
		
			<radialGradient id="SVGID_1_" cx="150.7099" cy="198.6854" r="47.7181" gradientTransform="matrix(1 0 0 -1 0 446)" gradientUnits="userSpaceOnUse">
			<stop  offset="0" style="stop-color:#ED1C24"/>
			<stop  offset="0.8969" style="stop-color:#ED1C24;stop-opacity:0"/>
		</radialGradient>
		<path class="st1" d="M105.4,267l46.2-19.1v-46.2c-1.8,0-27.3,0.6-41.3,22.5C97.7,243.7,104.5,264.4,105.4,267z"/>
		
			<radialGradient id="SVGID_00000054983700941642077330000010898182448267197072_" cx="152.8835" cy="197.7029" r="53.0439" fx="153.6259" fy="196.2952" gradientTransform="matrix(1 0 0 -1 0 446)" gradientUnits="userSpaceOnUse">
			<stop  offset="0" style="stop-color:#39B54A"/>
			<stop  offset="0.8014" style="stop-color:#39B54A;stop-opacity:0"/>
		</radialGradient>
		<path style="fill:url(#SVGID_00000054983700941642077330000010898182448267197072_);" d="M151.6,247.8v-46.2
			c3.8,0.5,22.9,3.6,36.2,21c14.8,19.3,10.7,41.1,10,44.4C182.4,260.6,167,254.2,151.6,247.8z"/>
	</g>
	<g id="g3275" transform="rotate(-90,39.977421,39.300132)">
		<path id="path3235" class="st3" d="M-255.6,125.9c-41.3,0.1-57.5,6.1-59.1,7.4c-2.9,2.6-3.8,11.7-3.9,16.3
			c0,4.6,0.7,13.7,3.6,16.3c1.5,1.4,17.7,7.6,59,8.4c40.6,0.8,89.7-21.6,91.5-23.5C-166.2,148.9-214.9,125.8-255.6,125.9z"/>
		<path id="path3237" class="st4" d="M-263.7,132.6c-34.6,0.2-47,4.6-47.4,6.7c-0.6,3.3-0.8,8.3-0.8,9.9v0.5v0.5
			c0,1.6,0,6.5,0.6,9.9c0.4,2.1,12.7,6.7,47.3,7.5c20.6,0.4,43.4-3.6,54.3-6.3c10.9-2.7,12.4-1.9,12.7-10.6
			c-0.2-8.7-1.7-7.9-12.5-10.8C-220.4,136.9-243.1,132.5-263.7,132.6z"/>
		<path id="path3239" class="st5" d="M-274.6,140.2c-14.3,0-23.1-0.3-26.4,0c-2.5,0.2-2.2,3.8-2.2,6.7v2.9v2.9
			c0,2.9-0.4,6.5,2.1,6.7c3.3,0.3,12.2,0.2,26.4,0.4c1.5-0.2,1.4-4.8,1.5-6.5c0.9,0,3.9-0.1,4.7-0.1c0.1-1.7,0.1-2.7,0.1-3.1
			c0-0.4,0.1-1.4,0-3.1c-0.7,0-3.8-0.1-4.7-0.2C-273.3,145-273.1,140.4-274.6,140.2z"/>
		
			<rect id="rect3241" x="-294.8" y="144.7" transform="matrix(-1 -7.321526e-03 7.321526e-03 -1 -590.352 298.7393)" class="st6" width="0.3" height="11.6"/>
		
			<ellipse id="ellipse3243" transform="matrix(-1 -7.321526e-03 7.321526e-03 -1 -460.7285 299.1839)" class="st7" cx="-229.8" cy="150.4" rx="2.1" ry="1.3"/>
		
			<rect id="rect3245" x="-299.6" y="149.1" transform="matrix(-1 -7.321526e-03 7.321526e-03 -1 -530.7454 298.2626)" class="st8" width="69.6" height="2.1"/>
		<g id="g3259" transform="translate(-62.948033,-44.311823)">
			<circle id="circle3247" class="st9" cx="-220.2" cy="180.6" r="0.9"/>
			<circle id="circle3249" class="st9" cx="-227.5" cy="181.7" r="0.9"/>
			<circle id="circle3251" class="st9" cx="-207.8" cy="188.8" r="0.9"/>
			
				<rect id="rect3253" x="-202.4" y="170.9" transform="matrix(-1 -7.321526e-03 7.321526e-03 -1 -403.5067 341.0565)" class="st10" width="2.6" height="0.8"/>
			
				<rect id="rect3255" x="-248.5" y="176.2" transform="matrix(-0.3976 -0.9176 0.9176 -0.3976 -509.642 20.3944)" class="st11" width="0.8" height="2.6"/>
			
				<rect id="rect3257" x="-110.8" y="192.2" transform="matrix(-0.9177 -0.3973 0.3973 -0.9177 -286.4744 325.9203)" class="st12" width="2.6" height="0.8"/>
		</g>
		<g id="g3273" transform="matrix(1,0,0,-1,-62.948033,104.57221)">
			<circle id="circle3261" class="st9" cx="-220.4" cy="-59" r="0.9"/>
			<circle id="circle3263" class="st9" cx="-227.6" cy="-57.8" r="0.9"/>
			<circle id="circle3265" class="st9" cx="-207.9" cy="-51" r="0.9"/>
			<polygon id="rect3267" class="st10" points="-200.2,-68.8 -202.8,-68.9 -202.8,-68.9 			"/>
			<polygon id="rect3269" class="st13" points="-247,-61.4 -249.4,-62.5 -249.4,-62.5 			"/>
			<polygon id="rect3271" class="st14" points="-108.2,-48.7 -108.5,-49.5 -108.5,-49.5 			"/>
		</g>
	</g>
</g>
<g>
	<path class="st0" d="M62,48.7l46.2-19.1C105.6,26.7,88.9,3.5,62,3.5C34.9,3.4,18.4,26.8,15.8,29.6C31.2,36,46.6,42.4,62,48.7z"/>
	<g>
		
			<radialGradient id="SVGID_00000034074195424004783720000007664869413339589515_" cx="-208.5012" cy="139.0996" r="47.7181" gradientTransform="matrix(-1 0 0 1 -147.3803 22.2665)" gradientUnits="userSpaceOnUse">
			<stop  offset="0" style="stop-color:#ED1C24"/>
			<stop  offset="0.8969" style="stop-color:#ED1C24;stop-opacity:0"/>
		</radialGradient>
		<path style="fill:url(#SVGID_00000034074195424004783720000007664869413339589515_);" d="M106.4,141.7l-46.2,19.1V207
			c1.8,0,27.3-0.6,41.3-22.5C114.1,164.9,107.3,144.2,106.4,141.7z"/>
		
			<radialGradient id="SVGID_00000114066536126676144250000000647568124453815997_" cx="-206.3275" cy="138.1172" r="53.0439" fx="-205.5851" fy="136.7096" gradientTransform="matrix(-1 0 0 1 -147.3803 22.2665)" gradientUnits="userSpaceOnUse">
			<stop  offset="0" style="stop-color:#39B54A"/>
			<stop  offset="0.8014" style="stop-color:#39B54A;stop-opacity:0"/>
		</radialGradient>
		<path style="fill:url(#SVGID_00000114066536126676144250000000647568124453815997_);" d="M60.2,160.9v46.2
			c-3.8-0.5-22.9-3.6-36.2-21C9.3,166.7,13.3,145,14,141.7C29.4,148.1,44.8,154.5,60.2,160.9z"/>
	</g>
	<path id="path3235_00000083083917073325898710000001581367699154290594_" class="st3" d="M86.3,105.6c-0.1-41.3-2.1-57.3-3.5-58.8
		c-2.6-2.9-15.6-4.1-20.2-4.1s-19.3,1-21.9,3.8c-1.4,1.5-2,17.4-2.8,58.7c-0.8,40.6,20.6,59.4,22.5,61.2
		C62.2,164.6,86.4,146.2,86.3,105.6z"/>
</g>
<g>
	<g>
		<path class="st17" d="M176.8,145.9c-0.5,56.5-27.4,74.3-26.8,99.7"/>
		<g>
			<polygon class="st18" points="166.7,148.9 176.7,131.5 186.7,148.8 			"/>
		</g>
	</g>
</g>
<g>
	<g>
		<path class="st17" d="M33.3,264.4c0.5-56.5,27.4-74.3,26.8-99.7"/>
		<g>
			<polygon class="st18" points="43.4,261.4 33.4,278.8 23.4,261.5 			"/>
		</g>
	</g>
</g>
</svg>
