<?xml version="1.0" encoding="utf-8"?>
<!-- Generator: Adobe Illustrator 27.6.1, SVG Export Plug-In . SVG Version: 6.00 Build 0)  -->
<svg version="1.1" id="Layer_1" xmlns="http://www.w3.org/2000/svg" xmlns:xlink="http://www.w3.org/1999/xlink" x="0px" y="0px"
	 viewBox="0 0 206.8 443.5" style="enable-background:new 0 0 206.8 443.5;" xml:space="preserve">
<style type="text/css">
	.st0{fill:#FFFFFF;stroke:#010101;stroke-width:0.2835;stroke-miterlimit:11.3386;}
	.st1{fill:url(#SVGID_1_);}
	.st2{fill:url(#SVGID_00000091711864216914979540000016741015804084274838_);}
	.st3{fill:#B3B3B3;stroke:#010101;stroke-width:0.2835;stroke-miterlimit:7.0169;}
	.st4{fill:#E5E5E5;stroke:#010101;stroke-width:0.2835;stroke-miterlimit:7.0169;}
	.st5{fill:#919191;stroke:#010101;stroke-width:0.2835;stroke-miterlimit:7.0169;}
	.st6{fill:#010101;stroke:#010101;stroke-width:0.1824;stroke-miterlimit:11.3386;}
	.st7{fill:#010101;stroke:#010101;stroke-width:0.3713;stroke-miterlimit:11.3386;}
	.st8{fill:#010101;stroke:#010101;stroke-width:0.2909;stroke-miterlimit:11.3386;}
	.st9{fill:#919191;stroke:#010101;stroke-width:0.2835;stroke-miterlimit:11.3386;}
	.st10{fill:#919191;stroke:#010101;stroke-width:0.2103;stroke-miterlimit:11.3386;}
	.st11{fill:url(#SVGID_00000093147978100767534460000004908657614905126534_);}
	.st12{fill:url(#SVGID_00000150073164102505419780000007817829851972787369_);}
	.st13{fill:none;stroke:#010101;stroke-width:2;stroke-miterlimit:7.0169;stroke-dasharray:2.9424,2.9424;}
	.st14{fill:#010101;}
</style>
<g>
	<path class="st0" d="M158.8,393.4l-46.2,19.1c2.6,2.9,19.3,26.1,46.2,26.2c27.1,0.1,43.6-23.3,46.2-26.2
		C189.6,406.1,174.2,399.7,158.8,393.4z"/>
	<g>
		<radialGradient id="SVGID_1_" cx="159.7099" cy="247.3146" r="47.7181" gradientUnits="userSpaceOnUse">
			<stop  offset="0" style="stop-color:#ED1C24"/>
			<stop  offset="0.8969" style="stop-color:#ED1C24;stop-opacity:0"/>
		</radialGradient>
		<path class="st1" d="M114.4,267l46.2-19.1v-46.2c-1.8,0-27.3,0.6-41.3,22.5C106.7,243.7,113.5,264.4,114.4,267z"/>
		
			<radialGradient id="SVGID_00000116198860239210789070000012818180420933218997_" cx="161.8835" cy="248.2971" r="53.0439" fx="162.6259" fy="246.8894" gradientUnits="userSpaceOnUse">
			<stop  offset="0" style="stop-color:#39B54A"/>
			<stop  offset="0.8014" style="stop-color:#39B54A;stop-opacity:0"/>
		</radialGradient>
		<path style="fill:url(#SVGID_00000116198860239210789070000012818180420933218997_);" d="M160.6,247.8v-46.2
			c3.8,0.5,22.9,3.6,36.2,21c14.8,19.3,10.7,41.1,10,44.4C191.4,260.6,176,254.2,160.6,247.8z"/>
	</g>
	<g id="g3275" transform="rotate(-90,39.977421,39.300132)">
		<path id="path3235" class="st3" d="M-255.6,134.9c-41.3,0.1-57.5,6.1-59.1,7.4c-2.9,2.6-3.8,11.7-3.9,16.3
			c0,4.6,0.7,13.7,3.6,16.3c1.5,1.4,17.7,7.6,59,8.4c40.6,0.8,89.7-21.6,91.5-23.5C-166.2,157.9-214.9,134.8-255.6,134.9z"/>
		<path id="path3237" class="st4" d="M-263.7,141.6c-34.6,0.2-47,4.6-47.4,6.7c-0.6,3.3-0.8,8.3-0.8,9.9l0,0.5l0,0.5
			c0,1.6,0,6.5,0.6,9.9c0.4,2.1,12.7,6.7,47.3,7.5c20.6,0.4,43.4-3.6,54.3-6.3c10.9-2.7,12.4-1.9,12.7-10.6
			c-0.2-8.7-1.7-7.9-12.5-10.8C-220.4,145.9-243.1,141.5-263.7,141.6z"/>
		<path id="path3239" class="st5" d="M-274.6,149.2c-14.3,0-23.1-0.3-26.4,0c-2.5,0.2-2.2,3.8-2.2,6.7l0,2.9l0,2.9
			c0,2.9-0.4,6.5,2.1,6.7c3.3,0.3,12.2,0.2,26.4,0.4c1.5-0.2,1.4-4.8,1.5-6.5c0.9,0,3.9-0.1,4.7-0.1c0.1-1.7,0.1-2.7,0.1-3.1
			c0-0.4,0.1-1.4,0-3.1c-0.7,0-3.8-0.1-4.7-0.2C-273.3,154-273.1,149.4-274.6,149.2z"/>
		
			<rect id="rect3241" x="-294.8" y="153.7" transform="matrix(-1 -7.324258e-03 7.324258e-03 -1 -590.4474 316.7921)" class="st6" width="0.3" height="11.6"/>
		
			<ellipse id="ellipse3243" transform="matrix(-1 -7.324258e-03 7.324258e-03 -1 -460.8841 317.1514)" class="st7" cx="-229.9" cy="159.4" rx="2.1" ry="1.3"/>
		
			<rect id="rect3245" x="-299.7" y="158.1" transform="matrix(-1 -7.324258e-03 7.324258e-03 -1 -530.8924 316.3126)" class="st8" width="69.6" height="2.1"/>
		<g id="g3259" transform="translate(-62.948033,-44.311823)">
			<circle id="circle3247" class="st9" cx="-220.2" cy="189.6" r="0.9"/>
			<circle id="circle3249" class="st9" cx="-227.5" cy="190.7" r="0.9">
			</circle>
			<circle id="circle3251" class="st9" cx="-207.8" cy="197.8" r="0.9">
			</circle>
			
				<rect id="rect3253" x="-202.5" y="180" transform="matrix(-1 -7.324258e-03 7.324258e-03 -1 -403.6504 359.1932)" class="st10" width="2.6" height="0.8"/>
			
				<rect id="rect3255" x="-248.4" y="185.2" transform="matrix(-0.3976 -0.9176 0.9176 -0.3976 -517.8634 33.0836)" class="st10" width="0.8" height="2.6"/>
			
				<rect id="rect3257" x="-110.9" y="201.2" transform="matrix(-0.9177 -0.3973 0.3973 -0.9177 -290.1519 343.0992)" class="st10" width="2.6" height="0.8"/>
		</g>
		<g id="g3273" transform="matrix(1,0,0,-1,-62.948033,104.57221)">
			<circle id="circle3261" class="st9" cx="-220.4" cy="-68" r="0.9"/>
			<circle id="circle3263" class="st9" cx="-227.6" cy="-66.8" r="0.9">
			</circle>
			<circle id="circle3265" class="st9" cx="-207.9" cy="-60" r="0.9">
			</circle>
			
				<rect id="rect3267" x="-202.8" y="-77.2" transform="matrix(-1 -7.324258e-03 7.324258e-03 -1 -402.4369 -156.5332)" class="st10" width="2.6" height="-0.8"/>
			
				<rect id="rect3269" x="-249.6" y="-70.3" transform="matrix(-0.9116 -0.411 0.411 -0.9116 -445.649 -237.1034)" class="st10" width="2.6" height="-0.8"/>
			
				<rect id="rect3271" x="-110" y="-56.3" transform="matrix(-0.3838 -0.9234 0.9234 -0.3838 -98.4304 -180.8994)" class="st10" width="0.8" height="-2.6"/>
		</g>
	</g>
</g>
<g>
	<path class="st0" d="M49,48.7l46.2-19.1C92.6,26.7,75.9,3.5,49,3.5C21.9,3.4,5.4,26.8,2.8,29.6C18.2,36,33.6,42.4,49,48.7z"/>
	<g>
		
			<radialGradient id="SVGID_00000010308650268505517100000004488473562810412942_" cx="388.4988" cy="472.9004" r="47.7181" gradientTransform="matrix(-1 0 0 -1 436.6197 634.2665)" gradientUnits="userSpaceOnUse">
			<stop  offset="0" style="stop-color:#ED1C24"/>
			<stop  offset="0.8969" style="stop-color:#ED1C24;stop-opacity:0"/>
		</radialGradient>
		<path style="fill:url(#SVGID_00000010308650268505517100000004488473562810412942_);" d="M93.4,141.7l-46.2,19.1v46.2
			c1.8,0,27.3-0.6,41.3-22.5C101.1,164.9,94.3,144.2,93.4,141.7z"/>
		
			<radialGradient id="SVGID_00000035490718784368838300000011680720847024118427_" cx="390.6725" cy="473.8828" r="53.0439" fx="391.4149" fy="472.4752" gradientTransform="matrix(-1 0 0 -1 436.6197 634.2665)" gradientUnits="userSpaceOnUse">
			<stop  offset="0" style="stop-color:#39B54A"/>
			<stop  offset="0.8014" style="stop-color:#39B54A;stop-opacity:0"/>
		</radialGradient>
		<path style="fill:url(#SVGID_00000035490718784368838300000011680720847024118427_);" d="M47.2,160.9v46.2
			c-3.8-0.5-22.9-3.6-36.2-21C-3.7,166.7,0.3,145,1,141.7C16.4,148.1,31.8,154.5,47.2,160.9z"/>
	</g>
	<path id="path3235_00000083083917073325898710000001581367699154290594_" class="st3" d="M73.3,105.6c-0.1-41.3-2.1-57.3-3.5-58.8
		c-2.6-2.9-15.6-4.1-20.2-4.1c-4.6,0-19.3,1-21.9,3.8c-1.4,1.5-2,17.4-2.8,58.7c-0.8,40.6,20.6,59.4,22.5,61.2
		C49.2,164.6,73.4,146.2,73.3,105.6z"/>
</g>
<g>
	<g>
		<path class="st13" d="M160.7,145.9c-0.5,56.5-1.1,74.3-0.5,99.7"/>
		<g>
			<polygon class="st14" points="150.6,148.9 160.6,131.5 170.6,148.8 			"/>
		</g>
	</g>
</g>
<g>
	<g>
		<path class="st13" d="M47.1,263c0.5-56.5,1.1-74.3,0.5-99.7"/>
		<g>
			<polygon class="st14" points="57.2,260 47.2,277.4 37.2,260.1 			"/>
		</g>
	</g>
</g>
</svg>
