<?xml version="1.0" encoding="utf-8"?>
<!-- Generator: Adobe Illustrator 27.6.1, SVG Export Plug-In . SVG Version: 6.00 Build 0)  -->
<svg version="1.1" id="Layer_1" xmlns="http://www.w3.org/2000/svg" xmlns:xlink="http://www.w3.org/1999/xlink" x="0px" y="0px"
	 viewBox="0 0 327 491.2" style="enable-background:new 0 0 327 491.2;" xml:space="preserve">
<style type="text/css">
	.st0{fill:#FFFFFF;stroke:#010101;stroke-width:0.2835;stroke-miterlimit:11.3386;}
	.st1{fill:url(#SVGID_1_);}
	.st2{fill:url(#SVGID_00000014606532342216811950000017530994334162217382_);}
	.st3{fill:#FF841F;stroke:#010101;stroke-width:0.2835;stroke-miterlimit:7.0169;}
	.st4{fill:#FF841F;stroke:#010101;stroke-width:0.1824;stroke-miterlimit:11.3389;}
	.st5{fill:#FF841F;stroke:#010101;stroke-width:0.3713;stroke-miterlimit:11.3389;}
	.st6{fill:#FF841F;stroke:#010101;stroke-width:0.2909;stroke-miterlimit:11.3389;}
	.st7{fill:#FF841F;stroke:#010101;stroke-width:0.2835;stroke-miterlimit:11.3386;}
	.st8{fill:#FF841F;stroke:#010101;stroke-width:0.2103;stroke-miterlimit:11.3389;}
	.st9{fill:#FF841F;stroke:#010101;stroke-width:0.2103;stroke-miterlimit:11.339;}
	.st10{fill:#FF841F;stroke:#010101;stroke-width:0.2103;stroke-miterlimit:11.3387;}
	.st11{fill:#FF841F;stroke:#010101;stroke-width:0.2103;stroke-miterlimit:11.3382;}
	.st12{fill:#FF841F;stroke:#010101;stroke-width:0.2103;stroke-miterlimit:11.3384;}
	.st13{fill:none;stroke:#010101;stroke-width:2;stroke-miterlimit:7.0169;stroke-dasharray:2.9424,2.9424;}
	.st14{fill:#010101;}
	.st15{fill:url(#SVGID_00000058555275010982708350000012539259980404612539_);}
	.st16{fill:url(#SVGID_00000114035480303390326590000004863980572237723052_);}
	.st17{fill:#00C1EA;stroke:#010101;stroke-width:0.2835;stroke-miterlimit:7.0169;}
	.st18{fill:#FF841F;}
	.st19{font-family:'MyriadPro-Bold';}
	.st20{font-size:21px;}
</style>
<path class="st0" d="M270.4,438.2l-46.2,19.1c2.6,2.9,19.3,26.1,46.2,26.2c27.1,0.1,43.6-23.3,46.2-26.2
	C301.2,451,285.8,444.6,270.4,438.2z"/>
<g>
	
		<radialGradient id="SVGID_1_" cx="271.2331" cy="334.1599" r="47.7181" gradientTransform="matrix(1 0 0 -1 0 626.3177)" gradientUnits="userSpaceOnUse">
		<stop  offset="0" style="stop-color:#ED1C24"/>
		<stop  offset="0.8969" style="stop-color:#ED1C24;stop-opacity:0"/>
	</radialGradient>
	<path class="st1" d="M226,311.8l46.2-19.1v-46.2c-1.8,0-27.3,0.6-41.3,22.5C218.2,288.6,225.1,309.3,226,311.8z"/>
	
		<radialGradient id="SVGID_00000072960083657290654460000001696469832737635205_" cx="273.4067" cy="333.1774" r="53.0439" fx="274.1491" fy="331.7697" gradientTransform="matrix(1 0 0 -1 0 626.3177)" gradientUnits="userSpaceOnUse">
		<stop  offset="0" style="stop-color:#39B54A"/>
		<stop  offset="0.8014" style="stop-color:#39B54A;stop-opacity:0"/>
	</radialGradient>
	<path style="fill:url(#SVGID_00000072960083657290654460000001696469832737635205_);" d="M272.2,292.7v-46.2
		c3.8,0.5,22.9,3.6,36.2,21c14.8,19.3,10.7,41.1,10,44.4C303,305.4,287.6,299.1,272.2,292.7z"/>
</g>
<g id="g3275" transform="rotate(-90,39.977421,39.300132)">
	<path id="path3235" class="st3" d="M-300.4,246.4c-41.3,0.1-57.5,6.1-59.1,7.4c-2.9,2.6-3.8,11.7-3.9,16.3c0,4.6,0.7,13.7,3.6,16.3
		c1.5,1.4,17.7,7.6,59,8.4c40.6,0.8,89.7-21.6,91.5-23.5C-211.1,269.5-259.8,246.3-300.4,246.4z"/>
	<path id="path3237" class="st3" d="M-308.6,253.1c-34.6,0.2-47,4.6-47.4,6.7c-0.6,3.3-0.8,8.3-0.8,9.9v0.5v0.5c0,1.6,0,6.5,0.6,9.9
		c0.4,2.1,12.7,6.7,47.3,7.5c20.6,0.4,43.4-3.6,54.3-6.3c10.9-2.7,12.4-1.9,12.7-10.6c-0.2-8.7-1.7-7.9-12.5-10.8
		C-265.3,257.4-288,253.1-308.6,253.1z"/>
	<path id="path3239" class="st3" d="M-319.5,260.7c-14.3,0-23.1-0.3-26.4,0c-2.5,0.2-2.2,3.8-2.2,6.7v2.9v2.9c0,2.9-0.4,6.5,2.1,6.7
		c3.3,0.3,12.2,0.2,26.4,0.4c1.5-0.2,1.4-4.8,1.5-6.5c0.9,0,3.9-0.1,4.7-0.1c0.1-1.7,0.1-2.7,0.1-3.1c0-0.4,0.1-1.4,0-3.1
		c-0.7,0-3.8-0.1-4.7-0.2C-318.2,265.5-317.9,260.9-319.5,260.7z"/>
	
		<rect id="rect3241" x="-339.7" y="265.2" transform="matrix(-1 -7.321526e-03 7.321526e-03 -1 -681.036 539.5111)" class="st4" width="0.3" height="11.6"/>
	
		<ellipse id="ellipse3243" transform="matrix(-1 -7.321526e-03 7.321526e-03 -1 -551.4101 539.7557)" class="st5" cx="-274.7" cy="270.9" rx="2.1" ry="1.3"/>
	
		<rect id="rect3245" x="-344.5" y="269.6" transform="matrix(-1 -7.321526e-03 7.321526e-03 -1 -621.4291 539.0345)" class="st6" width="69.6" height="2.1"/>
	<g id="g3259" transform="translate(-62.948033,-44.311823)">
		<circle id="circle3247" class="st7" cx="-265" cy="301.1" r="0.9"/>
		<circle id="circle3249" class="st7" cx="-272.3" cy="302.2" r="0.9"/>
		<circle id="circle3251" class="st7" cx="-252.7" cy="309.3" r="0.9"/>
		
			<rect id="rect3253" x="-247.3" y="291.4" transform="matrix(-1 -7.321526e-03 7.321526e-03 -1 -494.1906 581.8284)" class="st8" width="2.6" height="0.8"/>
		
			<rect id="rect3255" x="-293.3" y="296.7" transform="matrix(-0.3976 -0.9176 0.9176 -0.3976 -682.8042 147.7835)" class="st9" width="0.8" height="2.6"/>
		
			<rect id="rect3257" x="-155.6" y="312.7" transform="matrix(-0.9177 -0.3973 0.3973 -0.9177 -420.3739 539.0614)" class="st10" width="2.6" height="0.8"/>
	</g>
	<g id="g3273" transform="matrix(1,0,0,-1,-62.948033,104.57221)">
		<circle id="circle3261" class="st7" cx="-265.2" cy="-179.5" r="0.9"/>
		<circle id="circle3263" class="st7" cx="-272.5" cy="-178.3" r="0.9"/>
		<circle id="circle3265" class="st7" cx="-252.7" cy="-171.5" r="0.9"/>
		<polygon id="rect3267" class="st8" points="-245,-189.4 -247.6,-189.4 -247.6,-189.4 		"/>
		<polygon id="rect3269" class="st11" points="-291.8,-182 -294.2,-183 -294.2,-183 		"/>
		<polygon id="rect3271" class="st12" points="-153,-169.3 -153.3,-170.1 -153.3,-170.1 		"/>
	</g>
</g>
<g>
	<g>
		<path class="st13" d="M101.1,290.4c10.5-63.9,86.7-127,48.1-168.1"/>
		<g>
			<polygon class="st14" points="111.4,288.4 99.8,304.7 91.5,286.5 			"/>
		</g>
	</g>
</g>
<path class="st0" d="M50,54l9.8-49c-3.9,0.6-32.4,1.6-47.4,23.9c-15,22.5-4.8,49.2-3.9,53C22.3,72.5,36.1,63.2,50,54z"/>
<g>
	
		<radialGradient id="SVGID_00000173850999340592079030000005396072787159340715_" cx="427.3214" cy="-236.9014" r="47.7181" gradientTransform="matrix(-0.5552 0.8317 0.8317 0.5552 577.4218 -106.5943)" gradientUnits="userSpaceOnUse">
		<stop  offset="0" style="stop-color:#ED1C24"/>
		<stop  offset="0.8969" style="stop-color:#ED1C24;stop-opacity:0"/>
	</radialGradient>
	<path style="fill:url(#SVGID_00000173850999340592079030000005396072787159340715_);" d="M151.9,68.8l-9.8,49l38.4,25.6
		c1-1.5,14.7-23,4.2-46.8C175.6,75.2,154.5,69.4,151.9,68.8z"/>
	
		<radialGradient id="SVGID_00000142869979762875487870000005104147082252121733_" cx="429.4951" cy="-237.8838" r="53.0439" fx="430.2375" fy="-239.2915" gradientTransform="matrix(-0.5552 0.8317 0.8317 0.5552 577.4218 -106.5943)" gradientUnits="userSpaceOnUse">
		<stop  offset="0" style="stop-color:#39B54A"/>
		<stop  offset="0.8014" style="stop-color:#39B54A;stop-opacity:0"/>
	</radialGradient>
	<path style="fill:url(#SVGID_00000142869979762875487870000005104147082252121733_);" d="M142.2,117.8l38.4,25.6
		c-2.5,2.9-15.7,17-37.6,18.4c-24.3,1.6-40.1-13.9-42.5-16.3C114.5,136.4,128.3,127.1,142.2,117.8z"/>
</g>
<path id="path3235_00000083083917073325898710000001581367699154290594_" class="st17" d="M110.7,65.4
	C76.3,42.5,61.8,35.3,59.8,35.7C56,36.2,47.8,46.4,45.2,50.2s-9.9,16.6-9,20.3c0.5,2,13.4,11.3,47.3,34.9
	c33.3,23.2,60.8,15.8,63.4,15.3C146.5,118.2,144.6,87.9,110.7,65.4z"/>
<g>
	<g>
		<path class="st13" d="M274.7,166c-0.4,56.5-4,102.1-3.4,127.5"/>
		<g>
			<polygon class="st14" points="264.6,168.9 274.5,151.6 284.6,168.9 			"/>
		</g>
	</g>
</g>
<text transform="matrix(1 0 0 1 127.2041 395.8068)"><tspan x="0" y="0" class="st18 st19 st20">See Green</tspan><tspan x="4" y="25.2" class="st18 st19 st20">Stand On</tspan></text>
</svg>
