<?xml version="1.0" encoding="utf-8"?>
<!-- Generator: Adobe Illustrator 27.6.1, SVG Export Plug-In . SVG Version: 6.00 Build 0)  -->
<svg version="1.1" id="Layer_1" xmlns="http://www.w3.org/2000/svg" xmlns:xlink="http://www.w3.org/1999/xlink" x="0px" y="0px"
	 viewBox="0 0 327 491.2" style="enable-background:new 0 0 327 491.2;" xml:space="preserve">
<style type="text/css">
	.st0{fill:#FFFFFF;stroke:#010101;stroke-width:0.2835;stroke-miterlimit:11.3386;}
	.st1{fill:url(#SVGID_1_);}
	.st2{fill:url(#SVGID_00000160892615906669601540000011564814305799986865_);}
	.st3{fill:#00C1EA;stroke:#010101;stroke-width:0.2835;stroke-miterlimit:7.0169;}
	.st4{fill:#00C1EA;stroke:#010101;stroke-width:0.1824;stroke-miterlimit:11.3392;}
	.st5{fill:#00C1EA;stroke:#010101;stroke-width:0.3713;stroke-miterlimit:11.3392;}
	.st6{fill:#00C1EA;stroke:#010101;stroke-width:0.2909;stroke-miterlimit:11.3392;}
	.st7{fill:#00C1EA;stroke:#010101;stroke-width:0.2835;stroke-miterlimit:11.3386;}
	.st8{fill:#00C1EA;stroke:#010101;stroke-width:0.2103;stroke-miterlimit:11.3392;}
	.st9{fill:#00C1EA;stroke:#010101;stroke-width:0.2103;stroke-miterlimit:11.3394;}
	.st10{fill:#00C1EA;stroke:#010101;stroke-width:0.2103;stroke-miterlimit:11.3388;}
	.st11{fill:#00C1EA;stroke:#010101;stroke-width:0.2103;stroke-miterlimit:11.3389;}
	.st12{fill:#00C1EA;stroke:#010101;stroke-width:0.2103;stroke-miterlimit:11.3382;}
	.st13{fill:#00C1EA;stroke:#010101;stroke-width:0.2103;stroke-miterlimit:11.3384;}
	.st14{fill:none;stroke:#010101;stroke-width:2;stroke-miterlimit:7.0169;stroke-dasharray:2.9424,2.9424;}
	.st15{fill:#010101;}
	.st16{fill:url(#SVGID_00000041987191072448132850000007414510788987419265_);}
	.st17{fill:url(#SVGID_00000143605800715708755230000009581839876454512039_);}
	.st18{fill:#FF841F;stroke:#010101;stroke-width:0.2835;stroke-miterlimit:7.0169;}
	.st19{fill:#00C1EA;}
	.st20{font-family:'MyriadPro-Bold';}
	.st21{font-size:21px;}
</style>
<path class="st0" d="M129.4,444.1l-46.2,19.1c2.6,2.9,19.3,26.1,46.2,26.2c27.1,0.1,43.6-23.3,46.2-26.2
	C160.2,456.9,144.8,450.5,129.4,444.1z"/>
<g>
	
		<radialGradient id="SVGID_1_" cx="130.2405" cy="283.7177" r="47.7181" gradientTransform="matrix(1 0 0 1 0 14.3177)" gradientUnits="userSpaceOnUse">
		<stop  offset="0" style="stop-color:#ED1C24"/>
		<stop  offset="0.8969" style="stop-color:#ED1C24;stop-opacity:0"/>
	</radialGradient>
	<path class="st1" d="M85,317.7l46.2-19.1v-46.2c-1.8,0-27.3,0.6-41.3,22.5C77.2,294.5,84.1,315.2,85,317.7z"/>
	
		<radialGradient id="SVGID_00000010989763617634736430000007084138190903006387_" cx="132.4141" cy="284.7002" r="53.0439" fx="133.1565" fy="283.2925" gradientTransform="matrix(1 0 0 1 0 14.3177)" gradientUnits="userSpaceOnUse">
		<stop  offset="0" style="stop-color:#39B54A"/>
		<stop  offset="0.8014" style="stop-color:#39B54A;stop-opacity:0"/>
	</radialGradient>
	<path style="fill:url(#SVGID_00000010989763617634736430000007084138190903006387_);" d="M131.2,298.6v-46.2
		c3.8,0.5,22.9,3.6,36.2,21c14.8,19.3,10.7,41.1,10,44.4C162,311.3,146.6,305,131.2,298.6z"/>
</g>
<g id="g3275" transform="rotate(-90,39.977421,39.300132)">
	<path id="path3235" class="st3" d="M-306.3,105.4c-41.3,0.1-57.5,6.1-59.1,7.4c-2.9,2.6-3.8,11.7-3.9,16.3c0,4.6,0.7,13.7,3.6,16.3
		c1.5,1.4,17.7,7.6,59,8.4c40.6,0.8,89.7-21.6,91.5-23.5C-217,128.5-265.7,105.3-306.3,105.4z"/>
	<path id="path3237" class="st3" d="M-314.5,112.1c-34.6,0.2-47,4.6-47.4,6.7c-0.6,3.3-0.8,8.3-0.8,9.9v0.5v0.5c0,1.6,0,6.5,0.6,9.9
		c0.4,2.1,12.7,6.7,47.3,7.5c20.6,0.4,43.4-3.6,54.3-6.3s12.4-1.9,12.7-10.6c-0.2-8.7-1.7-7.9-12.5-10.8
		C-271.2,116.4-293.9,112.1-314.5,112.1z"/>
	<path id="path3239" class="st3" d="M-325.4,119.7c-14.3,0-23.1-0.3-26.4,0c-2.5,0.2-2.2,3.8-2.2,6.7v2.9v2.9c0,2.9-0.4,6.5,2.1,6.7
		c3.3,0.3,12.2,0.2,26.4,0.4c1.5-0.2,1.4-4.8,1.5-6.5c0.9,0,3.9-0.1,4.7-0.1c0.1-1.7,0.1-2.7,0.1-3.1c0-0.4,0.1-1.4,0-3.1
		c-0.7,0-3.8-0.1-4.7-0.2C-324.1,124.5-323.8,119.9-325.4,119.7z"/>
	
		<rect id="rect3241" x="-345.5" y="124.2" transform="matrix(-1 -7.318794e-03 7.318794e-03 -1 -691.6561 257.5006)" class="st4" width="0.3" height="11.6"/>
	
		<ellipse id="ellipse3243" transform="matrix(-1 -7.318794e-03 7.318794e-03 -1 -562.1063 257.7143)" class="st5" cx="-280.6" cy="129.9" rx="2.1" ry="1.3"/>
	
		<rect id="rect3245" x="-350.4" y="128.6" transform="matrix(-1 -7.318794e-03 7.318794e-03 -1 -632.1457 257.028)" class="st6" width="69.6" height="2.1"/>
	<g id="g3259" transform="translate(-62.948033,-44.311823)">
		<circle id="circle3247" class="st7" cx="-270.9" cy="160.1" r="0.9"/>
		<circle id="circle3249" class="st7" cx="-278.2" cy="161.2" r="0.9"/>
		<circle id="circle3251" class="st7" cx="-258.6" cy="168.3" r="0.9"/>
		
			<rect id="rect3253" x="-253.2" y="150.4" transform="matrix(-1 -7.318794e-03 7.318794e-03 -1 -504.9155 299.8487)" class="st8" width="2.6" height="0.8"/>
		
			<rect id="rect3255" x="-299.2" y="155.8" transform="matrix(-0.3976 -0.9176 0.9176 -0.3976 -561.7211 -54.5959)" class="st9" width="0.8" height="2.6"/>
		
			<rect id="rect3257" x="-161.5" y="171.7" transform="matrix(-0.9177 -0.3973 0.3973 -0.9177 -375.6459 266.2907)" class="st10" width="2.6" height="0.8"/>
	</g>
	<g id="g3273" transform="matrix(1,0,0,-1,-62.948033,104.57221)">
		<circle id="circle3261" class="st7" cx="-271.1" cy="-38.5" r="0.9"/>
		<circle id="circle3263" class="st7" cx="-278.4" cy="-37.3" r="0.9"/>
		<circle id="circle3265" class="st7" cx="-258.6" cy="-30.5" r="0.9"/>
		<polygon id="rect3267" class="st11" points="-250.9,-48.4 -253.5,-48.4 -253.5,-48.4 		"/>
		<polygon id="rect3269" class="st12" points="-297.7,-41 -300.1,-42 -300.1,-42 		"/>
		<polygon id="rect3271" class="st13" points="-158.9,-28.3 -159.2,-29.1 -159.2,-29.1 		"/>
	</g>
</g>
<g>
	<g>
		<path class="st14" d="M279.6,213.2c-48.9,42.5-147.7,42.5-144.3,98.7"/>
		<g>
			<polygon class="st15" points="270.4,208.1 289.7,202.9 284.5,222.2 			"/>
		</g>
	</g>
</g>
<g>
	<path class="st0" d="M275.3,47.7l49,9.8c-0.6-3.9-1.6-32.4-23.9-47.4c-22.5-15-49.2-4.8-53-3.9C256.7,20,266,33.8,275.3,47.7z"/>
	<g>
		
			<radialGradient id="SVGID_00000000912424785406306150000002193357043854959515_" cx="-88.0881" cy="752.5739" r="47.7181" gradientTransform="matrix(-0.8317 -0.5552 0.5552 -0.8317 -279.138 717.8153)" gradientUnits="userSpaceOnUse">
			<stop  offset="0" style="stop-color:#ED1C24"/>
			<stop  offset="0.8969" style="stop-color:#ED1C24;stop-opacity:0"/>
		</radialGradient>
		<path style="fill:url(#SVGID_00000000912424785406306150000002193357043854959515_);" d="M260.5,149.6l-49-9.8l-25.6,38.4
			c1.5,1,23,14.7,46.8,4.2C254.1,173.2,259.8,152.2,260.5,149.6z"/>
		
			<radialGradient id="SVGID_00000121243461808015658130000007012865477874789802_" cx="-85.9143" cy="753.5563" r="53.0439" fx="-85.1719" fy="752.1486" gradientTransform="matrix(-0.8317 -0.5552 0.5552 -0.8317 -279.138 717.8153)" gradientUnits="userSpaceOnUse">
			<stop  offset="0" style="stop-color:#39B54A"/>
			<stop  offset="0.8014" style="stop-color:#39B54A;stop-opacity:0"/>
		</radialGradient>
		<path style="fill:url(#SVGID_00000121243461808015658130000007012865477874789802_);" d="M211.4,139.8l-25.6,38.4
			c-2.9-2.5-17-15.7-18.4-37.6c-1.6-24.3,13.9-40.1,16.3-42.5C192.9,112.2,202.2,126,211.4,139.8z"/>
	</g>
	<path id="path3235_00000083083917073325898710000001581367699154290594_" class="st18" d="M263.9,108.3
		c22.8-34.4,30.1-48.8,29.7-50.8c-0.6-3.9-10.7-12.1-14.5-14.6c-3.8-2.6-16.6-9.9-20.3-9c-2,0.5-11.3,13.4-34.9,47.3
		c-23.2,33.3-15.8,60.8-15.3,63.4C211.1,144.2,241.3,142.2,263.9,108.3z"/>
	<g>
		<g>
			<path class="st14" d="M175.4,193.6c31.8-46.7,22.2-32.2,35.8-53.6"/>
			<g>
				<polygon class="st15" points="185.4,196.8 167.5,205.6 168.8,185.7 				"/>
			</g>
		</g>
	</g>
</g>
<text transform="matrix(1 0 0 1 178.5941 394.4065)" class="st19 st20 st21">   See Red</text>
<text transform="matrix(1 0 0 1 182.4941 419.6065)" class="st19 st20 st21">Keep Clear</text>
</svg>
